<?xml version="1.0" encoding="utf-8"?>
<!-- Generator: Adobe Illustrator 27.5.0, SVG Export Plug-In . SVG Version: 6.00 Build 0)  -->
<svg version="1.1" id="レイヤー_1" xmlns="http://www.w3.org/2000/svg" xmlns:xlink="http://www.w3.org/1999/xlink" x="0px"
	 y="0px" viewBox="0 0 529.6 539.1" style="enable-background:new 0 0 529.6 539.1;" xml:space="preserve">
<style type="text/css">
	.st0{opacity:0.5;}
	.st1{fill:#E9DAC3;}
</style>
<g id="Group_319" class="st0">
	<path id="Path_285" class="st1" d="M264.8,0C118.6,0,0,120.7,0,269.5s118.6,269.5,264.8,269.5s264.8-120.7,264.8-269.5
		S411,0,264.8,0 M448.3,456.3c-49,49.9-114.2,77.4-183.5,77.4s-134.5-27.5-183.5-77.4s-76-116.2-76-186.8s27-136.9,76-186.8
		S195.5,5.4,264.8,5.4s134.5,27.5,183.5,77.4s76,116.2,76,186.8S497.3,406.4,448.3,456.3"/>
	<path id="Path_286" class="st1" d="M92.2,330c6.2,0.2,12.2-2.6,16.1-7.4c0.9,4.9,2.4,9,4.2,11.7c0.1,0.1,0.2,0.2,0.3,0.3
		c0.1,0,0.1,0.1,0.2,0.2l0.1,0.1c0.1,0.1,0.3,0.2,0.5,0.3c0.1,0.1,0.2,0.1,0.4,0.2l0.1,0c19,5.4,36,1.6,53.4-12
		c8.6,15,23.7,20.4,35.8,20.4c0.4,0,0.8,0,1.1,0h0.1c0.3,0,0.6-0.1,0.9-0.2l0.1,0l0.1-0.1c0.2-0.1,0.3-0.2,0.5-0.3
		c10.2-7.9,14.2-24,10.4-40.9c8.9,1.3,20.2-1,28.5-4.3l0,0l0.1-0.1c0.3-0.1,0.5-0.3,0.7-0.5l0.1-0.1l0-0.1c0.2-0.2,0.4-0.5,0.5-0.8
		l0.1-0.2c0-0.1,0.1-0.3,0.1-0.4c2.8-19.9,3.6-37.5-15.1-52.2c-11.6-9.1-24.9-10-31.6-9.7c2.1-7.1,4.6-21.7-5.4-33.2
		c-18.2-21.1-43.7-19.9-60.7-13c-1.5-1.8-3.3-3.3-5.2-4.6c7.1-2.6,13.7-6.2,19.8-10.6c0.2-0.1,0.4-0.2,0.5-0.4
		c10.5-7.6,19.5-17.2,22.1-25.2v-0.1c0-0.2,0.1-0.4,0.1-0.6c0-0.2,0-0.3,0-0.5l0-0.1c0-0.2-0.1-0.3-0.2-0.5c0-0.1-0.1-0.3-0.1-0.4
		l-0.1-0.1l0-0.1c-3.4-6.4-13.8-12.7-25-16.4c11.9-27.6,36.6-44.5,49.7-44.5h0.1c6.2,0,11.1,2.8,13.1,7.4c1.7,4.3,0.7,9.2-2.6,12.5
		c-4.2,4.5-10.1,3.5-13.8,0.8c-2.5-1.8-4.7-5.2-2.9-8.5c0.7-1.3,0.2-2.9-1.1-3.7c-1.3-0.7-2.9-0.2-3.6,1c0,0,0,0,0,0.1
		c-2.8,5.2-1,11.4,4.5,15.5c5.7,4.2,14.7,5.1,20.7-1.4c4.8-4.8,6.2-12.1,3.6-18.4c-2.8-6.7-9.5-10.6-17.9-10.7h-0.1
		c-8.4,0-21.1,5.8-33,16.8c0.7-6.2-1.2-12.3-5.4-17c-4.7-4.9-12-6.4-18.1-3.6c-6.1,2.7-9.8,11.3-7.6,17.4c1.1,3,3.5,5.3,6.5,6.3
		c3.4,1.1,7,0.6,10-1.3c1.2-0.8,1.6-2.5,0.8-3.7c-0.7-1.2-2.3-1.6-3.6-0.9c0,0,0,0-0.1,0c-1.6,1.1-3.6,1.4-5.5,0.8
		c-1.5-0.5-2.7-1.6-3.2-3c-1.3-3.5,1.2-9,4.7-10.6c4.2-1.9,9.1-0.9,12.2,2.4c3,3.1,6.6,11,1.4,20.6c0,0-1.7,2.7-3.1,4.8
		c-4.5,6-8.2,12.5-11,19.4c-4.2-1.1-8.6-1.7-13-1.8c1-6.4,1.4-12.9,1.1-19.3l0,0c-0.6-10.8-3.7-19.2-9.3-25.3l-0.6-0.7
		c-0.9-1.2-2.5-1.4-3.7-0.5c0,0,0,0-0.1,0.1C57.8,125.5,25,195,25,269.5c0,29.7,5.3,59.2,15.7,87c1.1,3.2,1.9,5,1.9,5.1l0.1,0.1
		c4,10.1,8.7,19.9,14.1,29.3c0.5,0.8,1.3,1.3,2.3,1.3c0.5,0,0.9-0.1,1.3-0.4c1.3-0.8,1.7-2.4,1-3.7c-6.1-10.8-11.4-22.1-15.7-33.7
		c-0.3-0.9-0.7-2-1-3.2c-2.3-7.7-1.3-16,2.7-22.9c3-5.2,7.2-8.6,11.8-9.6c5.2-1.2,10.7,0.2,14.7,3.7c3.2,3.1,4.8,7.5,4.2,11.9
		c-0.5,5.4-3.4,7.7-5.8,8.7c-3.6,1.5-8.4,0.9-11-1.4c-1.1-1-2.7-0.9-3.7,0.2c0,0,0,0-0.1,0.1c-1,1.1-0.8,2.8,0.3,3.8
		c4.2,3.6,10.9,4.6,16.5,2.3c5.3-2.2,8.5-6.9,9.1-13.2c0.2-2.3,0.1-4.6-0.5-6.9C85.9,329.4,89,330,92.2,330 M108.4,296.7
		L108.4,296.7c-0.2,0.9-0.3,1.7-0.4,2.5c-0.8-0.8-1.6-1.5-2.6-2c-4.4-2.7-9.7-3.5-14.6-2c-3.3,1-5.9,3.4-7.2,6.6
		c-0.6,1.4,0.1,2.9,1.4,3.5c1.3,0.6,2.9-0.1,3.4-1.4c0,0,0,0,0-0.1c0.8-1.7,2.2-3,4-3.6c3.5-1,7.2-0.4,10.3,1.5
		c2.1,1.3,3.6,3.5,4,5.9c0.7,3.8-0.1,7.7-2.2,10.9c-4.1,6-12.9,7.7-20.9,4c-2.2-1-4.2-2.3-6-3.9l-0.1-0.1l-0.1-0.1
		c-7.4-6.7-9-17.8-4.8-32.6l2.1-6.8c3.3-8.7,3.7-19.4,0.7-30.1c-5.4-19-19.8-31.8-38.8-34.6c1.1-4.9,2.4-9.8,3.9-14.6
		c6.3,7.7,13.5,14.6,21.5,20.5c9.3,7,20.5,11,31.7,12.8c0.3,0.1,0.5,0.1,0.8,0.1l0,0c4.2,0.6,8.4,0.9,12.6,0.9
		c1.5,0,3.1-0.1,4.6-0.1c-10.4,5.8-19.5,14.1-22.5,21.8l0,0l0,0c-0.1,0.3-0.2,0.7-0.2,1l0,0.2c0,0.3,0.1,0.6,0.2,0.8l0,0v0
		c4.3,10.9,16.3,18.8,24.6,23.1C111.2,286,109.4,291.3,108.4,296.7 M50.3,267.1c-3.9-2.6-8.8-3.3-13.3-1.9c-2.5,0.7-4.8,2.1-6.7,3.9
		c0-16.6,1.7-33.2,5.1-49.4c17,2.3,30.1,13.8,34.9,30.9c4.2,14.7,0.9,30.1-7.9,37.3c-6.6,5.4-13.3,7.6-19.5,6.4
		c-5.1-1-9-4.3-10.4-6.9c-1.9-3.4-2.1-7.4-0.8-11.1c1.2-2.9,3.6-5.1,6.7-5.9c3-1,6.2-0.6,8.8,1.2c1.5,0.9,2.5,2.4,2.8,4.2
		c0.1,1.5,1.4,2.6,2.8,2.5s2.6-1.4,2.5-2.8c0,0,0-0.1,0-0.1C54.9,272,53.1,269,50.3,267.1 M180.5,251l-2.3,2.8l-82,0.5
		c6.5-9.6,23-20,35.6-21.7c0.9-0.1,1.7-0.7,2.1-1.6c0.4-0.9,0.3-1.9-0.3-2.7c-4.8-6.7-6.9-20.3-5.1-29.3L180.5,251z M120.1,279.3
		c-0.2-0.8-0.7-1.4-1.4-1.7c-6.5-3.1-17.4-9.4-22.7-18l77.6-0.4l-26.2,30.9l-32.9,4.3c1-4.5,2.8-8.9,5.3-12.8
		C120.1,280.9,120.3,280.1,120.1,279.3 M126.4,226.3c-9.8,2.6-20,3.3-30,1.9l-12.7-34.4l39.6,22C123.9,219.4,125,223,126.4,226.3
		 M112.6,306.3c0.1-2.2,0.4-4.3,0.7-6.4l28.8-3.7l-26.9,31.7C113.2,322.8,112.1,314.6,112.6,306.3 M170.6,318
		c-0.4-0.7-1-1.3-1.8-1.4c-0.2,0-0.4-0.1-0.6-0.1c-0.6,0-1.2,0.2-1.7,0.6c-15.5,12.9-30.5,17.4-47,14l53-62.4l27.8,69.6
		C189.6,337.4,177.1,331.8,170.6,318 M213.4,296.1c-0.9-0.3-2-0.1-2.7,0.6c-0.7,0.7-1,1.8-0.7,2.7c4.4,14.7,2.5,29-4.8,37
		l-28.9-72.4l4.4-5.2c0.6-0.3,1.1-0.9,1.3-1.6l3.7-4.3c0.1-0.1,0.2-0.1,0.2-0.1c0.1-0.1,0.2-0.3,0.3-0.4l3.8-4.5l48.7,46.5
		C229.4,297.4,219.4,298.2,213.4,296.1 M228.1,247.9c15,11.8,15.8,25.1,13.8,42.1l-48.3-46.2l3.6-4.3
		C200.9,239.1,215.9,238.3,228.1,247.9 M190.4,204.3c10.3,11.9,4.2,28.8,3.2,31.3l-9.6,11.4l-13.2-13.2l-5.2-44.2
		C175.2,191.4,184,196.6,190.4,204.3 M160,188.8l4.6,38.9l-33.1-33C140.4,190.3,150.2,188.2,160,188.8 M146.6,167.2l-38.5-10.4
		l55.9-7.5C160.5,155.2,154,161.7,146.6,167.2 M116.3,84.8c4,4.9,6.4,11.4,7,19.7l-56,36.1C80.7,119.6,97.2,100.7,116.3,84.8
		 M61.1,151l62.4-40.3c-0.1,5.5-0.7,11-1.7,16.4c-0.1,0.8,0.1,1.7,0.6,2.3c0.5,0.6,1.3,0.9,2.2,0.9c5.5-0.2,11.1,0.5,16.4,2.1l0,0
		l0.1,0c9.2,2.6,17.8,7.1,22.4,11.6l-69.4,9.4h0l-36.9,5C58.5,155.8,59.8,153.4,61.1,151 M54.3,164.1l40-5.4l46.4,12.5
		c-7.1,4.4-14.5,7.7-20.5,8.4c-1.5,0.2-2.5,1.6-2.3,3c0.1,1.1,0.9,1.9,1.9,2.2c3.3,0.9,6.4,2.7,8.8,5.2c-1,0.5-1.9,1.1-2.8,1.6
		c-0.1,0.1-0.2,0.2-0.4,0.3l-0.2,0.1l0,0.1c-0.2,0.2-0.4,0.5-0.5,0.7l0,0.1l0,0c-1.8,4.3-2.5,10.1-2.1,16.2l-70.9-39.4
		C52.5,167.9,53.4,166,54.3,164.1 M76.7,189.9l13.7,37.3c-9.1-1.9-17.7-5.6-25.2-11.1c-13.5-10.1-20.6-19.4-22.7-22.4
		c2.1-6.4,4.5-12.7,7.1-18.8L76.7,189.9z M58.1,313.7c-6.1,1.3-11.6,5.6-15.3,12.1c-1.6,2.8-2.8,5.8-3.5,8.9
		c-3.7-13.2-6.2-26.7-7.6-40.3c2.9,2.6,6.5,4.4,10.3,5.1c1.5,0.3,2.9,0.4,4.4,0.4c5.2,0,11.9-1.7,19.4-7.9l0,0
		c-1.6,9.3-0.5,16.3,1.8,21.6C64.4,313.1,61.2,313.1,58.1,313.7"/>
	<path id="Path_287" class="st1" d="M298.8,339.6c-0.4-0.1-9-2.8-17.7-0.1c-7.1,2.2-11.4,7.4-13.8,11.4c-2.4-4-6.8-9.2-13.8-11.4
		c-8.7-2.8-17.3-0.1-17.7,0c-1.4,0.5-2.2,2-1.7,3.4c0.4,1.4,1.9,2.2,3.3,1.8c0,0,0,0,0,0c0.1,0,7.5-2.3,14.5,0
		c9.4,3,12.9,13.1,12.9,13.2c0,0.1,0.1,0.1,0.1,0.2c0,0.1,0.1,0.2,0.2,0.3c0.1,0.2,0.2,0.4,0.4,0.5l0.2,0.2c0.2,0.2,0.5,0.3,0.8,0.5
		l0,0h0c0.3,0.1,0.5,0.1,0.8,0.1c0.3,0,0.5,0,0.8-0.1h0l0,0l0.2-0.1c0.2-0.1,0.4-0.2,0.6-0.4c0.1-0.1,0.2-0.2,0.3-0.3
		c0.1-0.1,0.3-0.3,0.4-0.5c0.1-0.1,0.1-0.2,0.2-0.3l0.1-0.2c0-0.1,3.5-10.3,12.9-13.2c7-2.2,14.4,0,14.5,0c1.4,0.4,2.9-0.4,3.3-1.8
		c0,0,0,0,0,0C301,341.6,300.2,340.1,298.8,339.6"/>
	<path id="Path_288" class="st1" d="M339.6,358.2c-4.2-1.2-8.6-1.2-12.8,0c-3.9,1.3-7.2,3.8-9.4,7.2c-2.2-3.4-5.5-6-9.4-7.2
		c-4.2-1.2-8.6-1.2-12.8,0c-1.4,0.5-2.2,2-1.7,3.4c0.4,1.4,1.9,2.2,3.3,1.8c0,0,0,0,0,0c3.1-0.9,6.5-0.9,9.6,0
		c6.1,1.9,8.4,8.6,8.4,8.7l0.1,0.2l0.2,0.3c0.1,0.2,0.2,0.4,0.4,0.5l0.2,0.2c0.2,0.2,0.5,0.4,0.8,0.5c0.3,0.1,0.6,0.1,0.9,0.2
		c0.3,0,0.6,0,0.8-0.1l0.2-0.1c0.2-0.1,0.4-0.2,0.6-0.4c0.1-0.1,0.2-0.2,0.3-0.3c0.1-0.1,0.2-0.3,0.4-0.5l0.2-0.3l0.1-0.2
		c0-0.1,2.3-6.7,8.4-8.7c3.1-0.8,6.5-0.8,9.6,0c1.4,0.4,2.9-0.4,3.3-1.8c0,0,0,0,0,0C341.8,360.1,341,358.6,339.6,358.2"/>
	<path id="Path_289" class="st1" d="M322.1,412.1c44.5,11.6,68.2,42.7,68.4,43c0.8,1.2,2.5,1.4,3.6,0.6c0,0,0.1,0,0.1-0.1
		c1.2-0.9,1.4-2.6,0.5-3.8c-1-1.3-25-32.9-71.3-45c-33.9-8.8-103-1.8-105.9-1.5c-1.4,0.2-2.4,1.3-2.4,2.7c0,0.6,0.4,14,10.1,22.8
		c9.8,8.9,16.9,7,17.7,6.7c1.4-0.5,2.2-2,1.7-3.4c-0.4-1.3-1.9-2.1-3.2-1.8c-0.2,0.1-5.1,1.3-12.6-5.6c-5.7-5.2-7.5-12.6-8.1-16.4
		C233.8,409.4,292.7,404.5,322.1,412.1"/>
	<path id="Path_290" class="st1" d="M438.4,430c-44.4,49.7-107.6,78.2-173.6,78.2c-22.6,0-45.1-3.3-66.7-9.8l-34.9-106.5
		c2.9-0.7,5.9-0.8,8.8-0.1c9.7,1.7,14.7,11.7,14.8,11.9l33.3,62.3c0.4,0.7,1,1.2,1.8,1.3c0.8,0.2,1.6,0,2.2-0.5
		c0.3-0.2,24.6-19.1,57.2-21.8c36.2-2.9,66.3,14.7,66.5,14.9c1.2,0.7,2.9,0.3,3.6-0.9c0,0,0,0,0-0.1c0.7-1.3,0.3-2.9-0.9-3.7
		c-1.3-0.8-31.7-18.7-69.6-15.6c-28.4,2.3-50.3,16-57.5,21l-31.8-59.5c-0.3-0.5-6.2-12.5-18.6-14.7c-9.7-1.7-14.1,1.5-14.6,1.9
		c-0.9,0.7-1.2,1.9-0.9,3l35,106.8c-6.2,0.1-19.9-1.3-27.5-14.3c-3.6-6.2-27.1-74.6-36.9-103.4c2.7-0.4,5.3-0.5,8-0.2
		c3.5,0.3,6.8,2,9,4.8c0.8,1.2,2.5,1.5,3.6,0.6c0,0,0,0,0,0c1.2-0.9,1.4-2.6,0.6-3.8c-3.2-4-7.9-6.6-13-7
		c-9.8-0.7-12.8,1.2-13.7,2.4c-0.6,0.7-0.7,1.7-0.4,2.6c1.3,3.8,30.2,89.1,37.2,104.9c-2.6-0.7-5.2-1.6-7.7-2.7
		c-3.9-1.9-7.4-4.6-10.2-7.9l-0.3-0.3c-0.6-0.6-1-1.2-1.5-1.9l-0.1-0.2c-6.6-9.6-23.9-45.2-35.3-70c1.1-0.5,2.3-0.8,3.6-1.1
		c2.5-0.5,5.2-0.6,7.7,0c1.4,0.4,2.9-0.5,3.2-1.9c0,0,0,0,0,0c0.4-1.4-0.4-2.9-1.8-3.3c-3.3-0.8-6.8-0.8-10.1,0
		c-5.7,1.2-7.6,3.2-8,3.8c-0.6,0.8-0.7,1.9-0.3,2.8c2.4,5.3,19.3,41.8,30.5,62.4c-14.5-10.5-27.8-22.6-39.6-36.1
		c-0.9-1.1-2.6-1.2-3.7-0.3c0,0,0,0-0.1,0.1c-1.1,1-1.2,2.7-0.2,3.8c14.7,16.8,31.6,31.5,50.3,43.7c0.5,0.8,1.1,1.5,1.8,2.2
		c3.3,3.9,7.4,7.1,12.1,9.3c4.5,2,9.1,3.4,13.9,4.3c8.8,10.9,21.4,12.5,28.2,12.5c1.4,0,2.7-0.1,4.1-0.2c22.4,6.8,45.6,10.3,69,10.3
		c67.4,0,132.1-29.2,177.5-80c1-1.1,0.9-2.8-0.2-3.8C441.1,428.8,439.4,428.9,438.4,430C438.4,430,438.4,430,438.4,430"/>
	<path id="Path_291" class="st1" d="M496.9,292.3c1.7-14.7-5.9-28.9-19-35.6c17.2-13.3,20.4-38.1,7.1-55.3
		c-2.9-3.7-6.4-6.9-10.4-9.4c2.8-4.5,4.6-9.6,5.2-14.9c2.1-19-11.3-36.2-30-38.3c-4.2-0.5-8.4-0.2-12.4,0.9c0.9-2.6,1.5-5.3,1.8-8.1
		c1.2-10.1-1.7-20.3-8-28.3c-8.7-11.2-23-16.6-37-13.8c0-0.1,0-0.2,0-0.3c1.2-10.2-1.7-20.4-8-28.5c-5.8-7.4-14.1-12.4-23.3-14
		c-60.2-27.5-129.2-28.4-190.2-2.7c-1.3,0.6-2,2.2-1.4,3.5c0.5,1.3,2.1,2,3.4,1.5c0,0,0,0,0,0c13.6-5.7,27.6-10.2,42-13.2l26.9,39.4
		c-20.3,6.9-31.2,28.9-24.4,49.2c0.8,2.3,1.8,4.5,3,6.6c-2.7,1.3-5.3,2.9-7.6,4.8c-7.9,6.4-12.9,15.7-14,25.8
		c-1.5,13.3,4,26.5,14.5,34.8c-0.7,2.2-1.1,4.4-1.4,6.6c-2.1,19.2,11.5,36.7,30.4,38.8c1.3,0.1,2.6,0.2,3.9,0.2
		c6.6,0,13-1.9,18.5-5.5c4.3,2.9,9.2,4.9,14.4,5.8c-1.4,21.3,14,40.3,35.1,42.7c6.6,0.8,13.2-0.2,19.3-2.7
		c-0.1,18.4,13.5,34.3,31.8,36.4c1.4,0.2,2.7,0.2,4.1,0.2c0.6,0,1.1,0,1.7,0c-0.8,2.6-1.4,5.2-1.7,7.9c-2.4,21.7,13,41.4,34.3,43.8
		c1.5,0.2,3,0.3,4.5,0.3c1.6,0,3.3-0.1,4.9-0.3c-1.2,2.8-2,5.7-2.4,8.7c-0.9,7.7,1.3,15.3,6,21.4c5.4,6.9,13.6,11,22.4,11
		c14.7-0.1,26.9-11.2,28.4-25.8c0.7-6.1-0.5-12.2-3.5-17.5c11.6-2.8,20.8-13.1,22.3-26.2c1-8.7-1.7-17.3-7.4-23.9
		c1.2-0.7,2.3-1.5,3.3-2.4C491.3,310.1,496,301.6,496.9,292.3 M487.8,228.8c-1.8,18.5-18.1,32-36.2,30.2c-7.5-0.7-14.4-4-19.7-9.3
		c0.2-1.1,0.4-2.3,0.6-3.5c1.3-11.4-2.6-22.8-10.6-31.1c5.8-4.2,10.3-10,13.1-16.6c6.6-5.1,14.9-7.5,23.2-6.7
		C476.3,193.8,489.6,210.3,487.8,228.8 M367.5,174.9c4-16.2,19.3-26.9,35.8-25.1c8.8,1,16.8,5.5,22.2,12.5
		c11.6,14.9,8.9,36.3-5.9,47.9c-0.6,0.4-1.2,0.9-1.8,1.3c-10.6-8.2-24.7-10-37-4.8C381.2,194.7,376.4,183,367.5,174.9 M388.9,142.7
		c-0.1,1.1-0.3,2.2-0.5,3.2c-12.1,3.8-21.6,13.3-25.3,25.4c-5.3-3.6-11.3-5.8-17.6-6.6c-1.8-0.2-3.7-0.3-5.5-0.2
		c0-0.3,0.1-0.6,0.1-0.9c1.2-10.5-1.8-21.1-8.3-29.4c-1.4-1.8-2.9-3.4-4.6-4.9c4.4-14.6,18.6-24,33.8-22.4c3.8,0.4,7.4,1.5,10.8,3.3
		C383.5,116.5,390.4,129.4,388.9,142.7 M329,107.1c-0.7,6.6-3.3,12.9-7.3,18.1c-15.8-10-36.5-7.3-49.2,6.4
		c-9.9-7.7-15.1-20.1-13.6-32.6c2.2-19.7,19.7-33.9,39-31.7c9.4,1.1,17.9,5.9,23.6,13.3C327.4,88.1,330.1,97.6,329,107.1
		 M304.8,124.8c9,1,17.2,5.7,22.7,12.8c5.6,7.2,8.2,16.3,7.2,25.4c-0.1,0.7-0.2,1.4-0.3,2.1c-15.2,2.6-27.6,13.7-31.9,28.6
		c-10.9,0.5-21.4-4.4-28.1-13c-5.6-7.2-8.2-16.3-7.2-25.4C269.3,136.3,286.1,122.6,304.8,124.8 M306.4,201.2
		c2.2-19.3,19.3-33.3,38.4-31.1c19,2.2,32.7,19.7,30.6,39.1c0,0.2,0,0.3,0,0.5c-9.1,5.9-15.3,15.4-17.1,26.1
		c-6.4,3.8-13.9,5.4-21.3,4.6c-9.2-1.1-17.6-5.8-23.2-13.1C307.9,219.9,305.3,210.5,306.4,201.2 M363.2,238.3
		c1.7-16.4,15.5-28.9,31.9-29.1c1.2,0,2.4,0.1,3.6,0.2c17.6,2,30.3,18.3,28.4,36.2c-2,17.9-18,30.9-35.6,28.9
		C374,272.5,361.2,256.2,363.2,238.3 M391,279.8c1.4,0.2,2.8,0.2,4.2,0.3c15.7-0.1,29.6-9.9,35-24.7c3.6,3.1,7.7,5.5,12.2,7
		c7.8,13,5,29.7-6.6,39.5c-11.9-10.9-29.3-13.3-43.6-5.9c-3.5-5-5.5-10.9-5.6-17C388.1,279.4,389.5,279.7,391,279.8 M449.3,144.1
		c15.7,1.8,27.1,16.3,25.3,32.4c-0.5,4.6-2.1,9.1-4.7,13c-10.5-4.6-22.5-4.1-32.7,1.2c0.2-1,0.3-2,0.5-3c1.5-12.8-3.4-25.5-13.1-34
		C430.8,146.7,440,143.1,449.3,144.1 M405.3,94.4c8.6,1,16.5,5.4,21.8,12.3c7.9,10.2,9.3,24.1,3.5,35.7c-3.9,2-7.4,4.8-10.2,8.1
		c-7.8-5.1-17.2-7.2-26.5-5.8c0.1-0.5,0.2-0.9,0.2-1.4c1.7-14.7-5.3-29-17.9-36.7C383.1,97.7,394.1,93.1,405.3,94.4 M360.2,51.8
		c0.5,0,0.9,0.1,1.3,0.2c0.3,0.1,0.5,0.1,0.8,0.1h0c7.8,1.4,14.9,5.7,19.8,12c5.4,6.9,7.9,15.7,6.9,24.5c-0.1,0.8-0.2,1.6-0.4,2.4
		c-6.9,2.6-12.9,7.1-17.3,13.1c-3.2-1.3-6.5-2.2-9.9-2.6c-9.9-1.1-19.8,1.8-27.5,8.2c0.1-0.7,0.2-1.4,0.3-2.1
		c1.3-10.9-1.8-21.8-8.6-30.4c-0.3-0.3-0.5-0.7-0.8-1C328.9,60.5,344,50.1,360.2,51.8 M222.4,34.8c42.6-7.9,86.7-3.7,127,12.1
		c-13.4,2.6-24.3,12.2-28.8,25c-16.5-14.8-41.8-13.4-56.6,3.1c-0.4-0.4-0.9-0.7-1.4-0.8c-4.4-0.9-9-1-13.5-0.3L222.4,34.8z
		 M255.1,78.8c1.9,0,3.8,0.2,5.6,0.5c-12.4,18.1-8.7,42.7,8.4,56.4c-1,1.4-2,3-2.8,4.5c-9.7-11.1-25-15.4-39.1-11.1
		c-3.1-5.2-4.7-11.1-4.7-17.2C222.5,93.7,237.1,78.8,255.1,78.8 M205.9,162.3c2-18.2,18.2-31.3,36-29.2c8.6,1,16.5,5.4,21.8,12.3
		c0.1,0.1,0.2,0.2,0.3,0.3c-3.2,9.2-3,19.2,0.5,28.2c-7.3,5.7-12.3,13.8-14.2,22.9c-5,2-10.4,2.8-15.7,2.2
		C216.7,196.9,203.8,180.4,205.9,162.3 M244.7,236.6c-16-1.8-27.5-16.6-25.7-32.9c0.2-1.4,0.4-2.8,0.8-4.1
		c9.1,5.2,19.9,6.3,29.8,3.1c-0.5,11.5,4,22.6,12.5,30.4C256.7,236.1,250.7,237.3,244.7,236.6 M255,200.8c0.9-8.6,5.2-16.5,11.8-22
		c1,1.8,2.1,3.5,3.4,5.1c6.4,8.3,15.9,13.6,26.3,14.8c1.5,0.2,3,0.2,4.5,0.3l0.3,0c-0.1,0.5-0.2,1.1-0.2,1.6c-0.3,3.1-0.3,6.2,0,9.2
		c-10.2,5.8-17.3,15.8-19.5,27.3C264.8,234.1,253,218.3,255,200.8 M316.6,279.8c-18.8-2.2-32.4-19.5-30.3-38.7
		c1.1-10.5,6.9-19.9,15.8-25.6c1.4,5.5,3.9,10.6,7.4,15.1c6.5,8.4,16.2,13.9,26.8,15.1c1.5,0.2,3.1,0.3,4.6,0.3
		c4.7,0,9.4-0.9,13.9-2.6c0.1,1.9,0,3.8-0.2,5.7C352.5,268.2,335.4,282,316.6,279.8 M367.7,313.5c-8.1-0.9-15.5-5.1-20.4-11.5
		c-4.9-6.3-7.3-14.3-6.5-22.3c9.7-5.9,16.4-15.6,18.6-26.7c3.3,11,11.4,20,22.1,24.4c-0.2,7.6,2,15.2,6.3,21.5
		c-5.3,3.7-9.6,8.7-12.5,14.5C372.7,313.8,370.2,313.8,367.7,313.5 M406.1,365.4c-18.4-2.1-31.7-19.1-29.6-37.9
		c1-9,5.4-17.2,12.5-22.9c14.2-11.6,35.2-9.4,46.7,4.8c0.2,0.2,0.3,0.4,0.5,0.6c11.6,14.8,9.2,36.2-5.3,48.1
		C423.9,363.9,415,366.5,406.1,365.4 M464,385.4c-1.5,12.8-13,22-25.8,20.5c-12.8-1.5-22-13-20.5-25.8c0.4-3.9,1.8-7.6,4-10.8
		l0.1-0.1c4.5-1.5,8.7-3.8,12.3-6.7c1.3-1.1,2.6-2.3,3.8-3.5c4.6,5.7,11.2,9.3,18.4,10.2c1,0.1,2.1,0.2,3.1,0.2l0.6,0
		C463.3,374,464.7,379.7,464,385.4 M482.7,341.7c-1.5,13.6-13.1,23.4-25.8,21.9c-6.2-0.8-11.8-4-15.5-9c7.1-10,9.2-22.7,5.8-34.5
		c3.6,1.8,7.4,2.9,11.3,3.4c1.3,0.2,2.6,0.2,4,0.2c4.6,0,9.1-0.9,13.2-2.7C481.1,326.5,483.6,334.1,482.7,341.7 M480.8,311.8
		c-11,9-26.8,8.7-37.5-0.7c-0.9-1.5-1.9-3-3-4.3c-0.2-0.3-0.5-0.6-0.7-0.9c11.9-10.3,15.8-27.2,9.7-41.7c0.6,0.1,1.2,0.2,1.8,0.2
		c1.3,0.1,2.6,0.2,3.8,0.2c6.1,0,12.1-1.5,17.5-4.4c15.6,6,23.4,23.4,17.4,39C488,304.1,484.8,308.4,480.8,311.8"/>
</g>
</svg>
