<svg xmlns="http://www.w3.org/2000/svg" xmlns:xlink="http://www.w3.org/1999/xlink" width="408" height="350" viewBox="0 0 408 350">
  <defs>
    <clipPath id="clip-path">
      <rect id="Rectangle_428" data-name="Rectangle 428" width="376.609" height="350" fill="none"/>
    </clipPath>
  </defs>
  <g id="logo" transform="translate(-516 -269)">
    <rect id="Rectangle_523" data-name="Rectangle 523" width="408" height="350" transform="translate(516 269)" fill="none"/>
    <g id="Group_504" data-name="Group 504" transform="translate(547.021 269)">
      <g id="Group_503" data-name="Group 503" clip-path="url(#clip-path)">
        <path id="Path_415" data-name="Path 415" d="M142.019,0c-64.67,0-117.1,53.363-117.1,119.188s52.427,119.188,117.1,119.188,117.1-53.363,117.1-119.188S206.689,0,142.019,0m81.144,201.781a113.336,113.336,0,0,1-162.288,0,118.285,118.285,0,0,1,0-165.187,113.336,113.336,0,0,1,162.288,0,118.285,118.285,0,0,1,0,165.187" transform="translate(30.724)" fill="#fff"/>
        <path id="Path_416" data-name="Path 416" d="M59.567,128.056a8.926,8.926,0,0,0,7.125-3.262,13.485,13.485,0,0,0,1.878,5.153,1.064,1.064,0,0,0,.121.125c.027.025.038.06.067.085a.331.331,0,0,0,.047.029,1.227,1.227,0,0,0,.2.121,1.14,1.14,0,0,0,.159.076c.016,0,.029.016.045.02,8.4,2.376,15.929.694,23.6-5.3a18.055,18.055,0,0,0,15.826,9.034c.167,0,.333,0,.5-.007h0l.031,0a1.076,1.076,0,0,0,.384-.083l.022,0a.386.386,0,0,0,.063-.042,1.015,1.015,0,0,0,.205-.112c4.533-3.5,6.292-10.595,4.618-18.073,3.932.572,8.938-.438,12.6-1.885l.02-.011a.494.494,0,0,0,.047-.027,1.149,1.149,0,0,0,.319-.226c.013-.013.031-.018.042-.031s.011-.022.02-.031a1.142,1.142,0,0,0,.212-.351.5.5,0,0,0,.022-.083,1.011,1.011,0,0,0,.051-.183c1.235-8.8,1.585-16.6-6.676-23.108a21.486,21.486,0,0,0-13.984-4.3c.92-3.122,2.032-9.6-2.374-14.7-8.061-9.313-19.343-8.806-26.837-5.734a11.977,11.977,0,0,0-2.28-2.05,35.871,35.871,0,0,0,8.746-4.7,1.21,1.21,0,0,0,.243-.181c4.647-3.369,8.632-7.627,9.787-11.137l0-.031a1.185,1.185,0,0,0,.029-.255,1.206,1.206,0,0,0,.016-.219.127.127,0,0,1,0-.029,1.146,1.146,0,0,0-.074-.219,1.235,1.235,0,0,0-.054-.183l-.02-.031-.018-.031c-1.525-2.84-6.093-5.631-11.088-7.27,5.249-12.218,16.217-19.66,22.009-19.66h.02c2.76.009,4.921,1.233,5.779,3.273a5.162,5.162,0,0,1-1.154,5.54,4.509,4.509,0,0,1-6.1.346c-1.1-.811-2.094-2.284-1.3-3.776A1.2,1.2,0,0,0,102,22.922a1.16,1.16,0,0,0-1.588.48c-1.228,2.307-.429,5.055,1.985,6.839a6.844,6.844,0,0,0,9.175-.636,7.543,7.543,0,0,0,1.608-8.116c-1.237-2.943-4.2-4.707-7.922-4.718h-.027c-3.7,0-9.347,2.57-14.569,7.426a9.539,9.539,0,0,0-2.367-7.5,7.087,7.087,0,0,0-8.027-1.592,6.68,6.68,0,0,0-3.338,7.71,4.623,4.623,0,0,0,2.863,2.767A5.1,5.1,0,0,0,84.2,25a1.2,1.2,0,0,0,.371-1.641,1.156,1.156,0,0,0-1.612-.377,2.76,2.76,0,0,1-2.423.346,2.272,2.272,0,0,1-1.418-1.346,4.27,4.27,0,0,1,2.088-4.691,4.763,4.763,0,0,1,5.4,1.063c1.315,1.389,2.916,4.879.627,9.092-.009.013-.741,1.186-1.387,2.13a40.69,40.69,0,0,0-4.883,8.579,25.78,25.78,0,0,0-5.727-.813,41.488,41.488,0,0,0,.489-8.55v-.016c-.279-4.76-1.643-8.469-4.129-11.209l-.252-.33a1.172,1.172,0,0,0-.786-.458,1.155,1.155,0,0,0-.873.255,108.2,108.2,0,0,0-39.807,84.29A109.9,109.9,0,0,0,36.835,139.8c.485,1.407.835,2.213.855,2.257.011.022.029.04.04.065a107.76,107.76,0,0,0,6.221,12.964,1.166,1.166,0,0,0,1.014.6,1.129,1.129,0,0,0,.583-.159,1.2,1.2,0,0,0,.431-1.626,105.532,105.532,0,0,1-6.942-14.907c-.143-.42-.3-.891-.462-1.416a12.994,12.994,0,0,1,1.186-10.139,8.26,8.26,0,0,1,5.234-4.24,7.345,7.345,0,0,1,6.513,1.634,6.307,6.307,0,0,1,1.88,5.27,4.22,4.22,0,0,1-2.574,3.852,4.967,4.967,0,0,1-4.868-.607,1.155,1.155,0,0,0-1.65.132,1.206,1.206,0,0,0,.13,1.679,7.216,7.216,0,0,0,7.275,1,6.586,6.586,0,0,0,4.021-5.848,9.547,9.547,0,0,0-.21-3.037,11.327,11.327,0,0,0,4.057.784m7.208-14.7-.007.036c-.065.348-.109.712-.163,1.07a5.816,5.816,0,0,0-1.13-.889,7.921,7.921,0,0,0-6.462-.882,5.174,5.174,0,0,0-3.2,2.921,1.2,1.2,0,0,0,.623,1.561,1.161,1.161,0,0,0,1.534-.634,2.847,2.847,0,0,1,1.782-1.585,5.675,5.675,0,0,1,4.539.674,3.891,3.891,0,0,1,1.762,2.61,6.494,6.494,0,0,1-.985,4.818c-1.824,2.633-5.712,3.385-9.242,1.786a10.549,10.549,0,0,1-2.671-1.7l-.058-.06c-.018-.018-.04-.031-.058-.049-3.249-2.974-3.99-7.891-2.128-14.426l.944-3.012a21.45,21.45,0,0,0,.308-13.306A20.609,20.609,0,0,0,34.99,76.97q.754-3.252,1.71-6.44A50.7,50.7,0,0,0,46.226,79.6a31.721,31.721,0,0,0,14,5.665,1.1,1.1,0,0,0,.362.063l.013,0a37.936,37.936,0,0,0,5.551.415c.685,0,1.36-.027,2.027-.063-4.58,2.548-8.605,6.241-9.941,9.628l0,.011-.007.013a1.215,1.215,0,0,0-.083.444v0c0,.027.013.047.016.074a1.176,1.176,0,0,0,.067.359l.011.025,0,.009c1.9,4.83,7.2,8.306,10.863,10.218a23.228,23.228,0,0,0-2.336,6.9M41.052,100.268a6.827,6.827,0,0,0-5.881-.835,6.948,6.948,0,0,0-2.952,1.719A108.2,108.2,0,0,1,34.481,79.3,18.32,18.32,0,0,1,49.915,92.948c1.842,6.5.4,13.294-3.5,16.507-2.909,2.4-5.89,3.376-8.619,2.829a6.961,6.961,0,0,1-4.6-3.07,5.886,5.886,0,0,1-.333-4.9,4.387,4.387,0,0,1,2.95-2.6,4.432,4.432,0,0,1,3.905.509,2.718,2.718,0,0,1,1.228,1.838,1.17,1.17,0,1,0,2.331-.2,5.063,5.063,0,0,0-2.231-3.6m57.561-7.134-1.036,1.219-36.271.208C64.178,90.3,71.5,85.7,77.048,84.979a1.176,1.176,0,0,0,.924-.71,1.211,1.211,0,0,0-.125-1.17c-2.115-2.976-3.063-8.987-2.253-12.948Zm-26.7,12.52a1.176,1.176,0,0,0-.63-.764c-2.887-1.393-7.7-4.151-10.046-7.944l34.312-.2L83.957,110.414,69.4,112.294a17.891,17.891,0,0,1,2.349-5.656,1.208,1.208,0,0,0,.163-.985M74.7,82.226a33.264,33.264,0,0,1-13.261.817l-5.591-15.2,17.5,9.724a20.978,20.978,0,0,0,1.355,4.66M68.617,117.57c.056-.967.161-1.9.295-2.811l12.756-1.648L69.76,127.151a24.679,24.679,0,0,1-1.143-9.581m25.62,5.191a1.176,1.176,0,0,0-.8-.643,1.212,1.212,0,0,0-.252-.027,1.153,1.153,0,0,0-.741.27c-6.85,5.709-13.5,7.706-20.779,6.192l23.425-27.618,12.29,30.764a15.6,15.6,0,0,1-13.14-8.938m18.964-9.675a1.16,1.16,0,0,0-1.19.279,1.2,1.2,0,0,0-.3,1.2c1.963,6.493,1.087,12.8-2.123,16.338L96.807,98.91l1.954-2.3a1.162,1.162,0,0,0,.594-.7l1.632-1.922c.027-.025.063-.033.087-.06a1.248,1.248,0,0,0,.114-.176l1.679-1.983,21.547,20.569c-4.167,1.315-8.579,1.648-11.213.755m6.486-21.319c6.632,5.22,6.989,11.1,6.089,18.6L104.4,89.959l1.612-1.9c1.67-.176,8.273-.545,13.676,3.709M103,72.464c4.548,5.256,1.844,12.732,1.407,13.835l-4.263,5.026-5.852-5.841L91.97,65.929A19.112,19.112,0,0,1,103,72.464m-13.428-6.85,2.045,17.2-14.625-14.6a25.189,25.189,0,0,1,12.58-2.6m-5.948-9.534L66.619,51.5,91.33,48.171a29.363,29.363,0,0,1-7.7,7.909M70.256,19.626a15.309,15.309,0,0,1,3.1,8.719L48.6,44.323a105.354,105.354,0,0,1,21.656-24.7m-24.4,29.291,27.58-17.8a46.577,46.577,0,0,1-.741,7.241,1.2,1.2,0,0,0,.281,1,1.152,1.152,0,0,0,.949.4,22.061,22.061,0,0,1,7.234.9l.016.009a1.215,1.215,0,0,0,.259.074c3.97,1.152,7.708,3.119,9.682,5.06L60.434,49.928h-.009l-16.3,2.195q.837-1.618,1.728-3.206M42.839,54.7l17.68-2.38,20.5,5.522a24.118,24.118,0,0,1-9.061,3.722,1.195,1.195,0,0,0-.172,2.331,8.829,8.829,0,0,1,3.892,2.309c-.433.232-.851.471-1.244.717a1.158,1.158,0,0,0-.159.136c-.02.018-.045.025-.065.045l-.016.025a1.226,1.226,0,0,0-.217.324l-.016.04-.007.016a16.514,16.514,0,0,0-.947,7.161L41.653,57.236q.576-1.276,1.186-2.534M52.71,66.1l6.064,16.49a28.805,28.805,0,0,1-11.167-4.912,45.624,45.624,0,0,1-10.037-9.923q1.393-4.233,3.124-8.333Zm-8.2,54.765a10.558,10.558,0,0,0-6.774,5.37,15.3,15.3,0,0,0-1.565,3.954A107.486,107.486,0,0,1,32.8,112.367a9.669,9.669,0,0,0,4.548,2.255,9.9,9.9,0,0,0,1.958.194c2.286,0,5.263-.768,8.588-3.508l.007-.007a16.68,16.68,0,0,0,.793,9.561,10.194,10.194,0,0,0-4.175,0" transform="translate(36.834 17.866)" fill="#fff"/>
        <path id="Path_417" data-name="Path 417" d="M99.933,67.575a14.252,14.252,0,0,0-7.813-.025A11.228,11.228,0,0,0,86,72.611a11.242,11.242,0,0,0-6.12-5.06,14.247,14.247,0,0,0-7.813.025,1.2,1.2,0,0,0-.766,1.492,1.169,1.169,0,0,0,1.465.784,12.05,12.05,0,0,1,6.419-.025c4.144,1.313,5.689,5.8,5.7,5.843s.031.054.045.085a.929.929,0,0,0,.069.132,1.1,1.1,0,0,0,.172.23,1.15,1.15,0,0,0,.092.089,1.186,1.186,0,0,0,.339.2l.02.011,0,0a1.153,1.153,0,0,0,.371.063,1.142,1.142,0,0,0,.351-.058h0l.016,0c.027-.009.042-.029.069-.04a1.185,1.185,0,0,0,.281-.163,1.323,1.323,0,0,0,.112-.112,1.058,1.058,0,0,0,.159-.21,1.208,1.208,0,0,0,.074-.141.579.579,0,0,0,.042-.083c.016-.045,1.561-4.533,5.7-5.846a12.03,12.03,0,0,1,6.419.025,1.166,1.166,0,0,0,1.465-.782,1.194,1.194,0,0,0-.766-1.494" transform="translate(87.841 82.609)" fill="#fff"/>
        <path id="Path_418" data-name="Path 418" d="M103.44,71.157a10.309,10.309,0,0,0-5.645-.018,7.983,7.983,0,0,0-4.146,3.206A8,8,0,0,0,89.5,71.139a10.314,10.314,0,0,0-5.645.018,1.193,1.193,0,0,0-.764,1.489,1.169,1.169,0,0,0,1.463.786,8.026,8.026,0,0,1,4.251-.018,6.553,6.553,0,0,1,3.731,3.829c.011.033.033.058.047.089a.95.95,0,0,0,.065.125,1.046,1.046,0,0,0,.179.237.72.72,0,0,0,.083.083,1.132,1.132,0,0,0,.359.212l0,0h0a1.115,1.115,0,0,0,.375.067A1.133,1.133,0,0,0,94.019,78c.027-.009.045-.031.071-.042a1.18,1.18,0,0,0,.277-.161,1.393,1.393,0,0,0,.116-.114,1.175,1.175,0,0,0,.154-.205,1.116,1.116,0,0,0,.076-.145c.011-.027.031-.049.042-.08a6.559,6.559,0,0,1,3.733-3.834,8.031,8.031,0,0,1,4.251.018,1.17,1.17,0,0,0,1.465-.782,1.2,1.2,0,0,0-.766-1.494" transform="translate(102.374 87.22)" fill="#fff"/>
        <path id="Path_419" data-name="Path 419" d="M114.821,83.981a59.182,59.182,0,0,1,30.253,19.037,1.158,1.158,0,0,0,1.641.226,1.205,1.205,0,0,0,.223-1.668,60.431,60.431,0,0,0-31.537-19.9c-15.007-3.912-45.537-.784-46.83-.648a1.186,1.186,0,0,0-1.052,1.208c.007.252.17,6.187,4.448,10.09,4.321,3.941,7.476,3.084,7.824,2.972a1.19,1.19,0,0,0-.679-2.28c-.092.025-2.264.56-5.582-2.467a12.416,12.416,0,0,1-3.557-7.266c5.805-.536,31.856-2.686,44.847.7" transform="translate(83.242 98.273)" fill="#fff"/>
        <path id="Path_420" data-name="Path 420" d="M198.053,98.681A103.122,103.122,0,0,1,121.3,133.259,102.035,102.035,0,0,1,91.8,128.928L76.371,81.83a8.529,8.529,0,0,1,3.9-.065c4.292.766,6.5,5.16,6.538,5.243l14.717,27.551a1.179,1.179,0,0,0,.788.6,1.161,1.161,0,0,0,.958-.223c.107-.085,10.874-8.456,25.28-9.617,16.025-1.288,29.3,6.5,29.425,6.58a1.159,1.159,0,0,0,1.6-.424,1.2,1.2,0,0,0-.418-1.63c-.565-.339-14.016-8.255-30.8-6.9a53.85,53.85,0,0,0-25.419,9.293L88.884,85.912c-.109-.223-2.735-5.517-8.212-6.493-4.3-.766-6.252.663-6.462.828a1.207,1.207,0,0,0-.393,1.32L89.295,128.8c-2.74.038-8.806-.578-12.147-6.346C75.554,119.7,65.162,89.5,60.828,76.728a14.349,14.349,0,0,1,3.544-.1,5.7,5.7,0,0,1,4,2.115,1.156,1.156,0,0,0,1.63.261,1.206,1.206,0,0,0,.261-1.666,8.08,8.08,0,0,0-5.732-3.086c-4.338-.295-5.674.527-6.08,1.045a1.2,1.2,0,0,0-.194,1.134c.572,1.688,13.35,39.39,16.458,46.37a23.593,23.593,0,0,1-3.387-1.208,13.782,13.782,0,0,1-4.522-3.483,1.246,1.246,0,0,0-.116-.127,5.912,5.912,0,0,1-.659-.815.563.563,0,0,0-.054-.074c-2.936-4.229-10.557-19.98-15.621-30.961a7.871,7.871,0,0,1,1.576-.473,8.212,8.212,0,0,1,3.4-.02,1.169,1.169,0,0,0,1.436-.833,1.2,1.2,0,0,0-.817-1.465,10.309,10.309,0,0,0-4.475-.018c-2.53.516-3.352,1.4-3.544,1.663a1.209,1.209,0,0,0-.123,1.219c1.074,2.345,8.514,18.475,13.5,27.58A104.793,104.793,0,0,1,43.774,97.806a1.158,1.158,0,0,0-1.652-.1,1.208,1.208,0,0,0-.1,1.684A107.038,107.038,0,0,0,64.249,118.7a7.908,7.908,0,0,0,.782.971,15.979,15.979,0,0,0,5.339,4.1,28.343,28.343,0,0,0,6.156,1.9c3.9,4.8,9.478,5.522,12.47,5.522a16.294,16.294,0,0,0,1.8-.094,104.425,104.425,0,0,0,30.5,4.537,105.449,105.449,0,0,0,78.487-35.359,1.2,1.2,0,0,0-.08-1.681,1.154,1.154,0,0,0-1.652.08" transform="translate(51.444 91.471)" fill="#fff"/>
        <path id="Path_421" data-name="Path 421" d="M202.91,123.041a15.7,15.7,0,0,0-8.4-15.751,17.44,17.44,0,0,0-1.445-28.616,15.563,15.563,0,0,0,2.3-6.569,15.284,15.284,0,0,0-13.265-16.952,14.711,14.711,0,0,0-5.508.413,17.359,17.359,0,0,0,.781-3.559,17.133,17.133,0,0,0-3.537-12.531,16.554,16.554,0,0,0-16.351-6.1c0-.04.013-.078.016-.116a17.213,17.213,0,0,0-3.552-12.589,16.644,16.644,0,0,0-10.314-6.205,104.627,104.627,0,0,0-84.121-1.174,1.2,1.2,0,0,0-.632,1.559,1.166,1.166,0,0,0,1.532.643,101.375,101.375,0,0,1,18.6-5.852L90.9,27.051a17.179,17.179,0,0,0-9.476,24.7,16.8,16.8,0,0,0-3.354,2.117,16.992,16.992,0,0,0-6.2,11.405,17.172,17.172,0,0,0,6.408,15.4,15.6,15.6,0,0,0,12.823,20.1,14.708,14.708,0,0,0,1.713.1,15.08,15.08,0,0,0,8.2-2.434,16.434,16.434,0,0,0,6.364,2.572A17.784,17.784,0,0,0,122.9,119.889a17.059,17.059,0,0,0,8.55-1.2,16.04,16.04,0,0,0,14.049,16.085,15.409,15.409,0,0,0,1.809.1c.25,0,.5-.011.75-.025a17.825,17.825,0,0,0-.75,3.5,17.471,17.471,0,0,0,15.166,19.381,17.227,17.227,0,0,0,1.972.114,16.745,16.745,0,0,0,2.173-.141,13.123,13.123,0,0,0-1.052,3.87,12.95,12.95,0,0,0,2.673,9.465,12.533,12.533,0,0,0,9.9,4.852,12.743,12.743,0,0,0,12.553-11.419,12.95,12.95,0,0,0-1.55-7.757A13.3,13.3,0,0,0,199,145.14a13.741,13.741,0,0,0-3.253-10.586,15.415,15.415,0,0,0,1.471-1.043,15.6,15.6,0,0,0,5.694-10.47m-4.026-28.083a14.73,14.73,0,0,1-16.018,13.348,14.348,14.348,0,0,1-8.722-4.113h0q.154-.75.241-1.525a17.017,17.017,0,0,0-4.676-13.737,17.191,17.191,0,0,0,5.781-7.333,14.352,14.352,0,0,1,10.28-2.945,14.852,14.852,0,0,1,13.116,16.3M145.651,71.123a14.65,14.65,0,0,1,15.838-11.088,14.5,14.5,0,0,1,9.813,5.529,15.085,15.085,0,0,1-3.405,21.75,16.286,16.286,0,0,0-16.362-2.106,18.134,18.134,0,0,0-5.884-14.085m9.461-14.248c-.054.48-.138.958-.239,1.431a17.117,17.117,0,0,0-11.211,11.242,17.356,17.356,0,0,0-10.24-3.01c.02-.138.042-.275.058-.413a17.763,17.763,0,0,0-5.689-15.17,14.035,14.035,0,0,1,14.958-9.88,13.774,13.774,0,0,1,4.767,1.451,14.363,14.363,0,0,1,7.6,14.348M128.656,41.134a15.953,15.953,0,0,1-3.231,8.007,17.14,17.14,0,0,0-21.761,2.822,15.986,15.986,0,0,1-6.029-14.411,15.684,15.684,0,0,1,17.269-14,15.434,15.434,0,0,1,10.452,5.89,15.974,15.974,0,0,1,3.3,11.689m-10.731,7.817a14.853,14.853,0,0,1,10.055,5.665,15.382,15.382,0,0,1,3.173,11.245c-.034.3-.076.605-.127.907a17.834,17.834,0,0,0-14.1,12.636,14.686,14.686,0,0,1-2.385-.078,14.853,14.853,0,0,1-10.055-5.665,15.386,15.386,0,0,1-3.175-11.245,15.086,15.086,0,0,1,16.612-13.464m.706,33.817A15.411,15.411,0,0,1,135.6,69.013a15.569,15.569,0,0,1,13.513,17.273,1.266,1.266,0,0,0,0,.205,16.857,16.857,0,0,0-7.545,11.53,14.983,14.983,0,0,1-9.423,2.019,15.17,15.17,0,0,1-10.271-5.788,15.7,15.7,0,0,1-3.242-11.486m25.146,16.369a14.344,14.344,0,0,1,14.13-12.852,14.123,14.123,0,0,1,1.614.094,14.482,14.482,0,1,1-15.744,12.759m12.274,18.392a16.454,16.454,0,0,0,17.365-10.8,16.622,16.622,0,0,0,5.406,3.108A13.688,13.688,0,0,1,175.91,127.3a16.952,16.952,0,0,0-19.29-2.583,13.554,13.554,0,0,1-2.472-7.529,16.6,16.6,0,0,0,1.9.339m25.792-60.008a12.908,12.908,0,0,1,11.2,14.317,13.134,13.134,0,0,1-2.072,5.743,16.73,16.73,0,0,0-14.451.543c.08-.435.154-.873.2-1.32a17.408,17.408,0,0,0-5.79-15.052,12.653,12.653,0,0,1,10.907-4.231M162.373,35.529a14.248,14.248,0,0,1,9.639,5.433,14.862,14.862,0,0,1,1.567,15.773,15.163,15.163,0,0,0-4.522,3.584,16.8,16.8,0,0,0-11.707-2.577c.029-.2.065-.4.087-.6a16.777,16.777,0,0,0-7.922-16.206,14.189,14.189,0,0,1,12.857-5.408M142.433,16.7c.2.025.4.054.594.085a1.126,1.126,0,0,0,.351.063l0,0a14.335,14.335,0,0,1,8.742,5.316A14.829,14.829,0,0,1,155.183,33c-.04.364-.1.723-.161,1.078a16.664,16.664,0,0,0-7.648,5.772,16.106,16.106,0,0,0-16.53,2.487c.051-.31.1-.621.138-.933a18.38,18.38,0,0,0-3.794-13.442c-.118-.15-.241-.295-.364-.442A14.51,14.51,0,0,1,142.433,16.7M81.525,9.146a102.477,102.477,0,0,1,18.727-1.719A101.325,101.325,0,0,1,137.7,14.52a16.95,16.95,0,0,0-12.736,11.068,17.717,17.717,0,0,0-25.012,1.378,1.153,1.153,0,0,0-.627-.364,16.521,16.521,0,0,0-5.975-.138ZM95.952,28.639a14.3,14.3,0,0,1,2.492.223A18.5,18.5,0,0,0,102.166,53.8a17.406,17.406,0,0,0-1.23,2A16.544,16.544,0,0,0,83.649,50.88a14.763,14.763,0,0,1-2.09-7.589A14.542,14.542,0,0,1,95.952,28.639M74.19,65.539A14.473,14.473,0,0,1,90.115,52.631a14.248,14.248,0,0,1,9.639,5.433,1.126,1.126,0,0,0,.134.138,17.991,17.991,0,0,0,.21,12.464,17.067,17.067,0,0,0-6.265,10.128,14.155,14.155,0,0,1-6.96.956A14.614,14.614,0,0,1,74.19,65.539m17.171,32.87A13.106,13.106,0,0,1,79.987,83.873a13.815,13.815,0,0,1,.333-1.82,16.439,16.439,0,0,0,6.29,2.063,16.173,16.173,0,0,0,1.887.109,16.508,16.508,0,0,0,5.011-.782A17.17,17.17,0,0,0,99.02,96.87a12.737,12.737,0,0,1-7.659,1.538m4.555-15.831a14.722,14.722,0,0,1,5.225-9.713,17.851,17.851,0,0,0,1.516,2.278,17.208,17.208,0,0,0,13.6,6.663c.047,0,.1-.007.145-.007-.036.232-.069.467-.1.7a18.4,18.4,0,0,0,0,4.088,17.81,17.81,0,0,0-8.623,12.06,14.635,14.635,0,0,1-11.767-16.07m27.243,34.944a15.54,15.54,0,0,1-6.4-28.442,18.041,18.041,0,0,0,3.28,6.658,17.489,17.489,0,0,0,11.839,6.672,17.9,17.9,0,0,0,2.036.116,17.135,17.135,0,0,0,6.131-1.134,16.208,16.208,0,0,1-.08,2.505,15.278,15.278,0,0,1-16.809,13.625m22.6,14.889a13.342,13.342,0,0,1-9.034-5.091,13.813,13.813,0,0,1-2.876-9.847,17.823,17.823,0,0,0,8.212-11.814,16.831,16.831,0,0,0,9.751,10.787,15.965,15.965,0,0,0,2.8,9.5,17.519,17.519,0,0,0-5.535,6.433,13.259,13.259,0,0,1-3.314.034m16.974,22.963a15.218,15.218,0,0,1-7.589-26.881,14.593,14.593,0,0,1,9.233-3.3,15.158,15.158,0,0,1,1.706.1,14.7,14.7,0,0,1,9.956,5.611,15.321,15.321,0,0,1-2.367,21.27,14.584,14.584,0,0,1-10.939,3.2m25.629,8.842a10.306,10.306,0,1,1-20.473-2.362,10.625,10.625,0,0,1,1.757-4.778c.013-.018.02-.038.031-.056a17.151,17.151,0,0,0,5.453-2.981,17.752,17.752,0,0,0,1.67-1.55,12.358,12.358,0,0,0,8.132,4.5,12.107,12.107,0,0,0,1.384.08c.087,0,.174,0,.264-.007a10.548,10.548,0,0,1,1.782,7.156m8.264-19.348c-.668,6-5.79,10.352-11.423,9.7a10.012,10.012,0,0,1-6.835-3.983,17.834,17.834,0,0,0,2.541-15.257,15.171,15.171,0,0,0,5.011,1.487,15.523,15.523,0,0,0,1.76.1,14.975,14.975,0,0,0,5.857-1.2,11.232,11.232,0,0,1,3.09,9.15m-.866-13.221a12.844,12.844,0,0,1-16.581-.306,18.32,18.32,0,0,0-1.306-1.923c-.107-.136-.219-.266-.328-.4a16.1,16.1,0,0,0,4.28-18.446c.27.04.538.076.811.1a16.571,16.571,0,0,0,9.461-1.844,13.356,13.356,0,0,1,3.664,22.813" transform="translate(72.49 6.219)" fill="#fff"/>
        <g id="Group_507" data-name="Group 507">
          <path id="Path_422" data-name="Path 422" d="M34.924,153.85V163H32.4v-9.15H28.906v-2.329h9.51v2.329Z" transform="translate(35.637 186.804)" fill="#fff"/>
          <path id="Path_423" data-name="Path 423" d="M46.1,159.673a5.873,5.873,0,0,1-3.206,3.164,6.65,6.65,0,0,1-4.894,0,6.124,6.124,0,0,1-1.927-1.262,5.663,5.663,0,0,1-1.262-1.869,5.882,5.882,0,0,1-.451-2.3v-.033a5.808,5.808,0,0,1,.458-2.3,5.873,5.873,0,0,1,3.206-3.164,6.65,6.65,0,0,1,4.894,0,6.123,6.123,0,0,1,1.927,1.262,5.663,5.663,0,0,1,1.262,1.869,5.882,5.882,0,0,1,.451,2.3v.033a5.807,5.807,0,0,1-.458,2.3m-2.181-2.3a3.82,3.82,0,0,0-.255-1.393,3.439,3.439,0,0,0-1.829-1.927,3.354,3.354,0,0,0-1.393-.288,3.448,3.448,0,0,0-1.4.279,3.221,3.221,0,0,0-1.081.773,3.583,3.583,0,0,0-.706,1.139,3.747,3.747,0,0,0-.255,1.384v.033a3.82,3.82,0,0,0,.255,1.393,3.451,3.451,0,0,0,.721,1.148,3.5,3.5,0,0,0,1.1.779,3.337,3.337,0,0,0,1.4.288,3.459,3.459,0,0,0,1.393-.279,3.162,3.162,0,0,0,1.09-.773,3.582,3.582,0,0,0,.706-1.139,3.747,3.747,0,0,0,.255-1.384Z" transform="translate(42.355 186.696)" fill="#fff"/>
          <path id="Path_424" data-name="Path 424" d="M50.36,163v-7.493l-3.231,4.9h-.065l-3.2-4.854V163H41.375V151.522H44.1l3.017,4.852,3.017-4.852h2.722V163Z" transform="translate(51.01 186.805)" fill="#fff"/>
          <rect id="Rectangle_426" data-name="Rectangle 426" width="2.525" height="11.477" transform="translate(107.961 338.327)" fill="#fff"/>
          <path id="Path_425" data-name="Path 425" d="M62.123,163l-5.558-7.3V163H54.071V151.522H56.4l5.379,7.067v-7.067h2.492V163Z" transform="translate(66.662 186.805)" fill="#fff"/>
          <path id="Path_426" data-name="Path 426" d="M71.935,159.673a5.873,5.873,0,0,1-3.206,3.164,6.644,6.644,0,0,1-4.892,0,6.124,6.124,0,0,1-1.927-1.262,5.668,5.668,0,0,1-1.264-1.869,5.923,5.923,0,0,1-.451-2.3v-.033a5.772,5.772,0,0,1,.462-2.3,5.883,5.883,0,0,1,3.2-3.164,6.31,6.31,0,0,1,2.452-.467,6.226,6.226,0,0,1,2.443.467,6.1,6.1,0,0,1,1.927,1.262,5.663,5.663,0,0,1,1.262,1.869,5.883,5.883,0,0,1,.453,2.3v.033a5.809,5.809,0,0,1-.46,2.3m-2.179-2.3a3.821,3.821,0,0,0-.257-1.393,3.45,3.45,0,0,0-.721-1.148,3.415,3.415,0,0,0-1.107-.779,3.336,3.336,0,0,0-1.391-.288,3.433,3.433,0,0,0-1.4.279,3.23,3.23,0,0,0-1.083.773,3.617,3.617,0,0,0-.7,1.139,3.748,3.748,0,0,0-.257,1.384v.033a3.821,3.821,0,0,0,.257,1.393,3.482,3.482,0,0,0,.719,1.148,3.526,3.526,0,0,0,1.1.779,3.337,3.337,0,0,0,1.4.288A3.443,3.443,0,0,0,67.7,160.7a3.171,3.171,0,0,0,1.092-.773,3.616,3.616,0,0,0,.7-1.139,3.748,3.748,0,0,0,.257-1.384Z" transform="translate(74.212 186.696)" fill="#fff"/>
          <path id="Path_427" data-name="Path 427" d="M81.482,159.673a5.873,5.873,0,0,1-3.206,3.164,6.65,6.65,0,0,1-4.894,0,6.124,6.124,0,0,1-1.927-1.262,5.662,5.662,0,0,1-1.262-1.869,5.882,5.882,0,0,1-.451-2.3v-.033a5.77,5.77,0,0,1,.46-2.3,5.878,5.878,0,0,1,3.2-3.164,6.3,6.3,0,0,1,2.452-.467,6.234,6.234,0,0,1,2.443.467,6.1,6.1,0,0,1,1.927,1.262,5.663,5.663,0,0,1,1.262,1.869,5.882,5.882,0,0,1,.451,2.3v.033a5.807,5.807,0,0,1-.458,2.3m-2.181-2.3a3.819,3.819,0,0,0-.255-1.393,3.439,3.439,0,0,0-1.829-1.927,3.351,3.351,0,0,0-1.391-.288,3.433,3.433,0,0,0-1.4.279,3.208,3.208,0,0,0-1.083.773,3.583,3.583,0,0,0-.706,1.139,3.747,3.747,0,0,0-.255,1.384v.033a3.82,3.82,0,0,0,.255,1.393,3.487,3.487,0,0,0,.721,1.148,3.526,3.526,0,0,0,1.1.779,3.337,3.337,0,0,0,1.4.288,3.459,3.459,0,0,0,1.393-.279,3.162,3.162,0,0,0,1.09-.773,3.582,3.582,0,0,0,.706-1.139A3.747,3.747,0,0,0,79.3,157.4Z" transform="translate(85.982 186.696)" fill="#fff"/>
          <path id="Path_428" data-name="Path 428" d="M84.173,163l-3.557-4.885-1.329,1.375V163H76.762V151.522h2.525v5.017l4.656-5.017h3.05l-4.673,4.87L87.205,163Z" transform="translate(94.637 186.805)" fill="#fff"/>
          <path id="Path_429" data-name="Path 429" d="M91.758,163.044l-1.049-2.574H85.855l-1.049,2.574H82.233l4.917-11.56h2.329l4.919,11.56Zm-3.477-8.527-1.525,3.722h3.05Z" transform="translate(101.381 186.759)" fill="#fff"/>
          <path id="Path_430" data-name="Path 430" d="M104.876,163.1h-2.2l-2.59-7.509L97.5,163.1H95.3L91.383,151.54h2.7l2.378,7.773,2.574-7.806H101.2l2.574,7.806,2.378-7.773h2.639Z" transform="translate(112.662 186.786)" fill="#fff"/>
          <rect id="Rectangle_427" data-name="Rectangle 427" width="2.525" height="11.477" transform="translate(224.67 338.327)" fill="#fff"/>
          <path id="Path_431" data-name="Path 431" d="M111.638,163l-5.558-7.3V163h-2.494V151.522h2.329l5.379,7.067v-7.067h2.492V163Z" transform="translate(127.707 186.805)" fill="#fff"/>
          <path id="Path_432" data-name="Path 432" d="M109.939,163V151.522h8.641v2.246H112.43V156.1h5.41v2.244h-5.41v2.411h6.232V163Z" transform="translate(135.538 186.805)" fill="#fff"/>
          <path id="Path_433" data-name="Path 433" d="M122.378,163l-2.461-3.671h-1.983V163h-2.525V151.522h5.247a4.68,4.68,0,0,1,3.189,1,3.518,3.518,0,0,1,1.141,2.787v.034a3.6,3.6,0,0,1-.681,2.271,3.953,3.953,0,0,1-1.78,1.288l2.8,4.1Zm.049-7.558a1.465,1.465,0,0,0-.525-1.23,2.325,2.325,0,0,0-1.458-.409h-2.51v3.3h2.557a2.086,2.086,0,0,0,1.436-.444,1.5,1.5,0,0,0,.5-1.179Z" transform="translate(142.283 186.805)" fill="#fff"/>
          <path id="Path_434" data-name="Path 434" d="M127.676,158.424V163H125.15v-4.526l-4.41-6.951h2.952l2.737,4.606,2.787-4.606h2.869Z" transform="translate(148.856 186.805)" fill="#fff"/>
        </g>
        <path id="Path_435" data-name="Path 435" d="M55.619,138.771c-.138,0-.48.121-.652.049-.263-.065-1.043-.125-1.007-.554a1.04,1.04,0,0,1,.4-.63,1.573,1.573,0,0,1,.6-.362c.029-.009.156-.04.183-.049l.1-.116h0a1.328,1.328,0,0,0,.625-.241,1.971,1.971,0,0,1,.587-.279,2.506,2.506,0,0,0,.5-.219c.051-.029.107-.06.17-.094a5.153,5.153,0,0,0,.857-.547l.016-.011c.324-.208.536-.319.708-.411.074-.04.143-.076.21-.114a6.47,6.47,0,0,0,.913-.723,4.69,4.69,0,0,1,.744-.7l.143-.118c.114-.125.2-.234.281-.342a3.323,3.323,0,0,1,.529-.567l.75-.978a4.245,4.245,0,0,0,.5-.806q.047-.09.094-.174c.022-.049.056-.13.094-.226a4.252,4.252,0,0,1,.429-.855,4.3,4.3,0,0,0,.279-.806c.02-.076.042-.154.067-.237a2.458,2.458,0,0,1,.134-.377,1.445,1.445,0,0,0,.154-.663,1.951,1.951,0,0,1,.071-.464,2.863,2.863,0,0,0,.092-.677,3.52,3.52,0,0,1,.1-.688,2.457,2.457,0,0,0,.067-.42,2.719,2.719,0,0,0-.435-1.4c-.342-.511-.536-.659-.871-.659a12.178,12.178,0,0,0-1.273.08l-.147.016c-.132.018-.252.045-.368.069a2.06,2.06,0,0,1-1.009.027,1.88,1.88,0,0,0-1.217.25c-.418.21-.451.464-.451.538v.013a4.639,4.639,0,0,0-.013,1.065l.013.183a2.2,2.2,0,0,1-.013.413,2.23,2.23,0,0,0,.011.708,1.53,1.53,0,0,1-.011.491,1.932,1.932,0,0,0,.009.741,3.122,3.122,0,0,1,0,1.27l-.033.243c0,.06-.065.279-.069.328-.011.261-.051.375-.351.614a.832.832,0,0,1-.351.228c-.054.022-.212.116-.263.141a.567.567,0,0,1-.527.018c-.29-.1-.4-.418-.509-.685a2.308,2.308,0,0,1-.3-1.087c0-.165-.049-.589-.031-.726a2.116,2.116,0,0,0,0-.744,2.982,2.982,0,0,1,0-.773c.013-.154.027-.315.027-.456a1.821,1.821,0,0,0-.121-.77,2.8,2.8,0,0,1-.1-.333.769.769,0,0,0-.183-.4,2.048,2.048,0,0,1-.458-.482c-.114-.159-.161-.223-.382-.239a2.064,2.064,0,0,0-.585.085,3.407,3.407,0,0,1-.741.112,4.408,4.408,0,0,0-1.041.2l-.192.051a5.75,5.75,0,0,1-.712.228,2.97,2.97,0,0,0-.324.1,2.52,2.52,0,0,1-1.512.069,2.21,2.21,0,0,1-.759-.543c-.1-.1-.217-.2-.33-.3l-.013-.013a2.8,2.8,0,0,0-.511-.409,2.3,2.3,0,0,1-.529-.435c-.478-.648-.545-.911-.23-1.266.429-.467.529-.389,1.311.033a5.117,5.117,0,0,0,.811.373.763.763,0,0,1,.266.138c.1.078.159.116.3.058a1.353,1.353,0,0,1,.563-.034,2.614,2.614,0,0,0,.574-.007,2.761,2.761,0,0,1,.469-.025,2.383,2.383,0,0,0,.659-.069,3.9,3.9,0,0,1,1.139-.1,3.879,3.879,0,0,0,1.11-.127,3.54,3.54,0,0,1,.927-.1c.46-.116.581-.668.605-.837a5.264,5.264,0,0,0,.038-1.7,1.181,1.181,0,0,1-.025-.509,1.543,1.543,0,0,0-.011-.538,1.007,1.007,0,0,1-.02-.418.47.47,0,0,0-.056-.353c-.031-.036-.058-.069-.085-.1a.665.665,0,0,0-.458-.308,2.16,2.16,0,0,0-.5-.038c-.576.007-.793-.011-.84-.335-.04-.3.089-.487.871-1.014a1.076,1.076,0,0,1,.344-.1,3.533,3.533,0,0,1,1.063-.2,3.06,3.06,0,0,1,.933.234c.125.045.255.092.375.13a1.2,1.2,0,0,1,.936,1.034,3.074,3.074,0,0,1-.056.552.682.682,0,0,0-.018.281,3.425,3.425,0,0,1-.058,1.5,2.508,2.508,0,0,0-.029,1.116c.011.087.025.17.031.248s.009.161.011.237a.767.767,0,0,0,.141.525,1.771,1.771,0,0,0,.893.261,3.858,3.858,0,0,0,.775-.054,3.869,3.869,0,0,1,.431-.045,1.221,1.221,0,0,1,.328.016.429.429,0,0,0,.3-.033l.018-.009a3.062,3.062,0,0,1,1.085-.107c.069,0,.132,0,.19,0a3.731,3.731,0,0,0,1.025-.121,1.349,1.349,0,0,0,.451-.458c.038-.049.074-.1.114-.15a.915.915,0,0,0,.1-.455,2.816,2.816,0,0,1,.036-.335,2.205,2.205,0,0,0-.016-.418,1.813,1.813,0,0,1,.02-.674,3.943,3.943,0,0,0,.029-1.065c0-.134-.007-.263-.013-.415-.009-.2-.02-.422-.02-.7,0-.112-.013-.522-.027-.69-.018-.21-.038-.451-.038-.672,0-.552-.078-.913-.46-1.016a2.235,2.235,0,0,0-.507-.069c-.42.018-.944-.013-1.032-.333a.545.545,0,0,1,.087-.464.878.878,0,0,1,.639-.406c.071-.018.248-.125.315-.143a1.1,1.1,0,0,1,.487-.089,1,1,0,0,0,.422-.074.775.775,0,0,1,.688.06.544.544,0,0,0,.172.063,1.585,1.585,0,0,1,.728.172c.092.038.194.083.324.13l.016,0a3.157,3.157,0,0,0,.295.125,1.207,1.207,0,0,1,.636.411,1.009,1.009,0,0,0,.15.185.589.589,0,0,1,.221.605,1.3,1.3,0,0,1-.212.424,1.464,1.464,0,0,0-.21.42c-.04.116-.076.21-.109.293a.692.692,0,0,0-.085.456A3.683,3.683,0,0,1,67,117.4a1.547,1.547,0,0,0-.045.313,7.642,7.642,0,0,0,0,1.2,1.538,1.538,0,0,1-.029.424,4.228,4.228,0,0,0-.067.788.865.865,0,0,0,.346.719,1.085,1.085,0,0,0,.862.266l.02,0c.074-.007.147-.016.221-.025a3.084,3.084,0,0,1,.886-.007,2.82,2.82,0,0,0,.685.011c.112-.007.226-.013.335-.013a1.429,1.429,0,0,0,.672-.156c.092-.038.2-.083.328-.13a2.389,2.389,0,0,1,1.885,0,1.792,1.792,0,0,0,.478.136,1.528,1.528,0,0,1,.65.234c.123.085.212.156.292.219a2.323,2.323,0,0,0,.444.295,1.314,1.314,0,0,1,.456,1.074.533.533,0,0,1-.127.489c-.185.205-.567.143-.842.143-.112,0-.248-.009-.393-.018a5.581,5.581,0,0,0-.77-.016,3.022,3.022,0,0,1-.773-.049c-.112-.018-.226-.038-.355-.049-.239-.031-.4-.038-.556-.047a4.166,4.166,0,0,1-.529-.051,2.7,2.7,0,0,0-.8-.038c-.058,0-.107.007-.145.007a4.905,4.905,0,0,1-1.862-.036,2.125,2.125,0,0,0-.84.192.741.741,0,0,0-.567.728,6.24,6.24,0,0,1-.1,1.4,5.381,5.381,0,0,0-.125,1.2,2.227,2.227,0,0,1-.116.9,2.152,2.152,0,0,0-.08.357c-.007.051-.011.114-.018.185a2.326,2.326,0,0,1-.266,1.078,3.339,3.339,0,0,0-.33.96c-.013.058-.027.116-.042.172a2.492,2.492,0,0,1-.42.991l-.116.183c-.056.1-.118.2-.181.31-.152.263-.31.538-.473.77a2.054,2.054,0,0,0-.123.176,1.814,1.814,0,0,1-.355.435c-.031.031-.069.065-.107.1a1.09,1.09,0,0,0-.315.409,1.184,1.184,0,0,1-.545.581l-.016.007a.58.58,0,0,0-.284.239,2.392,2.392,0,0,1-.192.221,2.678,2.678,0,0,0-.2.194,1.755,1.755,0,0,1-.337.277l-.136.094c-.217.15-.335.232-.375.313a.773.773,0,0,1-.529.451.7.7,0,0,0-.083.031c-.317.159-.424.212-.536.38a1.707,1.707,0,0,1-.911.594,2.58,2.58,0,0,0-.368.161,2.493,2.493,0,0,0-.384.308,1.237,1.237,0,0,1-.67.393,1.926,1.926,0,0,0-.648.259c-.074.04-.145.078-.221.116l-.071.058a.834.834,0,0,1-.444.208,3.27,3.27,0,0,0-.433.141,1.689,1.689,0,0,1-.685.116" transform="translate(58.266 138.97)" fill="#fff"/>
        <path id="Path_436" data-name="Path 436" d="M67.2,134.756a.665.665,0,0,1-.36-.121,1.4,1.4,0,0,0-.266-.132,1.489,1.489,0,0,1-.819-.616,2.214,2.214,0,0,0-.589-.565l-.058-.04a1.082,1.082,0,0,1-.281-.337c-.065-.107-.1-.17-.181-.2-.13-.063-.25-.243-.438-.529a2.633,2.633,0,0,0-.4-.527c-.279-.632-.4-.848-.114-1.349.165-.33.366-.223.538-.192.042.007.277.074.3.074h.016a1.455,1.455,0,0,1,.665.326l.076.056a4.122,4.122,0,0,1,.469.288.428.428,0,0,0,.205.109.769.769,0,0,1,.426.125,1.476,1.476,0,0,0,.221.136H66.8c.185.094.208.013.36-.069.094-.051.234-.085.355-.143s.2-.114.279-.165a2.734,2.734,0,0,1,.616-.3,2.337,2.337,0,0,0,.6-.357c.08-.06.163-.123.25-.181l.873-.549a2.736,2.736,0,0,1,.534-.364,1.006,1.006,0,0,0,.293-.2,2.391,2.391,0,0,1,.891-.636l.1-.047a3.761,3.761,0,0,0,.44-.317c.118-.094.252-.2.491-.359.071-.047.185-.13.313-.219.221-.154.469-.33.634-.433l.071-.047a4.841,4.841,0,0,0,.817-.652c.051-.045.1-.089.154-.138a3.56,3.56,0,0,1,.824-.6,2.1,2.1,0,0,0,.6-.458c.074-.071.154-.152.25-.239a2.753,2.753,0,0,1,.442-.317,1.416,1.416,0,0,0,.453-.38,3.193,3.193,0,0,1,.795-.723,2.033,2.033,0,0,0,.393-.319,3.872,3.872,0,0,1,.607-.489,3.04,3.04,0,0,0,.811-.748,1.725,1.725,0,0,1,.491-.464,1.338,1.338,0,0,0,.355-.317,2.245,2.245,0,0,1,.317-.319,1.555,1.555,0,0,0,.449-.529,1.237,1.237,0,0,1,.391-.413,2.434,2.434,0,0,0,.5-.491,4.267,4.267,0,0,1,.435-.538c.183-.2.518-.44.614-.56a3.8,3.8,0,0,1,1.487-1.313.6.6,0,0,1,.645.007c.257.192.2.259.2.487a1.9,1.9,0,0,1-.415,1,3.279,3.279,0,0,0-.279.451,1.089,1.089,0,0,1-.351.507c-.212.118-.339.581-.393.7a.88.88,0,0,1-.333.471c-.049.058-.469.545-.525.607-.17.188-.049.1-.192.31a2.653,2.653,0,0,1-.409.433,1.382,1.382,0,0,0-.293.317,1.037,1.037,0,0,1-.453.5.626.626,0,0,0-.208.179,2.049,2.049,0,0,1-.726.793.81.81,0,0,0-.284.266.412.412,0,0,1-.194.17.916.916,0,0,0-.339.3,1.2,1.2,0,0,1-.183.2,2.27,2.27,0,0,0-.433.44l-.1.13a1.256,1.256,0,0,1-.237.176,1.539,1.539,0,0,0-.351.279c-.049.051-.094.107-.143.165a1.226,1.226,0,0,1-.487.422,2.239,2.239,0,0,0-.426.4c-.047.054-.089.1-.123.134a2.179,2.179,0,0,1-.286.232,1,1,0,0,0-.315.3,2.345,2.345,0,0,1-.7.621,1.877,1.877,0,0,0-.292.214l-.013.013c-.393.288-.527.4-.793.63l-.21.179a2.066,2.066,0,0,1-.344.246,2.75,2.75,0,0,0-.652.52,3.289,3.289,0,0,1-.692.54c-.123.078-.239.152-.337.228a5.032,5.032,0,0,1-.683.516,2.435,2.435,0,0,0-.346.257,3.32,3.32,0,0,1-.8.556c-.107.06-.21.118-.3.176s-.165.1-.243.15a4.641,4.641,0,0,0-.817.587,8.443,8.443,0,0,1-1.065.735,2.751,2.751,0,0,0-.938.842,1.256,1.256,0,0,1-.862.507.84.84,0,0,1-.156.018m.453-14.143a1.525,1.525,0,0,1-1.1-.605,1.272,1.272,0,0,1-.147-.237,2.9,2.9,0,0,0-.217-.355,2.246,2.246,0,0,1-.3-.594c-.025-.063-.047-.125-.071-.179-.036-.083-.065-.165-.094-.246a.929.929,0,0,0-.288-.485,2.181,2.181,0,0,1-.654-.886.621.621,0,0,0-.371-.259.742.742,0,0,1-.13-.049c-.27-.15-.567-.263-.764-.351-.889-.393-1.054-.6-1.023-1.047,0-.293.373-.48.777-.6.049-.016.1-.027.159-.04a1.342,1.342,0,0,1,.844-.025l1.014.2c.132.04.257.074.371.1a1.366,1.366,0,0,1,.56.219,1.834,1.834,0,0,0,.585.315,2.5,2.5,0,0,1,.471.223,5.448,5.448,0,0,1,.77.576c.071.06.143.121.217.181a2.232,2.232,0,0,1,.531.69c.06.1.127.217.208.342a1.532,1.532,0,0,1,.284.942c.009.1.02.21.034.324a2.214,2.214,0,0,1-.415,1.264,1.374,1.374,0,0,1-1.177.572c-.025,0-.051,0-.076,0" transform="translate(77.052 141.283)" fill="#fff"/>
        <path id="Path_437" data-name="Path 437" d="M79.2,138.7a.78.78,0,0,1-.592-.337,2.07,2.07,0,0,0-.268-.217,1.291,1.291,0,0,1-.487-1.107c0-.362-.02-.726-.038-1.047-.016-.252-.027-.471-.027-.645A9.69,9.69,0,0,1,77.854,134l0-.016a5.116,5.116,0,0,0,.031-.944c0-.125,0-.248,0-.359,0-.188.013-.373.029-.567.018-.228.036-.462.036-.737,0-.071,0-.159,0-.257a6.887,6.887,0,0,1,.038-1.1,9.7,9.7,0,0,0,.009-1.322c-.007-.112-.011-.205-.011-.286l.034-.808A6.1,6.1,0,0,1,78,126.572c.007-.208.016-.424.016-.636,0-.092,0-.226-.007-.377-.007-.391-.018-.88.007-1.163.013-.219.009-.433,0-.641a4.5,4.5,0,0,1,.029-.77,4.939,4.939,0,0,0,.011-.929c-.007-.141-.013-.272-.013-.386l0-.013c.009-.076.016-.147.025-.217a3.2,3.2,0,0,0-.022-1.241,4,4,0,0,1-.047-1.047c0-.156.011-.317.011-.478s0-.333-.007-.487c-.009-.31-.016-.605.007-1.018l0-.02a2.019,2.019,0,0,0-.016-.672,2.541,2.541,0,0,1-.018-.824,1.242,1.242,0,0,0-.391-1.078l-.067-.083a.973.973,0,0,0-.375-.165c-.058-.018-.121-.036-.19-.06a1.8,1.8,0,0,0-.382-.047c-.246-.013-.478-.027-.572-.212a.405.405,0,0,1-.022-.322c.1-.3.518-.5.824-.645.038-.018.071-.036.1-.049l.127-.069a.82.82,0,0,1,.871-.094,1.843,1.843,0,0,0,.529.145.968.968,0,0,1,.393.123,2.967,2.967,0,0,0,.518.266,3.906,3.906,0,0,1,.621.319,2.517,2.517,0,0,1,.491.429,3.233,3.233,0,0,0,.426.389l.009.009a1.1,1.1,0,0,1,.433.878.838.838,0,0,1-.4.752c-.047.036-.116.092-.123.116a3.674,3.674,0,0,1-.172.522.9.9,0,0,0-.089.31,2.344,2.344,0,0,1-.034.679,3.043,3.043,0,0,0-.031.884,3.55,3.55,0,0,1,0,.985,3.685,3.685,0,0,0-.027.56,10.564,10.564,0,0,1,0,1.784,1.221,1.221,0,0,0,.33.784l.009.013c.23.362.319.487.529.462a7.026,7.026,0,0,1,1.757.357l.281.074.018,0a2.123,2.123,0,0,0,.665.152,1.725,1.725,0,0,1,.61.145,2.2,2.2,0,0,0,.473.134,3.159,3.159,0,0,1,.732.223c.063.031.132.071.205.114a2.466,2.466,0,0,0,.929.364,2.135,2.135,0,0,1,.706.346,1.655,1.655,0,0,0,.17.078,1.083,1.083,0,0,1,.476.335c.071.071.172.156.279.248a3.2,3.2,0,0,1,.712.75,3.388,3.388,0,0,1,.44,1.349,1.486,1.486,0,0,1-.357,1.047,1.685,1.685,0,0,1-.947.56,1.663,1.663,0,0,1-.965-.27.933.933,0,0,1-.438-.391.778.778,0,0,0-.255-.266,2.882,2.882,0,0,1-.694-.793,2.155,2.155,0,0,0-.632-.636,1.755,1.755,0,0,1-.368-.295,2.632,2.632,0,0,0-.36-.3c-.069-.042-.161-.107-.268-.181-.145-.1-.324-.228-.511-.339a1.15,1.15,0,0,0-.23-.083.615.615,0,0,1-.476-.339c-.02-.06-.159-.1-.284-.141a1.582,1.582,0,0,1-.382-.156c-.21-.1-1.275-.335-1.59-.107-.136.092-.567.406-.567.777,0,.192.013.373.025.545a2.618,2.618,0,0,1-.029.857,6.341,6.341,0,0,0,0,1.518c.022.306.016.639.009.991,0,.188-.009.382-.009.583v.022a4.4,4.4,0,0,0-.013,1.011,3.54,3.54,0,0,1,.013.543c0,.172,0,.342,0,.5a7.07,7.07,0,0,0,.036,1.067,5,5,0,0,1,.018.944c-.009.2-.016.406-.016.636,0,.163-.007.315-.016.473a6.839,6.839,0,0,0,.016,1.078,3,3,0,0,1-.371,1.407.949.949,0,0,1-.848.525l-.067,0" transform="translate(93.652 138.986)" fill="#fff"/>
        <path id="Path_438" data-name="Path 438" d="M87.171,139.158a.764.764,0,0,1-.228-.013c-.543-.17-.65-.239-.748-.5a.483.483,0,0,1,.255-.69,2.605,2.605,0,0,1,.54-.237,1.234,1.234,0,0,0,.326-.181,1.471,1.471,0,0,1,.737-.306c.27-.067.322-.2.563-.317a3.469,3.469,0,0,1,.612-.25.385.385,0,0,0,.159-.116.594.594,0,0,1,.458-.212c.058,0,.123-.056.2-.123a.874.874,0,0,1,.322-.2,1.318,1.318,0,0,0,.518-.319l.051-.045a1.243,1.243,0,0,1,.322-.208,1.346,1.346,0,0,0,.324-.21,2.308,2.308,0,0,1,.279-.217,2.658,2.658,0,0,0,.306-.239,2.026,2.026,0,0,0,.17-.194.653.653,0,0,1,.424-.3c.018,0,.069-.1.092-.143a.561.561,0,0,1,.435-.377c.094-.013.127-.058.212-.19a1.73,1.73,0,0,1,.232-.295,1.25,1.25,0,0,0,.4-.549,1.262,1.262,0,0,1,.313-.473c.038-.04.083-.085.132-.143a1.343,1.343,0,0,0,.306-.453l.067-.141c.085-.167.161-.292.221-.4a1.822,1.822,0,0,0,.132-.241,2.7,2.7,0,0,1,.165-.375,4.28,4.28,0,0,0,.288-.692,2.254,2.254,0,0,1,.134-.366,1.719,1.719,0,0,0,.188-.674,3.844,3.844,0,0,1,.194-.927c.029-.094.054-.179.069-.243a.962.962,0,0,0,.018-.259,1.993,1.993,0,0,1,.15-.9,4.574,4.574,0,0,0,.089-1.094c.033-.364.033-.721.033-1.172,0-.221.018-.4.031-.563a1.992,1.992,0,0,0,0-.587,3.84,3.84,0,0,1-.013-1l.011-.165a11.817,11.817,0,0,0,0-1.514c-.027-.84-.013-1.17,0-1.349,0-.051,0-.092,0-.127,0-.1-.007-.217-.013-.337a2.6,2.6,0,0,1,.016-.692,4.477,4.477,0,0,0,.018-1.092,2.526,2.526,0,0,1-.02-.288,3.067,3.067,0,0,0-.125-1.172c-.1-.413-.118-.545-.243-.648l-.085-.1a1.2,1.2,0,0,0-.581-.313,2.6,2.6,0,0,0-.355-.056c-.31,0-.853-.058-.907-.581-.042-.424.234-.476.643-.661.054-.022.29-.069.348-.089a2.265,2.265,0,0,1,1.121-.029,4.021,4.021,0,0,0,.565.071c.335.025.574-.016.79.143l1.244.623a2.4,2.4,0,0,1,.9,1.081c.185.679-.165.875-.335.969l-.058.036a1.4,1.4,0,0,0-.284.875c-.011.107-.022.21-.038.3a2.539,2.539,0,0,0,0,.583,3.165,3.165,0,0,1,0,.712,5.432,5.432,0,0,0,0,1,4.226,4.226,0,0,1,.009.654c0,.136-.007.277-.007.413v1.034a2.9,2.9,0,0,1,0,1.058c0,.268-.011.46-.02.627-.007.141-.013.263-.013.406,0,.223-.013.386-.025.529a2.881,2.881,0,0,0-.009.5,2.432,2.432,0,0,1-.027.56,4.376,4.376,0,0,0-.038.493,5.981,5.981,0,0,1-.1,1.1,6.609,6.609,0,0,0-.123.875c-.025.226-.045.435-.074.589-.065.259-.1.514-.141.737a4.4,4.4,0,0,1-.123.616,3.514,3.514,0,0,0-.109.426,3.508,3.508,0,0,1-.255.824,3.066,3.066,0,0,0-.161.442,2.529,2.529,0,0,1-.339.75,3.759,3.759,0,0,0-.6,1.041A2.126,2.126,0,0,1,96.252,134a.333.333,0,0,0-.076.1,1.235,1.235,0,0,1-.364.384.677.677,0,0,0-.165.176.9.9,0,0,1-.371.322c-.317.159-.413.205-.491.42a.9.9,0,0,1-.672.565.841.841,0,0,0-.451.268,1.805,1.805,0,0,1-.319.266c-.071.065-.141.132-.208.2a1.551,1.551,0,0,1-.768.514.907.907,0,0,0-.6.288l-.085.074a2.025,2.025,0,0,1-.556.279,1.976,1.976,0,0,0-.4.183,2.457,2.457,0,0,1-.522.243,1.76,1.76,0,0,0-.389.179,2.29,2.29,0,0,1-.708.351l-.132.054a2.571,2.571,0,0,1-.44.141,4.9,4.9,0,0,1-.585.143,4.812,4.812,0,0,1-.786.016m2-9.726a1.49,1.49,0,0,1-.813-.246,1.328,1.328,0,0,1-.543-.712,3.594,3.594,0,0,1-.3-1.7,4.215,4.215,0,0,1,.132-.648,1.9,1.9,0,0,0,.1-.656,2.645,2.645,0,0,1,.02-.694l.011-.112a4.636,4.636,0,0,0,.016-.864c-.007-.123-.016-.25-.016-.424s.011-.317.022-.451a3.959,3.959,0,0,0,.011-.648,6.613,6.613,0,0,1,0-1.009,5.043,5.043,0,0,0,0-.842,1.953,1.953,0,0,1,.013-.409,2.319,2.319,0,0,0-.011-.721,2.782,2.782,0,0,1-.011-.665,3.678,3.678,0,0,0,.009-.522l0-.034a3.55,3.55,0,0,0-.255-1.547l-.063-.063a1.163,1.163,0,0,0-.48-.333,1.619,1.619,0,0,0-.322-.085c-.326,0-.752-.165-.835-.431l-.029-.125c-.083-.375.3-.607.654-.735.058-.022.116-.042.17-.065a1.228,1.228,0,0,1,1.056-.031,8.449,8.449,0,0,0,.871.185,2.333,2.333,0,0,1,.683.284c.118.065.241.13.359.183a4.306,4.306,0,0,1,.878.7,1.72,1.72,0,0,1,.4.862.642.642,0,0,1-.156.46,1.463,1.463,0,0,0-.205.406c-.058.19-.092.346-.132.527-.027.121-.056.252-.1.411l0,.013a1.394,1.394,0,0,0-.018.677,1.9,1.9,0,0,1,.025.257l-.013.21a3.87,3.87,0,0,0-.02.746,2.978,2.978,0,0,1,.027,1.382.5.5,0,0,0-.025.138,3.446,3.446,0,0,1,.007.873.336.336,0,0,0-.007.065,6.682,6.682,0,0,1,0,.991,5.19,5.19,0,0,0,0,.855,12.967,12.967,0,0,1,.038,1.487c0,.145,0,.286,0,.42s.007.281.013.435a3.255,3.255,0,0,1-.087,1.239c-.228.645-.576.96-1.063.96" transform="translate(105.795 139.016)" fill="#fff"/>
        <path id="Path_439" data-name="Path 439" d="M99.63,121.618a2.183,2.183,0,0,1-1.1-.263q-.074-.037-.154-.074l-.136-.065a2.425,2.425,0,0,1-.578-.346,1.333,1.333,0,0,0-.241-.237.457.457,0,0,1-.237-.27l-.1-.094c-.025-.087-.141-.172-.259-.261a1.11,1.11,0,0,1-.27-.27l-.185-.185a2.266,2.266,0,0,0-.406-.491l-.136-.237c-.3-.556-.355-.744-.154-1.063.172-.212.46-.129.833.076.083.045.192.121.288.167l.06.025c.107.069.205.13.3.19a5.133,5.133,0,0,0,.866.451,3.107,3.107,0,0,0,.893.152c.239,0,.489.011.708.02.172.007.319.013.433.013.36-.013.621-.025.815-.034a2.764,2.764,0,0,1,.61,0l.013,0a1.285,1.285,0,0,0,.67,0,2.152,2.152,0,0,1,.777-.036,4.3,4.3,0,0,0,.9-.007c.179-.013.362-.027.549-.027s.368-.007.574-.013c.246-.009.522-.02.826-.02.19,0,.353-.009.525-.02a6.984,6.984,0,0,1,.884-.011,6.71,6.71,0,0,0,.844-.02,3.859,3.859,0,0,1,.592-.013,4.412,4.412,0,0,0,.922-.007c.183-.013.357-.025.5-.025l1.693-.033,1.69-.065c.172,0,.4-.02.654-.04.326-.027.694-.058,1.045-.058a6.861,6.861,0,0,0,1.661-.125l.016,0,.974-.13a4.1,4.1,0,0,0,.422-.1,1.983,1.983,0,0,1,.543-.1,2.811,2.811,0,0,1,.4.029,3.225,3.225,0,0,0,.485.036,4.261,4.261,0,0,1,1.107.2l.121.036a1.45,1.45,0,0,1,.853.46s.576.639.418,1.011c-.034.089-.089.208-.116.277-.1.248-.074.243-.232.339-.038.018-.078.042-.127.071a1.5,1.5,0,0,1-.654.27,7.565,7.565,0,0,0-.773.087,2.757,2.757,0,0,1-.8.045c-.232,0-.409-.011-.549-.02a1.383,1.383,0,0,0-.449.016l-.013,0a3.124,3.124,0,0,1-1.277.033c-.074-.013-.143-.025-.221-.031h-2.367c-.19,0-.4.018-.6.036a2.89,2.89,0,0,1-.931-.009,3.2,3.2,0,0,0-.9-.016c-.179.009-.366.02-.531.02-.337,0-.63.011-.886.02-.217.007-.42.013-.612.013-.326,0-.538.018-.744.033s-.413.031-.723.031c-.1,0-.226-.009-.355-.02a2.826,2.826,0,0,0-1.072.047,4.056,4.056,0,0,1-.96.063c-.2,0-.4,0-.558.007a3.322,3.322,0,0,1-.92.045,1.815,1.815,0,0,0-.525.016,2.587,2.587,0,0,1-.692.042l-.194,0a6.133,6.133,0,0,0-1.154.031c-.087.009-.2.027-.319.045a4.667,4.667,0,0,1-.951.085,2.244,2.244,0,0,0-.623.141,2.547,2.547,0,0,1-.665.154" transform="translate(117.803 145.03)" fill="#fff"/>
        <path id="Path_440" data-name="Path 440" d="M42.228,169.379a1.632,1.632,0,0,1-.627-.156l-.127-.051a2.2,2.2,0,0,0-.54-.125,3.023,3.023,0,0,1-.884-.243,2.671,2.671,0,0,0-.947-.188,2.222,2.222,0,0,1-.288-.027,4.231,4.231,0,0,0-1.389,0,7.491,7.491,0,0,1-1.047.051,11.13,11.13,0,0,0-1.4.042c-.353.025-.688.047-1,.047-.2,0-.418,0-.63,0a11.888,11.888,0,0,0-1.71.049,5.2,5.2,0,0,1-1.42.049,5.836,5.836,0,0,0-.989,0,4.034,4.034,0,0,1-1.235.054,7.208,7.208,0,0,0-1.148-.007l-.013,0h-.013a13.573,13.573,0,0,0-2.333,0,6.2,6.2,0,0,1-1.047.025,9.7,9.7,0,0,0-1.282.022c-.6.031-1.141.02-1.663.009-.246,0-.487-.009-.721-.009l-.025,0a7.605,7.605,0,0,0-1.387.009c-.3.02-.614.038-.911.038-.223,0-.473-.009-.739-.018a9.9,9.9,0,0,0-1.559.018,7.223,7.223,0,0,1-1.646.029c-.252-.013-.489-.029-.7-.029H5.881a5.686,5.686,0,0,0-1.159.161,5.7,5.7,0,0,1-1.163.159c-.219,0-.429.009-.632.018a4.7,4.7,0,0,1-1.793-.163,1.616,1.616,0,0,1-1.112-1.157.762.762,0,0,1,.134-.616,1.432,1.432,0,0,1,1.011-.668,10.768,10.768,0,0,1,2.4-.136c.272.031.527.078.773.123a6.285,6.285,0,0,0,1.53.15,3.246,3.246,0,0,1,.589.009,3.525,3.525,0,0,0,.851-.009h.025c.067,0,.17.009.3.02a3.5,3.5,0,0,0,1.083-.007,1.372,1.372,0,0,1,.84-.063,5.15,5.15,0,0,0,.645.049c.132,0,.263,0,.4.009a9.762,9.762,0,0,0,1.043-.009l2.065-.092h.011a4.749,4.749,0,0,0,1.291-.132c.087-.016.172-.033.257-.047l.027,0c.893-.141,1.041-.19,1.105-.536a2.654,2.654,0,0,0-.263-1.541,6.45,6.45,0,0,1-.27-.828c-.065-.228-.127-.447-.183-.581a1.386,1.386,0,0,0-.3-.619c-.125-.143-.226-.261-.277-.324-.016-.02-.038-.045-.063-.074a1.561,1.561,0,0,1-.507-1.034.67.67,0,0,1,.284-.467,2.741,2.741,0,0,1,2.159.219c.089.06.2.136.317.221.259.183.042-.018.221.071a3.33,3.33,0,0,1,.969.775c.06.06.13.118.2.176a2.752,2.752,0,0,1,.491.514,1.762,1.762,0,0,1,.315.518.791.791,0,0,0,.17.281,2.671,2.671,0,0,1,.491,1.8c0,.134.007.257.016.362.027.368.13.431.473.636a5.92,5.92,0,0,1,.5.328,1.575,1.575,0,0,0,1.248.284,5.3,5.3,0,0,0,1.469-.038c.08.007.337-.179.543-.491.112-.17.181-.391.293-.592l.326-1.195a1.985,1.985,0,0,0,.194-.721,3.143,3.143,0,0,1,.065-.38,4.106,4.106,0,0,0,.219-1.219c0-1.119.152-1.713.493-1.927A2.5,2.5,0,0,1,27.955,160c.217.038.44.078.661.1a1.706,1.706,0,0,1,.761.228,1.323,1.323,0,0,0,.353.141c.518.147.784,1.105.822,1.277.138.634-.453.732-.884.849a4.974,4.974,0,0,0-.522.257c-.165.076-.23.143-.3.382-.089.3-.056.2-.353.556a.912.912,0,0,0-.174.366.977.977,0,0,1-.284.48,1.265,1.265,0,0,0-.621.929l-.011.118c-.042.371-.058.509.364.7a5.442,5.442,0,0,0,1.766.44,5.844,5.844,0,0,0,.75,0,6.225,6.225,0,0,1,.851,0,3.437,3.437,0,0,0,.991-.007,5.247,5.247,0,0,1,1.518.009l.02,0a5.915,5.915,0,0,0,2.068-.219,1.967,1.967,0,0,0,.6-.281c.152-.163.362-.221.482-.344.058-.058.2-.248.261-.3.172-.154.06-.094.252-.415a1.064,1.064,0,0,1,.373-.351.9.9,0,0,0,.337-.382c.263-.5.478-.877.924-.9a1.137,1.137,0,0,1,.936.589l.054.08a.933.933,0,0,0,.755.563,1.1,1.1,0,0,1,.621.4,2.924,2.924,0,0,0,.279.281,3.061,3.061,0,0,0,.409.342,1.4,1.4,0,0,1,.4.377,1.8,1.8,0,0,0,1.085.761l.1.033a.652.652,0,0,1,.364.4,1.035,1.035,0,0,1-.033.764,1.548,1.548,0,0,1-.777.788,2.426,2.426,0,0,0-.234.143,1.22,1.22,0,0,1-.685.228m-9.885-8.047a1.017,1.017,0,0,1-.451-.089c-.147-.076-.125-.344-.324-.873a3.566,3.566,0,0,0-.212-.534,2.372,2.372,0,0,0-.621-.277c-.089-.04-.188-.083-.3-.138a2.083,2.083,0,0,0-1.025-.277,3.675,3.675,0,0,1-1.545.027c-.284-.025-.768.04-1.038.04H22.32c-.181,0-.406.009-.645.018a9.537,9.537,0,0,1-1.614-.02,5.8,5.8,0,0,0-1.034.013,4.391,4.391,0,0,1-1.2-.011,15.049,15.049,0,0,0-2.03.04c-.587.045-.668-.246-1.172.134l-.373.078c-.159.089-.438.255-.56.322a1.693,1.693,0,0,0-.8.665,1.828,1.828,0,0,1-1.6.746l-.161.027c-1.058-.415-1.038-.88-1.065-1.688,0-.047,0-.092,0-.136l.092-3.238c0-.051-.007-.127-.013-.221a5.418,5.418,0,0,1,.013-1.212,2.26,2.26,0,0,0,0-.639,1.6,1.6,0,0,1,.058-.806,6.569,6.569,0,0,0,.027-1.771c-.018-.281-.036-.549-.036-.766a2.774,2.774,0,0,0-.042-.732c-.221-.985-.413-1.773.123-2.032.487-.234.994.114,1.552.413.154.083.315.167.469.239l1.773.815a2.516,2.516,0,0,0,1.4-.042,4.253,4.253,0,0,1,.643-.067h4.236c.217,0,.458-.02.712-.04a4.234,4.234,0,0,1,1.471.045,3.892,3.892,0,0,0,1.032,0,3.774,3.774,0,0,1,1.1,0,7.856,7.856,0,0,0,2.041,0,8.856,8.856,0,0,1,1.09-.009c.145,0,.279.009.386.009a2.256,2.256,0,0,0,.52-.031,1.93,1.93,0,0,1,.938.036,2.367,2.367,0,0,0,1.456-.534c.121-.121.317-.353.42-.458.308-.322.308-.493.75-.518a1.065,1.065,0,0,1,.715.219,1.259,1.259,0,0,0,.221.109,3.37,3.37,0,0,1,1.235.808,2.192,2.192,0,0,0,.46.451,2.175,2.175,0,0,1,.493.5,1.473,1.473,0,0,0,.205.255.778.778,0,0,1,.293.739c-.087.406-.406.567-.813.862-.107.078-.317.308-.4.38a.893.893,0,0,0-.25,1.011,1.209,1.209,0,0,1,.036.476,5,5,0,0,0,.042,1.438l0,.027a4.76,4.76,0,0,1,0,.681,2.206,2.206,0,0,0,.045.746,3.6,3.6,0,0,1,.047,1.583,2.142,2.142,0,0,0-.051,1c.02.138.04.295.056.5.049.65-.217.65-.656,1.025-.1.085-.21.165-.313.259a2.317,2.317,0,0,1-1.3.435m-8.643-4.3a6.355,6.355,0,0,1,.922.054,3.185,3.185,0,0,0,1.275.033,3.781,3.781,0,0,1,.951-.033,9.617,9.617,0,0,0,2.271,0,1.324,1.324,0,0,0,1.145-.862c.071-.13.147-.257.223-.382a1.993,1.993,0,0,0,.444-1.369,4.031,4.031,0,0,1,.007-.672,5.434,5.434,0,0,0-.007-1.065l0-.029a2.248,2.248,0,0,0-.56-.808,3.76,3.76,0,0,0-1.174-.426c-.241,0-.478,0-.717-.009-.48-.011-.976-.02-1.552.009a8.7,8.7,0,0,1-1.011-.011,6.817,6.817,0,0,0-1.163.011h-.02c-.266,0-.5,0-.717-.009-.422-.011-.822-.02-1.413.009-.552.033-1.168.02-1.663.009-.2,0-.384-.009-.531-.009-.33,0-.63-.011-.9-.022a7.1,7.1,0,0,0-1.264.022c-.107.009-.221.018-.348.031a6.514,6.514,0,0,1-2.289-.04c-.208-.06-.759.2-1,.808l-.013.027a10.557,10.557,0,0,0-.755,1.688,3.835,3.835,0,0,0-.056,1.161c.009.2.016.409.016.61a.9.9,0,0,0,.511.831,3.67,3.67,0,0,1,.679.279,2.024,2.024,0,0,0,.545.214,9.2,9.2,0,0,1,.938.011,8.623,8.623,0,0,0,1.355-.007,9.562,9.562,0,0,1,1.605-.022c.246.011.476.018.654.018s.393.009.612.02a11.09,11.09,0,0,0,1.648-.018c.4-.027.889-.054,1.353-.054M11.553,144.505a3.412,3.412,0,0,1-.938.795,10.251,10.251,0,0,0-1.09,1l-.013.013c-.17.154-.284.27-.386.371a4.7,4.7,0,0,1-.775.652c-.226.192-.431.344-.594.467a2.054,2.054,0,0,0-.5.442,2.309,2.309,0,0,1-1.043.855,2.8,2.8,0,0,0-.286.154c-.319.221-.565.42-.8.614-.185.152-.377.308-.6.471a4.016,4.016,0,0,1-1.313.679c-.056.013-.5.127-.56.145a2.977,2.977,0,0,1-.706.074c-.306,0-.851-.109-1-.471-.214-.536-.08-.7.29-1.284l.308-.326a3.777,3.777,0,0,1,1.407-1.145,5.889,5.889,0,0,0,.951-.84l.078-.069c.069-.06.132-.116.194-.174a4.748,4.748,0,0,1,.974-.712l.022-.011a2.944,2.944,0,0,0,.5-.431,5.31,5.31,0,0,1,.5-.449,4.718,4.718,0,0,1,1.183-.938,1.9,1.9,0,0,0,.547-.518,1.978,1.978,0,0,1,.485-.476,3.911,3.911,0,0,0,.947-.909,6.039,6.039,0,0,1,.875-.9l.194-.176a5.827,5.827,0,0,0,.931-1.02c.243-.315.442-.536.6-.712a2.883,2.883,0,0,0,.3-.368,4.451,4.451,0,0,1,.31-.422c.167-.217.38-.487.556-.766.078-.116.147-.237.219-.366a3.088,3.088,0,0,1,.73-.951.89.89,0,0,0,.308-.415,2.1,2.1,0,0,1,.205-.368c.049-.063.1-.123.167-.19a1.885,1.885,0,0,0,.534-.844c.051-.179.071-.444-.308-.779a1.724,1.724,0,0,0-1.384-.411H11.754c-.21,0-.458.018-.723.038a5.425,5.425,0,0,1-1.693-.045,6.008,6.008,0,0,0-1.849-.029c-.159.013-.313.027-.458.036a9.852,9.852,0,0,0-1.011.165c-.277.056-.565.112-.842.152a4.348,4.348,0,0,1-2.063-.2c-.663-.373-1.029-.768-1.1-1.179-.069-.491.293-.9,1.11-1.239a3.939,3.939,0,0,1,1.17-.092c.275,0,.558,0,.846-.013a3.575,3.575,0,0,1,1.018.145,3.149,3.149,0,0,0,.844.13,4.473,4.473,0,0,1,1.172,0,5.02,5.02,0,0,0,1.233,0,14.372,14.372,0,0,1,2.445,0,10.886,10.886,0,0,0,1.09-.011,8.357,8.357,0,0,1,1.333.013,12.508,12.508,0,0,0,1.73.018c.239-.011.464-.02.665-.02.107,0,.138-.042.214-.3a1.426,1.426,0,0,1,.188-.444,1.242,1.242,0,0,1,.9-.552l.071-.018a.552.552,0,0,1,.442.13,1.429,1.429,0,0,0,.509.234,1.07,1.07,0,0,1,.514.4,1.205,1.205,0,0,0,.621.462,1.715,1.715,0,0,1,.793.723c.083.114.17.232.259.335a2.532,2.532,0,0,0,.212.219.592.592,0,0,1,.23.737c-.029.069-.051.13-.071.188a1.036,1.036,0,0,1-.768.784,3.43,3.43,0,0,1-.469.1,1.056,1.056,0,0,0-.6.221,1.639,1.639,0,0,0-.357.578,1.4,1.4,0,0,1-.485.67,3.316,3.316,0,0,0-.828,1.116l-.029.054a3.83,3.83,0,0,1-.848,1.17l-.087.094a7.307,7.307,0,0,1-1.027,1.161,3.392,3.392,0,0,0-.592.648,4.471,4.471,0,0,1-.435.518c-.089.089-.192.185-.3.286a4.585,4.585,0,0,0-.723.777,3.213,3.213,0,0,1-.744.788c-.132.114-.257.219-.373.335l-.033.033c-.23.221-.706.569-.833.681s-.359.6-.464.706m1.364-.543c.293-.317.293-.205.8-.44a4.811,4.811,0,0,1,1.186-.185c.21-.013.426-.029.636-.058a3.118,3.118,0,0,1,.927.134,3.143,3.143,0,0,0,1.052.141,7.082,7.082,0,0,1,1.762,0c.13.018.25.036.366.054a2.231,2.231,0,0,0,1.268-.042,1.825,1.825,0,0,1,.786-.016,2.724,2.724,0,0,0,.915.007,2.645,2.645,0,0,1,.779.02c.293.038.074.076.382-.016a1.448,1.448,0,0,0,.806-.576c.118-.167.4-.418.578-.619a1.79,1.79,0,0,0,.172-.313c.219-.453.507-1.128,1.188-.929a1.474,1.474,0,0,1,.936.424c.33.3.3.739.933.913l.536.266a1.97,1.97,0,0,1,.828,1.034c.036.067.489.616.543.7.2.31.46.217.167.779-.426.592-1.036.493-1.849.386a16.277,16.277,0,0,0-1.96-.121,6.015,6.015,0,0,1-1.407.058c-.118-.007-.226-.013-.324-.013l-1.134.092H23.78c-.46-.031-.873-.018-1.208-.009-.138,0-.261.009-.364.009-.324,0-.607.013-.882.025-.241.011-.471.02-.7.02H19.084c-.179,0-.353,0-.527-.009a8.278,8.278,0,0,0-1,.009c-.228.04-.5.08-.811.127-.362.054-.77.116-1.2.19a6.739,6.739,0,0,1-1.813-.094c-.1-.016-.205-.029-.306-.042l-.018,0a1.265,1.265,0,0,1-.837-.525.8.8,0,0,1-.109-.424,1.716,1.716,0,0,1,.451-.949m27.3,5.64a1.154,1.154,0,0,1-.824-.342,1.036,1.036,0,0,0-.248-.172,1.7,1.7,0,0,1-.33-.21,1.671,1.671,0,0,0-.594-.328,2.088,2.088,0,0,1-.752-.384c-.074-.056-.159-.116-.263-.188a6.021,6.021,0,0,0-.924-.529l-.025-.007a1.373,1.373,0,0,1-.94-.688c-.045-.1-.161-.156-.346-.243a1.654,1.654,0,0,1-.525-.33,4,4,0,0,0-.831-.612,4.617,4.617,0,0,1-.9-.708,4.26,4.26,0,0,0-.4-.306,2.135,2.135,0,0,1-.625-.587,2.438,2.438,0,0,0-.509-.458,2.2,2.2,0,0,1-.478-.433c-.042-.042-.1-.1-.176-.167a3.508,3.508,0,0,1-.766-.842,1.369,1.369,0,0,0-.558-.578,1.063,1.063,0,0,1-.386-.355,2.458,2.458,0,0,0-.478-.552,1.73,1.73,0,0,1-.4-.471,1.345,1.345,0,0,0-.319-.413,2.757,2.757,0,0,1-.489-.612,3.573,3.573,0,0,0-.424-.583c-.116-.141-.25-.3-.389-.5-.13-.214-.438-.661-.768-1.085a6.568,6.568,0,0,1-.5-.755l-.1-.174c-.038-.065-.078-.123-.121-.188a5.253,5.253,0,0,1-.431-.735,3.623,3.623,0,0,0-.531-.931,1.563,1.563,0,0,1-.174-.362,1.652,1.652,0,0,0-.31-.574,2.383,2.383,0,0,1-.493-1.061,3.53,3.53,0,0,1-.2-.52.846.846,0,0,0-.2-.409.8.8,0,0,1-.29-.6.941.941,0,0,0-.15-.435,2.553,2.553,0,0,1-.442-1.166.635.635,0,0,1,.3-.605,1.131,1.131,0,0,1,1.092-.089,1.983,1.983,0,0,1,.688,1.212,1.646,1.646,0,0,0,.531.949,1.723,1.723,0,0,1,.536.775,1.015,1.015,0,0,0,.127.252c.047.067.089.125.132.183a4.48,4.48,0,0,1,.529.857l.009.025a1.656,1.656,0,0,0,.337.487,1.579,1.579,0,0,1,.293.406,1.117,1.117,0,0,0,.3.362,1.082,1.082,0,0,1,.391.576c.069.413.688.5,1.192.5a1.214,1.214,0,0,0,.9-.2c.094-.056.2-.121.342-.19.08-.04.127-.13.2-.272a1.216,1.216,0,0,1,.368-.487,1.369,1.369,0,0,0,.527-.685,1.515,1.515,0,0,1,.516-.773l.118-.116a1.875,1.875,0,0,0,.259-.344,5.376,5.376,0,0,1,.319-.46,2.665,2.665,0,0,0,.226-.359,2.07,2.07,0,0,1,.382-.523.8.8,0,0,0,.109-.27.987.987,0,0,1,.471-.668c.362-.217,1.335.257,1.445.313a2.4,2.4,0,0,0,1.179.5,1.687,1.687,0,0,1,.985.458,5.717,5.717,0,0,0,.458.353c.578.346.67.554.61,1.023-.071.565-.246.435-.962.7a2.913,2.913,0,0,1-.985.1,2.789,2.789,0,0,0-.886.3,3.805,3.805,0,0,0-.581.549,2.644,2.644,0,0,1-.63.56,7.487,7.487,0,0,0-.65.525,3.829,3.829,0,0,1-.768.572,14.729,14.729,0,0,0-1.3.9,1.8,1.8,0,0,0-.29,1.085c0,.373.121.487.418,1.018a2.276,2.276,0,0,0,.572.594c.255.15.424.085.467.255a3.131,3.131,0,0,0,.339.212c.022-.009.147-.031.17-.042.1-.047.214,0,.424-.065l.255-.147c.371-.145.389-.06.641-.348.17-.192.292-.355.4-.5a4.045,4.045,0,0,1,.382-.464,5.188,5.188,0,0,0,.806-.9c.127-.163.239-.284.337-.388a1.47,1.47,0,0,0,.322-.438,1.223,1.223,0,0,1,.431-.556,1.1,1.1,0,0,0,.261-.281c.134-.192.241-.326.326-.433a1.821,1.821,0,0,0,.3-.46c.04-.092.071-.176.1-.255a1.042,1.042,0,0,1,.634-.75.7.7,0,0,1,.826.192,1.788,1.788,0,0,0,.487.308,6.14,6.14,0,0,1,.6.313,3.065,3.065,0,0,0,.362.192l1.157.672a1,1,0,0,1,.583.857c0,.458-.176.523-.6.692-.246.1-1.186.4-1.567.529a3.329,3.329,0,0,0-1.07.9c-.089.1-.179.194-.266.281a6.154,6.154,0,0,1-1.132.822,4.1,4.1,0,0,0-.429.281l-.022.016a2.519,2.519,0,0,0-.214.156,3.037,3.037,0,0,1-1.063.592c-.4.1-.406.237-.493.516l-.042.359a.527.527,0,0,0,.042.467,2.653,2.653,0,0,0,.277.467,2.984,2.984,0,0,1,1,.6,2.033,2.033,0,0,0,.75.431,2.411,2.411,0,0,1,.924.442,2.3,2.3,0,0,0,.518.295,5.481,5.481,0,0,1,.706.357,5.236,5.236,0,0,0,.536.286c.237.087.5.2.815.333l.5.21A4.667,4.667,0,0,0,43,145.5c.482.016,1.092-.02,1.3.636a1.663,1.663,0,0,1-.442,1.351l-.029.069a1.708,1.708,0,0,1-1.157.828l-.1.025a6.156,6.156,0,0,0-.612.322,2.958,2.958,0,0,1-.721.232.89.89,0,0,0-.384.272.99.99,0,0,1-.641.366M8.945,141.636a1.246,1.246,0,0,1-1.1-.514l-.018-.022a3.949,3.949,0,0,0-.815-.862,2.343,2.343,0,0,1-.605-.63,5.257,5.257,0,0,0-.422-.527,3.771,3.771,0,0,1-.5-.525.969.969,0,0,0-.589-.429,3.1,3.1,0,0,1-1.058-.507,3.3,3.3,0,0,0-.6-.335c-.473-.071-1.132-.382-1.266-.748a.322.322,0,0,1,.085-.389,2.382,2.382,0,0,1,1.032-.523l.033,0a1.189,1.189,0,0,0,.152-.02,2.6,2.6,0,0,1,1.266.116l1.427.326a5.625,5.625,0,0,1,.574.183,3.322,3.322,0,0,0,.9.223,2.424,2.424,0,0,1,1.411.534c.138.087.261.179.382.266a3.305,3.305,0,0,0,.634.4,1.025,1.025,0,0,1,.578.594c.054.107.1.2.159.228.471.27.4.884.371,1.181a1.667,1.667,0,0,1-.652,1.206c-.17.141-.29.261-.4.364a1.01,1.01,0,0,1-.77.411H8.945" transform="translate(0 158.078)" fill="#fff"/>
        <path id="Path_441" data-name="Path 441" d="M24.977,171.14c-.7,0-1.4-.165-1.619-.67a.762.762,0,0,1,.022-.784,1.61,1.61,0,0,1,1.2-.75,1.555,1.555,0,0,0,.538-.243c.17-.1.205-.067.491-.118a3.094,3.094,0,0,0,.8-.3,3.6,3.6,0,0,1,.435-.138c.123-.029.487-.076.627-.087.326-.029.38-.1.766-.366a2.75,2.75,0,0,1,1.7-.518l.022,0a2.782,2.782,0,0,0,.92-.333,3.717,3.717,0,0,1,.61-.255,4.3,4.3,0,0,0,1.125-.451c.1-.054.214-.112.339-.174a14.32,14.32,0,0,0,1.487-.811,4.162,4.162,0,0,1,.413-.214,3.141,3.141,0,0,0,1.009-.665,5.273,5.273,0,0,1,1.023-.819,1.434,1.434,0,0,0,.618-.554.893.893,0,0,1,.205-.243,2.169,2.169,0,0,0,.721-.846,1.639,1.639,0,0,1,.4-.491.629.629,0,0,0,.263-.42.793.793,0,0,1,.2-.353,1.255,1.255,0,0,0,.3-.527,4.481,4.481,0,0,1,.531-.971c.2-.268.083-.464-.219-.922-.092-.141-.194-.3-.295-.476a2.576,2.576,0,0,0-.623-.424c-.069-.04-.132-.074-.179-.1a1.063,1.063,0,0,0-.723-.194,2.007,2.007,0,0,1-.3-.009,7.677,7.677,0,0,0-2.083-.038c-.192.013-.382.029-.569.038a4.022,4.022,0,0,0-.431.029,3.854,3.854,0,0,1-1.206-.031,5.4,5.4,0,0,0-1.159-.013c-.165.009-.308.016-.4.016a3.249,3.249,0,0,0-.607.022,2.831,2.831,0,0,1-.985-.027,4.526,4.526,0,0,0-1.5,0l-.047,0a8.134,8.134,0,0,0-1.425.181c-.277.051-.56.1-.831.136a5.934,5.934,0,0,1-1.914-.1c-.188-.031-.371-.06-.545-.083l-.025,0c-.833-.232-1.076-.491-1.132-1.206,0-.482.214-.71,1.1-1.174a3.309,3.309,0,0,1,1.643-.172,7.676,7.676,0,0,0,.844.016,4.159,4.159,0,0,1,1.413.143,3.99,3.99,0,0,0,.873.13c.089,0,.228,0,.391.009a11.468,11.468,0,0,0,1.226-.007,4.407,4.407,0,0,1,.681,0,9.316,9.316,0,0,0,.967,0,5.6,5.6,0,0,1,.788,0,7.079,7.079,0,0,0,.844,0,10.744,10.744,0,0,1,1.163-.011c.17,0,.335.009.5.009a4.832,4.832,0,0,1,.554.047,3.088,3.088,0,0,0,1.344-.036,2.322,2.322,0,0,1,1.038-.009,2.359,2.359,0,0,0,.92.009l.029-.007c.065-.013.127-.022.19-.033a2.864,2.864,0,0,0,1.467-.618c.065-.054.134-.107.2-.156.534-.42.732-.578.732-1.02a3.4,3.4,0,0,1,.092-.6,5.32,5.32,0,0,0,.136-.994,6,6,0,0,1,.1-1.364.511.511,0,0,0,.02-.147.7.7,0,0,1,.089-.353.68.68,0,0,1,.259-.263,1.3,1.3,0,0,0-.2-.016c-.359,0-.69.025-1.009.049-.272.022-.527.042-.766.042a1.553,1.553,0,0,1-.5-.051,5.92,5.92,0,0,0-1.346-.016,6.807,6.807,0,0,1-.9.02l-.243-.025a5.458,5.458,0,0,0-1.978.02,3.97,3.97,0,0,1-1.63.063c-.2-.022-.413-.045-.654-.058-.185-.009-.355-.02-.518-.031a6.886,6.886,0,0,0-1.722.029,4.772,4.772,0,0,1-1.489.047,7.588,7.588,0,0,0-.768-.045,6.054,6.054,0,0,0-1.342.163,8.743,8.743,0,0,1-.918.156,5.62,5.62,0,0,1-2.494-.194c-.384-.152-1.393-.558-1.1-1.279.027-.065.049-.121.071-.176.134-.344.29-.587,1.067-.846a4.2,4.2,0,0,1,1.811-.172c.21.013.426.027.659.027a5.766,5.766,0,0,1,1.172.069,4.052,4.052,0,0,0,1.065.123,12.176,12.176,0,0,1,1.273-.011c.2.007.375.009.514.009a2.862,2.862,0,0,0,.636-.04,2.424,2.424,0,0,1,1.195.051,4.021,4.021,0,0,0,1.161.018c.2-.013.4-.029.56-.029l.219.022a4.917,4.917,0,0,0,1.521-.018,4.106,4.106,0,0,1,1.168-.011,2.751,2.751,0,0,0,.7.011,5.343,5.343,0,0,1,1.938,0,1.045,1.045,0,0,0,.482-.1,1.634,1.634,0,0,1,.576-.13,1.713,1.713,0,0,0,.909-.435,6.731,6.731,0,0,1,.482-.5,1.6,1.6,0,0,0,.574-.822c.02-.145.045-.286.069-.415.078-.418.116-.659-.02-.8-.031-.031-.058-.063-.089-.1a2.341,2.341,0,0,0-.652-.516,3.048,3.048,0,0,0-1.619-.384,8.623,8.623,0,0,1-1.049.011c-.154-.007-.3-.011-.426-.011H36.1a4.572,4.572,0,0,1-1.049.02c-.13-.009-.25-.02-.375-.02H33.264c-.239,0-.46,0-.654-.011a4.113,4.113,0,0,0-.677.009,10.277,10.277,0,0,1-2.311.322c-.281,0-.527.016-.744.027a4.13,4.13,0,0,1-1.864-.326c-.6-.161-.878-.33-1.007-.661a.58.58,0,0,1,.049-.54,1.368,1.368,0,0,0,.063-.141,1.332,1.332,0,0,1,1.034-.851,7.382,7.382,0,0,1,2.5-.23c.188.036.368.078.545.121a4.127,4.127,0,0,0,1.677.154,4.846,4.846,0,0,1,.766-.016c.17.007.368.013.627.013h2.825c.145,0,.275-.009.411-.02a3.893,3.893,0,0,1,.98.022,9.051,9.051,0,0,0,1.023.007c.156,0,.3-.009.409-.009a4.119,4.119,0,0,1,.715.025,1.806,1.806,0,0,0,.663-.007,2.807,2.807,0,0,1,.594-.174,1.677,1.677,0,0,0,.994-.469c.065-.065.123-.123.181-.179.371-.362.636-.621.636-1.023V137.7c0-.208-.156-.275-.824-.464a14.911,14.911,0,0,0-1.891-.359,4.921,4.921,0,0,0-1.105-.018c-.2.009-.389.018-.554.018H34.994a4.7,4.7,0,0,1-.6-.045,2.126,2.126,0,0,0-.951.04,5.078,5.078,0,0,1-1.192.022c-.167-.009-.326-.018-.447-.018H30.213a8.261,8.261,0,0,0-1.349.179c-.339.063-.661.121-.915.141a6.607,6.607,0,0,1-2.572-.326c-.822-.293-1.183-.663-1.025-1.137a1.543,1.543,0,0,1,1.17-.991,5.533,5.533,0,0,1,2.429-.268c.507.029,1,.1,1.489.167.261.036.525.074.793.1a10.221,10.221,0,0,0,2.056,0,7.788,7.788,0,0,1,1.291-.013c.373.016.795.033,1.315.013a6.614,6.614,0,0,0,1.773-.31c.469-.188.44-.324.429-.389a3.438,3.438,0,0,0-.688-1.509c-.141-.141-.3-.324-.462-.52a5.479,5.479,0,0,0-.7-.732,2.855,2.855,0,0,1-.786-1.2c-.025-.051-.049-.1-.076-.159a.867.867,0,0,1,.045-.795,4.339,4.339,0,0,0,.136-.576c.123-.4.377-.4.971-.4.054,0,.228-.027.288-.031a1.455,1.455,0,0,1,1.107.259,5.825,5.825,0,0,0,.915.507c.1.054.181.1.239.136a2.542,2.542,0,0,1,.485.342,1.832,1.832,0,0,0,.489.326l.025.013a3.562,3.562,0,0,1,1.478,1.431,5.164,5.164,0,0,1,.569,2.166c.009.063.013.136.02.214.022.317.047.645.3.786a3.3,3.3,0,0,0,1.507.431c.359,0,.663-.018.931-.036a2.735,2.735,0,0,1,1.029.042,3.481,3.481,0,0,0,.808,0,3.032,3.032,0,0,1,.581-.009,1.551,1.551,0,0,0,1.44-.869,3.807,3.807,0,0,1,.306-.842c.058-.125.112-.243.156-.36a2.452,2.452,0,0,1,.241-.485,1.5,1.5,0,0,0,.25-.61l0-.029a8.576,8.576,0,0,1,.342-1c.089-.228.174-.442.252-.692a2.841,2.841,0,0,0,.085-.652c.036-.6.08-1.342.677-1.342a3.428,3.428,0,0,1,1.561.534,4.106,4.106,0,0,0,1.541.277l.1.011a1.425,1.425,0,0,1,.855.389,2.01,2.01,0,0,0,.183.141,1.125,1.125,0,0,1,.534,1.134.9.9,0,0,1-.469.677c-.071.049-.15.1-.228.165a1.655,1.655,0,0,1-.878.288,1.535,1.535,0,0,0-.391.138,2.651,2.651,0,0,0-.652.837l-.011.018a3.126,3.126,0,0,0-.65,1.581.915.915,0,0,0,.871.686h3.05a6.694,6.694,0,0,1,.779.071c.485.065,1.034.136,1.25-.033a1.828,1.828,0,0,0,.683-.719l.047-.083a1.713,1.713,0,0,1,.741-.755l.016-.009a1.328,1.328,0,0,0,.643-.681c.018-.04.152-.214.172-.248.324-.511.5-.583.768-.594a2.286,2.286,0,0,1,1.442,1.072,1.039,1.039,0,0,0,.118.04,1.6,1.6,0,0,1,.652.346,1.178,1.178,0,0,0,.386.181,2.05,2.05,0,0,1,.851.462,1.978,1.978,0,0,0,.306.205,1.27,1.27,0,0,1,.7.828c.022.065.051.136.078.205.15.391.38.549.19.927a11.328,11.328,0,0,1-.826.9,2.606,2.606,0,0,1-.375.226,1.565,1.565,0,0,1-1.029-.025c-.134-.029-.4-.06-.576-.1-.308-.071-.752-.078-1.038-.136l-.255-.047a5.832,5.832,0,0,0-.985-.132c-.21,0-.476.025-.757.051a8.027,8.027,0,0,1-1.588.04,10.131,10.131,0,0,0-1.308.042c-.333.025-.677.049-.991.049s-.61-.007-.871-.011c-.453-.011-.844-.018-1.3.011l-.234.018a10.559,10.559,0,0,1-2.034.027,5.3,5.3,0,0,0-1.009.009,6.849,6.849,0,0,1-1.5-.011,2.587,2.587,0,0,0-1.159.208c-.063.036-.132.08-.208.127-.183.114-.411.257-.706.42a2.339,2.339,0,0,0-.228,1.166,7.027,7.027,0,0,1,.009.936c0,.1-.009.192-.009.284.031.272.036.272.458.413l.058.02a4.5,4.5,0,0,1,.567.234.864.864,0,0,0,.7.127,7.243,7.243,0,0,1,2.49,0l.02,0a4.593,4.593,0,0,0,2.184,0,2.4,2.4,0,0,1,1.177.051c.371.078.692.15.893-.016a5.167,5.167,0,0,0,1-1.132c.016-.029.031-.058.051-.089a3.837,3.837,0,0,1,1.1-1.132c.357-.074.681.181,1.159.485.143.1.478.19.656.281a4.826,4.826,0,0,1,1.107.681,9.813,9.813,0,0,0,1.023.632c.2.114.478.38.583.449.456.319.572.485.451,1.047a1.015,1.015,0,0,1-.913.886c-.295,0-.44.013-.581.025s-.284.022-.558.022a2.693,2.693,0,0,1-1.306-.252.694.694,0,0,0-.389-.047,1.548,1.548,0,0,1-.728,0,2.8,2.8,0,0,0-1.159.013,5.217,5.217,0,0,1-.84.083l-1.954.047c-.214,0-.469.018-.737.036a5.524,5.524,0,0,1-1.259.007,7.638,7.638,0,0,0-.915.025,6.328,6.328,0,0,1-.936.022,2.884,2.884,0,0,0-.538.027,4.272,4.272,0,0,1-1.447-.031,1.193,1.193,0,0,0-.882.623c-.083.19-.165.368-.243.536a2.921,2.921,0,0,0-.295.766,2.6,2.6,0,0,1,.031,1.186,1.7,1.7,0,0,0-.027.223c0,.112,0,.406.746.46a7.071,7.071,0,0,1,1.614.31c.121.036.246.069.377.1a4.072,4.072,0,0,0,.96.016c.21-.011.426-.022.632-.022h6.375c.263,0,.491.02.69.038a1.666,1.666,0,0,0,.7-.022.707.707,0,0,0,.279-.313,1.409,1.409,0,0,1,.371-.442,3.149,3.149,0,0,0,.6-.732,1.18,1.18,0,0,1,.275-.281,1.118,1.118,0,0,0,.348-.424.241.241,0,0,1,.027-.08,3.1,3.1,0,0,1,.69-.706l.083-.036c.188-.047.255.156.389.228.161.087.308.232.476.313a1.961,1.961,0,0,1,.79.5c.045.054.074.114.109.15a5.445,5.445,0,0,0,.922.777,6.679,6.679,0,0,1,.574.444,8.962,8.962,0,0,0,1.043.721,1.915,1.915,0,0,1,.208.127c.5.4.511.616.3,1.13a1.324,1.324,0,0,1-.851.8,1.257,1.257,0,0,1-.8.161,2.962,2.962,0,0,0-.552-.069,2.981,2.981,0,0,1-1.1-.163,3.233,3.233,0,0,0-.449-.172l-1.219-.181a5.358,5.358,0,0,0-1.351.029,3.386,3.386,0,0,1-1.058.018,8.821,8.821,0,0,0-2.255.087,7.07,7.07,0,0,1-2.429.049c-.547-.025-1.009,0-1.456.018-.29.016-.563.029-.848.029-.21,0-.444.011-.692.025a14.568,14.568,0,0,1-1.594.02c-.2-.011-.4-.031-.587-.051a4.265,4.265,0,0,0-1.679.047,3.785,3.785,0,0,1-1.23.143l-.083,0c.047.031.089.063.127.089a.659.659,0,0,0,.172.1l.022.007c.4.132,1.07.442,1.121,1.018a2.253,2.253,0,0,1-.386,1.306,5.232,5.232,0,0,0-.261.549,1.1,1.1,0,0,1-.3.389,1.108,1.108,0,0,0-.413.654c-.029.3.078.487.715.585l.022,0,.226.069a6.388,6.388,0,0,0,1.512.333l1.733.138c.241.016.456.04.663.063a9.01,9.01,0,0,0,1.054.074c.317,0,.552.011.777.022s.473.022.817.022c.183,0,.342,0,.485-.007a6.655,6.655,0,0,1,1.179.054l.027.007a1.729,1.729,0,0,0,.677-.007,2.283,2.283,0,0,1,.853,0l.125.013a3.707,3.707,0,0,0,1.268,0,1.013,1.013,0,0,0,.355-.359c.074-.1.167-.237.313-.411a2.3,2.3,0,0,1,.424-.458.929.929,0,0,0,.281-.33,1.936,1.936,0,0,1,.808-.853c.1-.047.217-.259.317-.382.248-.3.322-.391.549-.411h0a.957.957,0,0,1,.793.487.969.969,0,0,0,.121.141l.348.252c.237.17.355.257.52.388.083.069.15.13.217.19a2.621,2.621,0,0,0,.578.431,1.047,1.047,0,0,1,.275.268.98.98,0,0,0,.482.362,2.109,2.109,0,0,1,.623.489,1.815,1.815,0,0,0,.56.429,1.612,1.612,0,0,1,.549.322,1.028,1.028,0,0,1-.045.735,2.23,2.23,0,0,1-2.271,1.192l-.275-.069c-.1-.027-.451-.118-.6-.161a4.094,4.094,0,0,0-1.074-.136,1.861,1.861,0,0,1-.755-.183c-.239-.1-.362-.15-.531-.063a2.692,2.692,0,0,1-1.44.06,1.777,1.777,0,0,0-.779.025.95.95,0,0,1-.522.011,4.682,4.682,0,0,0-2.391.089l-.058.011a5.614,5.614,0,0,1-1.989.051c-.174-.018-.344-.038-.516-.047a14.354,14.354,0,0,0-2.425.045,8.135,8.135,0,0,1-.974.011c-.154,0-.324-.011-.552-.011-.96,0-1.094.384-1.1.721.009.067.011.152.016.25.018.386.047,1.034.438,1.244a4.093,4.093,0,0,1,1.23,1.038,2.272,2.272,0,0,0,.748.592c.087.049.174.1.261.152l.025.018a3.161,3.161,0,0,0,.6.42,5.47,5.47,0,0,1,.476.3c.132.078.255.159.373.234a4.316,4.316,0,0,0,.775.429l1.246.645c.159.085.293.165.418.239a2.007,2.007,0,0,0,.971.38h0a2.291,2.291,0,0,1,.8.3,3.448,3.448,0,0,0,.723.3,3.9,3.9,0,0,1,.723.252,3.7,3.7,0,0,0,.735.25,4.834,4.834,0,0,1,.784.252,2.116,2.116,0,0,0,.728.2l.88.047c.467-.058,1.168.292,1.811.174a3.4,3.4,0,0,1,.907-.058c.161.013.556-.056.7-.058a2.712,2.712,0,0,1,1.315.234c.692.319.7.284.9.9l.161.3a2.857,2.857,0,0,0,0,.366c.069.389-.152.406-.391.848a2.205,2.205,0,0,1-.824.8l-.5.322a6.39,6.39,0,0,0-1,.551,2.039,2.039,0,0,0-.391.366,1.557,1.557,0,0,1-.478.409c-.295.185-.715-.018-1.087-.2a1.707,1.707,0,0,0-.5-.19,2.3,2.3,0,0,1-1.038-.237,3.868,3.868,0,0,0-.471-.183c-.243-.08-.413-.118-.563-.154a2.88,2.88,0,0,1-.931-.362l-.016-.009a4.456,4.456,0,0,0-1.065-.391c-.123-.033-.228-.063-.3-.087a4.806,4.806,0,0,1-1.416-.663,1.888,1.888,0,0,0-.779-.4,2.78,2.78,0,0,1-.565-.223,5.537,5.537,0,0,1-.471-.3,4.836,4.836,0,0,0-.781-.464,8.039,8.039,0,0,1-1.369-.848l-.022-.02a2.694,2.694,0,0,0-.927-.692l-.163-.089a2.9,2.9,0,0,1-1.1-.956l-.018-.022a2.006,2.006,0,0,0-.9-.831,1.363,1.363,0,0,1-.757-.723,1.818,1.818,0,0,0-.223-.322l-.013-.016-.878-1.107c-.353-.556-.594-.739-.735-.795a1.137,1.137,0,0,1-.413-.306.883.883,0,0,0-.442-.284c-.27-.083-.643-.2-.761-.13-.011,0-.038.02-.058.1a1.6,1.6,0,0,1-.357.764,1.372,1.372,0,0,0-.2.313,1.456,1.456,0,0,0-.085.324.749.749,0,0,1-.442.621,1.739,1.739,0,0,0-.739.971,1.7,1.7,0,0,1-.109.243l-.011.018c-.141.181-.257.339-.359.48a3.978,3.978,0,0,1-.581.688,5.154,5.154,0,0,0-.951.893l-.074.087a2.78,2.78,0,0,1-.715.61,3.816,3.816,0,0,0-.485.362l-.02.016-1.275.864a8.816,8.816,0,0,1-1.632.976l-.083.034a4,4,0,0,0-1.391.735,3.492,3.492,0,0,1-1.831.788,4.512,4.512,0,0,0-.989.373,3.551,3.551,0,0,1-.639.261c-.313.083-.654.21-.956.322a4.876,4.876,0,0,1-.891.275c-.071.011-.147.022-.223.031-.547.074-.7-.029-1.11.266l-.016.011a2.228,2.228,0,0,1-1.413.268,1.65,1.65,0,0,0-.447.074,4.063,4.063,0,0,1-.806.047c-.1.007-.194.009-.286.009" transform="translate(28.225 157.645)" fill="#fff"/>
        <path id="Path_442" data-name="Path 442" d="M64.762,162.149a4.76,4.76,0,0,1-1-.06c-.127-.036-.788-.13-.907-.152a1.1,1.1,0,0,1-.938-.875c-.085-.5.473-.641.817-.813a5.9,5.9,0,0,1,1.833-.587,4.1,4.1,0,0,0,.786-.165c.333-.13.665-.386.913-.357a2.432,2.432,0,0,0,1.159-.429l.031-.02.038,0a3.076,3.076,0,0,0,.913-.324,1.743,1.743,0,0,1,.449-.176,2.863,2.863,0,0,0,.507-.217,3.842,3.842,0,0,1,.654-.279,2.5,2.5,0,0,0,.531-.243,6.28,6.28,0,0,1,.915-.435,1.315,1.315,0,0,0,.48-.322,2.264,2.264,0,0,1,.632-.442,5.078,5.078,0,0,0,.552-.424,4.526,4.526,0,0,1,.581-.435c.092-.067.188-.154.288-.243a3.442,3.442,0,0,1,.819-.585,2.384,2.384,0,0,0,.884-.936,1.563,1.563,0,0,1,.362-.382,1.158,1.158,0,0,0,.48-.647,1.335,1.335,0,0,1,.377-.634,1.306,1.306,0,0,0,.355-.565,1.976,1.976,0,0,1,.234-.534,4.454,4.454,0,0,0,.36-.795c.036-.136.06-.292.085-.444a1.638,1.638,0,0,1,.413-1.04,1.841,1.841,0,0,0,.2-1c0-.125.009-.257.02-.393.02-.257.031-.545.042-.824.013-.308.025-.6.049-.822a3.381,3.381,0,0,0-.1-1.119,4.5,4.5,0,0,1-.125-.911,4.648,4.648,0,0,0-.447-1.458c-.063-.147-.123-.29-.174-.422-.047-.08-.1-.156-.145-.23a1.661,1.661,0,0,1-.324-.737A1.128,1.128,0,0,0,77,140c-.04-.045-.083-.089-.125-.141a.956.956,0,0,1-.259-.406.644.644,0,0,0-.295-.384,2.5,2.5,0,0,1-.79-.831,5.776,5.776,0,0,0-.565-.5c-.165-.136-.342-.284-.5-.422a5.71,5.71,0,0,0-.6-.4,2.666,2.666,0,0,1-.65-.482,3.2,3.2,0,0,0-.79-.433c-.159-.072-.31-.138-.424-.2l-1.384-.556a3.713,3.713,0,0,0-1.085-.366l-.275-.067a6.062,6.062,0,0,0-1.447-.268,3.816,3.816,0,0,1-.976-.089c-.188-.031-.391-.065-.607-.094a3.9,3.9,0,0,0-1.585-.047.569.569,0,0,0-.4.527,2.217,2.217,0,0,0,.723,1.13,2.668,2.668,0,0,1,.509,1.675,2.83,2.83,0,0,1-.375,1.288,5.308,5.308,0,0,0-.272.634c-.118.306-.284.652-.444.985a9.03,9.03,0,0,0-.375.837c-.116.3-.261.619-.4.922s-.281.61-.371.857a5.77,5.77,0,0,1-.48,1.032,5.584,5.584,0,0,0-.339.694,7.3,7.3,0,0,1-.554,1.183c-.1.176-.192.344-.272.518l-.083.181a16.319,16.319,0,0,1-.746,1.476c-.176.308-.308.563-.438.808s-.261.5-.426.784c-.063.114-.159.27-.261.442a6.763,6.763,0,0,0-.583,1.092,5.731,5.731,0,0,1-1,1.59,7.993,7.993,0,0,0-1.072,1.561,1.636,1.636,0,0,1-.368.455.826.826,0,0,0-.255.33,1.078,1.078,0,0,1-.42.529.754.754,0,0,0-.268.3,1.386,1.386,0,0,1-.79.746.681.681,0,0,0-.069.034,2.722,2.722,0,0,0-.9.634,1.922,1.922,0,0,1-1.342.382c-.2.011-.384.022-.547.047a3.235,3.235,0,0,1-1.983-.614,3.292,3.292,0,0,1-.645-.478c-.056-.051-.121-.107-.2-.176a3.484,3.484,0,0,1-.286-.328,1.871,1.871,0,0,0-.384-.393,1.625,1.625,0,0,1-.652-.893l-.449-.853a9.318,9.318,0,0,1-.744-1.9,8.544,8.544,0,0,1-.415-2c-.016-.217-.022-.449-.027-.672a7.114,7.114,0,0,0-.107-1.306l0-.022a6.076,6.076,0,0,1,.143-1.887,3.94,3.94,0,0,0,.208-1.029,7.349,7.349,0,0,1,.107-.732c.013-.056.027-.118.04-.185a4.56,4.56,0,0,1,.534-1.563,5.128,5.128,0,0,0,.335-.775,3.593,3.593,0,0,1,.351-.775l.9-1.449a10.865,10.865,0,0,1,1.065-1.344,4.488,4.488,0,0,1,.389-.38,3.674,3.674,0,0,0,.73-.824,2.621,2.621,0,0,1,.795-.744,5.654,5.654,0,0,0,.558-.435,5.5,5.5,0,0,1,1.23-.9c.069-.04.138-.083.21-.123l.17-.109a11.649,11.649,0,0,1,1.351-.766l1.588-.773a5.912,5.912,0,0,1,1.737-.607,2.565,2.565,0,0,0,.549-.208,2.216,2.216,0,0,1,1.13-.295,2.121,2.121,0,0,0,.757-.132,4.008,4.008,0,0,1,.9-.188,5.416,5.416,0,0,0,.71-.114,3.863,3.863,0,0,1,1.09-.114l.027,0a3.452,3.452,0,0,0,1.384-.049c.092-.016.185-.031.279-.045a2.636,2.636,0,0,1,1.648.06,4.732,4.732,0,0,0,1.476.165,2.913,2.913,0,0,1,1.657.357,2.732,2.732,0,0,0,.938.248,4.146,4.146,0,0,1,.46.085,5.093,5.093,0,0,1,.915.308,3.149,3.149,0,0,0,.531.19,2.941,2.941,0,0,1,1.025.438,2.236,2.236,0,0,0,.4.2c.045.016.076.029.116.042a3.833,3.833,0,0,1,1.275.726,3.336,3.336,0,0,0,.6.406,4.294,4.294,0,0,1,.621.406c.078.065.181.138.29.217a4.193,4.193,0,0,1,.878.768l.025.029a4.314,4.314,0,0,0,.985.982,4.216,4.216,0,0,1,.848,1.061c.04.065.078.123.109.17a10.414,10.414,0,0,1,.784,1.3,4.324,4.324,0,0,1,.266.605c.092.232.192.493.326.761a6.938,6.938,0,0,1,.518,1.5c.033.2.071.4.109.6.069.359.134.7.165,1a5.9,5.9,0,0,1,.067.989c0,.23.007.469.025.661v.025c-.022.46-.054.84-.08,1.174-.031.368-.056.656-.056.913a3.723,3.723,0,0,1-.234,1.166,2.72,2.72,0,0,0-.174.793,3.073,3.073,0,0,1-.482,1.413,4.239,4.239,0,0,0-.214.429,5.177,5.177,0,0,1-.951,1.744,4.759,4.759,0,0,0-1.061,1.422l-.1.192a1.1,1.1,0,0,1-.672.656.867.867,0,0,0-.375.339c-.06.08-.136.181-.237.295a1.866,1.866,0,0,1-.77.65l-.058.029a2.629,2.629,0,0,0-.773.56,2.069,2.069,0,0,1-1.058.641,1,1,0,0,0-.429.25,1.891,1.891,0,0,1-.337.234l-.094.058a4.606,4.606,0,0,1-1.371.688,2.7,2.7,0,0,0-1.152.424,2.488,2.488,0,0,1-.779.348,2,2,0,0,0-.507.205,6.5,6.5,0,0,1-1.465.614,2.235,2.235,0,0,0-.815.232l-.456.13c-.188.047-.353.094-.514.138a5.482,5.482,0,0,1-.766.125c-.085.016-.277-.007-.393,0a1.571,1.571,0,0,0-.719.132,1.709,1.709,0,0,1-.6.033m-4.414-26.942a2.9,2.9,0,0,0-.38.031,2.755,2.755,0,0,1-.366.031,3.225,3.225,0,0,0-1.27.3c-.141.056-.275.109-.409.15a1.333,1.333,0,0,0-.411.208,1.8,1.8,0,0,1-.645.295,2.144,2.144,0,0,0-1.014.6l-.049.045a3.1,3.1,0,0,1-.572.386c-.125.069-.266.15-.453.268a5.237,5.237,0,0,0-.924.706c-.143.127-.275.228-.391.319a1.455,1.455,0,0,0-.482.489,2.53,2.53,0,0,1-.569.681c-.074.071-.154.152-.243.241-.583.583-.67.766-.679.819a.879.879,0,0,1-.234.38,2.052,2.052,0,0,0-.413.652,3.362,3.362,0,0,1-.3.632,4.729,4.729,0,0,0-.246.469,4.627,4.627,0,0,0-.2.509,2.61,2.61,0,0,1-.27.605,2.1,2.1,0,0,0-.293,1.058l-.275,2.329A4.358,4.358,0,0,0,49.371,149l.025.13a18.52,18.52,0,0,0,.5,2.166,7.619,7.619,0,0,0,.886,1.818c.386.558.688.813,1.266.659l.029,0a2.6,2.6,0,0,0,2.135-1.152c.069-.085.138-.167.205-.246a4.972,4.972,0,0,0,.668-.889,2.425,2.425,0,0,1,.266-.322,3.18,3.18,0,0,0,.415-.54l.018-.025a2.412,2.412,0,0,0,.288-.476,1.925,1.925,0,0,1,.3-.48,4.325,4.325,0,0,0,.569-.92,3.67,3.67,0,0,1,.228-.357,1.227,1.227,0,0,0,.257-.554,5.344,5.344,0,0,1,.574-1.02l.013-.018a2.038,2.038,0,0,0,.418-.929,2.1,2.1,0,0,1,.3-.6,1.366,1.366,0,0,0,.2-.393,2,2,0,0,1,.319-.679,3.5,3.5,0,0,0,.413-.84l.009-.02.679-1.585c.033-.112.067-.223.1-.333a4.857,4.857,0,0,1,.511-1.3,2.25,2.25,0,0,0,.167-.587,2.168,2.168,0,0,1,.4-1.025.8.8,0,0,0,.152-.692c-.007-.08-.016-.161-.016-.237,0-.025,0-.076.011-.145.1-1.107-.054-1.771-.458-1.974a1.857,1.857,0,0,0-.86-.226" transform="translate(56.848 162.394)" fill="#fff"/>
        <path id="Path_443" data-name="Path 443" d="M67.485,166.977a1.913,1.913,0,0,1-.509-.058l-.018,0a5.253,5.253,0,0,0-1.163-.17,1.119,1.119,0,0,1-1.179-1.217c-.04-.422.33-.831,1.1-1.217l.025-.009a5.134,5.134,0,0,1,2.425-.156l.107.011,1.637.176a13.986,13.986,0,0,0,1.684.107,4.926,4.926,0,0,1,.77,0,.994.994,0,0,0,.893-.456,3.462,3.462,0,0,1,.375-.5,1.647,1.647,0,0,0,.485-1.228c.011-.17.025-.359.06-.581v-1.67c0-.165.011-.33.02-.507a5.633,5.633,0,0,0-.016-1.143,2.894,2.894,0,0,1-.018-.8,6.373,6.373,0,0,0,.016-.862,12.5,12.5,0,0,1-.009-1.284c0-.138.007-.263.007-.368,0-.085-.007-.188-.013-.308a6.473,6.473,0,0,1,.016-1.306l0-.02a2.955,2.955,0,0,0,.036-1.248c-.016-.109-.031-.219-.04-.333a8.248,8.248,0,0,1-.011-1.063c0-.205.009-.411.009-.592V148.58a5.49,5.49,0,0,0-.042-.619,2.284,2.284,0,0,1,.051-1.076,1.732,1.732,0,0,0,.018-.8,2.42,2.42,0,0,1-.025-.766,9.183,9.183,0,0,0,.009-1.016c0-.181-.011-.373-.011-.6V138.88c0-.2-.009-.382-.02-.556a4.261,4.261,0,0,1,.022-1.02,2.652,2.652,0,0,0,0-1.44,2.825,2.825,0,0,1-.033-1.7.868.868,0,0,0-.058-.485,1.2,1.2,0,0,1,.083-1.148c.5-.647,1.326-.333,1.876-.125a1.974,1.974,0,0,0,.493.15l.022,0a2.519,2.519,0,0,1,1,.371,2.19,2.19,0,0,0,.616.27,3.472,3.472,0,0,0,1.235-.156,4.127,4.127,0,0,1,1.105-.167,4.872,4.872,0,0,0,1.114-.219,2.059,2.059,0,0,1,1.311-.176.829.829,0,0,0,.822-.116c.071-.038.145-.08.221-.112a2.268,2.268,0,0,1,1.311-.232,2.6,2.6,0,0,0,1.016-.226,6.394,6.394,0,0,1,1.23-.284c.174-.029.322-.045.451-.058a1.6,1.6,0,0,0,.627-.152,2.513,2.513,0,0,1,.708-.183,3.213,3.213,0,0,0,.5-.1c.192-.051.351-.1.489-.15A3.331,3.331,0,0,1,91,130.69c.116-.022.23-.04.333-.056a2.2,2.2,0,0,0,.748-.2,2.374,2.374,0,0,1,.878-.263,3.1,3.1,0,0,0,.337-.067l.02,0a3.18,3.18,0,0,0,.652-.19,1.542,1.542,0,0,1,.516-.132,2.09,2.09,0,0,0,.752-.2c.1-.042.217-.092.366-.15a1.16,1.16,0,0,0,.409-.261.637.637,0,0,1,.947-.078,1.711,1.711,0,0,1,.165.145,1.565,1.565,0,0,0,.567.377,3.507,3.507,0,0,1,1.255.869l.147.152a4.614,4.614,0,0,0,.862.728.933.933,0,0,1,.536,1.014c0,.605-.659.715-1.239.813a3.358,3.358,0,0,1-1.047-.065,3.207,3.207,0,0,0-.744-.069c-.143.013-.27.016-.382.016a1.5,1.5,0,0,0-.739.147,1.384,1.384,0,0,1-.982.217c-.087-.007-.176-.016-.281-.016a1.535,1.535,0,0,0-.4.069,2.867,2.867,0,0,1-.784.114,2.941,2.941,0,0,0-.764.116,1.255,1.255,0,0,1-.5.063,1.437,1.437,0,0,0-.645.058,2.145,2.145,0,0,1-.5.08,3.036,3.036,0,0,0-1.13.118l-.056.013a6.23,6.23,0,0,1-1.217.143,7.067,7.067,0,0,0-1.2.132,5.264,5.264,0,0,1-1.623.192,7.643,7.643,0,0,0-.808.038l-.3.056a7.579,7.579,0,0,1-2.2.174,6.687,6.687,0,0,0-1.369.089c-.085.011-.2.029-.324.049a3.316,3.316,0,0,1-1.268.076c-.29-.087-.469.074-.764.364a2.9,2.9,0,0,1-.389.346,1.539,1.539,0,0,0-.7,1.241,5.486,5.486,0,0,0-.065.837c0,.183-.007.375-.025.612-.013.1-.034.223-.056.359a3.778,3.778,0,0,0-.089,1.027,5.537,5.537,0,0,1-.047,2.53c-.051.179.384.837.795,1.112.17.1.322.208.453.3a1.262,1.262,0,0,0,1.1.355c.071-.009.136-.02.205-.031a3.008,3.008,0,0,1,1.38.036l.016,0a1.044,1.044,0,0,0,.6,0,1.984,1.984,0,0,1,.833-.011l.176.036a1.841,1.841,0,0,0,1.181-.031l.025-.007a1.292,1.292,0,0,1,.572.031,1.407,1.407,0,0,0,.822-.027l.029-.007a2.8,2.8,0,0,1,.793,0,2.088,2.088,0,0,0,.614,0,5.049,5.049,0,0,1,.835-.013c.31.009.654,0,1.014.029a4.454,4.454,0,0,0,1.025-.018,7.163,7.163,0,0,1,.942-.011c.15,0,.3.011.493.011h.025a3.707,3.707,0,0,0,.918.02c.145-.011.292-.02.469-.02a2.627,2.627,0,0,1,.3.022,3.438,3.438,0,0,0,1.125-.02,2.562,2.562,0,0,1,1.494,0,2.512,2.512,0,0,0,1.2.016l.138-.02a6.978,6.978,0,0,1,1.407,0c.192.013.375.04.538.063.31.045.581.085.681-.007.121-.147.223-.261.377-.431l.3-.339a1.271,1.271,0,0,1,.248-.219.947.947,0,0,0,.4-.5,1.072,1.072,0,0,1,.549-.634,1.223,1.223,0,0,0,.221-.161,2.928,2.928,0,0,0,.357-.453c.145-.214.281-.42.531-.368a1.981,1.981,0,0,1,1.083.748c.087.1.179.2.284.3a2.77,2.77,0,0,0,.335.259,1.844,1.844,0,0,1,.607.563,1.55,1.55,0,0,0,.815.686,2.079,2.079,0,0,1,1.217.833c.049.056.1.107.145.152.266.27.351.44.047.918l-.016.022c-.152.174-.288.342-.413.5-.4.487-.534.755-.873.8-.138.02-.536.261-.674.288-.5.1-.735-.145-1.409-.319a4.147,4.147,0,0,0-1.728-.337,2.013,2.013,0,0,1-.945-.205,1.106,1.106,0,0,0-.786-.121,5.339,5.339,0,0,1-1.454.065c-.156-.007-.3-.013-.415-.013-.453,0-.739.013-1.016.025-.246.011-.48.02-.8.02a5.767,5.767,0,0,0-1.639.223l-.022,0c-.706.094-.891.138-.945.328l-.085.322a4.952,4.952,0,0,0-.228,1.268v1.5a11.315,11.315,0,0,0-.007,1.228c0,.118.007.214.007.275.029.413.02.9.011,1.407-.007.268-.011.543-.011.824l0,.029a6.4,6.4,0,0,0-.018,1.445,5.573,5.573,0,0,1,.02.773c0,.357-.013.681-.025.967a6.527,6.527,0,0,0,.022,1.221,11.439,11.439,0,0,1,.009,2.135l-.013.268a12.434,12.434,0,0,0,0,2.2,2.14,2.14,0,0,0,1,1.145,3.178,3.178,0,0,0,1.047.485,1.628,1.628,0,0,1,.277.109.86.86,0,0,0,.692.071,3.87,3.87,0,0,1,1.369.033,7,7,0,0,1,.811,0,2.675,2.675,0,0,0,1.583-.286l.556-.5a2.084,2.084,0,0,1,.308-.355,5.022,5.022,0,0,0,.42-.464,5.412,5.412,0,0,1,.453-.453,3.106,3.106,0,0,0,.322-.322c.022-.029.054-.083.092-.143.17-.277.426-.694.8-.741.6-.112.922.326,1.186.677a2.442,2.442,0,0,0,.359.409,6.411,6.411,0,0,1,.489.418c.145.136.3.275.511.447l1.1.869a2.85,2.85,0,0,0,.6.377.994.994,0,0,1,.491.4.632.632,0,0,0,.089.118c.3.286.371.462.092.927-.228.366-.538.86-.9.98a1.848,1.848,0,0,1-1.4-.04c-.2-.054-.552-.062-.728-.121a5.891,5.891,0,0,0-.844-.234c-.333-.078-.54-.109-.741-.141-.154-.025-.3-.047-.48-.087a13.353,13.353,0,0,0-1.5.047c-.344.025-.668.047-.929.047-.335,0-.737.011-1.166.022s-.875.022-1.248.022c-.426,0-.875.013-1.308.025-.4.011-.777.022-1.105.022-.4,0-.744.009-1.114.02s-.784.025-1.253.025c-.313,0-.594.025-.866.049a6.482,6.482,0,0,1-1.572,0,8.659,8.659,0,0,0-1.5.009c-.293.02-.569.038-.84.038-.194,0-.413.013-.645.027a7.722,7.722,0,0,1-1.708-.029,5.71,5.71,0,0,0-1.15.013,9.559,9.559,0,0,1-1.2.033,12.971,12.971,0,0,0-2.286,0,4.266,4.266,0,0,1-1.556.045,4.9,4.9,0,0,0-.828-.042c-.4.02-.779,0-1.143-.011a6.719,6.719,0,0,0-1.166.009,5.124,5.124,0,0,1-2.387,0,3.427,3.427,0,0,0-1.166-.02,5.075,5.075,0,0,1-1.09.022,12.985,12.985,0,0,0-2.286,0c-.123.009-.257.016-.4.022a6.684,6.684,0,0,0-1.916.284l-.018.007a3.177,3.177,0,0,1-.817.1M84.4,164.42c.17,0,.33.011.487.02a4.5,4.5,0,0,0,.962-.009,11.844,11.844,0,0,1,1.219-.011c.181,0,.357.009.534.009a6.085,6.085,0,0,0,1.643-.6c.089-.04.17-.078.241-.112a1.459,1.459,0,0,0,.945-1.2c.031-.578.018-1.266.009-1.82-.007-.241-.009-.46-.009-.639a20.138,20.138,0,0,1,0-2.38,20.516,20.516,0,0,0,0-2.345c0-.232.009-.462.018-.708a11.435,11.435,0,0,0-.018-1.652v-.02c0-.317-.007-.6-.011-.871-.011-.5-.02-.967.011-1.507a8.416,8.416,0,0,0-.033-1.023,4.476,4.476,0,0,1,.04-1.474c.1-.485-.275-.795-.96-1.161-.074-.036-.159-.078-.248-.125a4,4,0,0,0-1.592-.585,7.433,7.433,0,0,1-1.782,0c-.547-.031-1.029-.018-1.38-.007-.132,0-.246.007-.333.007s-.214.009-.364.016a7.111,7.111,0,0,1-1.4-.018,1.773,1.773,0,0,0-.708.022,1.971,1.971,0,0,1-1.04-.027,2.34,2.34,0,0,0-1.7.6c-.056.04-.109.076-.156.107-.654.453-.956.846-.924,1.2a6.45,6.45,0,0,1,0,1.161,8.336,8.336,0,0,0,0,1.293,4.808,4.808,0,0,1-.022,1.038,4.367,4.367,0,0,0,.02,1.315l0,.025c.031.529.02,1.092.011,1.637,0,.257-.011.507-.011.741,0,.322-.011.6-.02.871a9.414,9.414,0,0,0,.02,1.478,9.418,9.418,0,0,1,.022,1.5c-.009.272-.022.554-.022.891.031.627.022,1.119.011,1.639,0,.259-.009.522-.011.811a1.43,1.43,0,0,0,.9,1.212l.025.013a4.543,4.543,0,0,0,1.909.7c.071,0,.183,0,.322.007.384.011.965.027,1.393-.007a5.162,5.162,0,0,1,1.047-.009,4.679,4.679,0,0,0,.683.011c.094-.009.185-.011.272-.011" transform="translate(79.658 158.924)" fill="#fff"/>
        <path id="Path_444" data-name="Path 444" d="M97.959,164.185c-.058,0-.623.065-.677.051-.73-.078-.938-.415-.938-.936a2.055,2.055,0,0,1,1.112-1.512,5.536,5.536,0,0,0,.71-.572c.152-.134.478-.388.6-.469.1-.067.205-.239.339-.364a5.453,5.453,0,0,1,.781-.625c.257-.172.223-.326.73-.788a9.691,9.691,0,0,1,1.063-.969,1.789,1.789,0,0,0,.422-.435,1.786,1.786,0,0,1,.558-.534,1.768,1.768,0,0,0,.4-.429,4.218,4.218,0,0,1,.52-.594,4.353,4.353,0,0,0,.69-.848l.143-.208a2.321,2.321,0,0,1,.7-.831.481.481,0,0,0,.237-.353.708.708,0,0,1,.313-.469,1.315,1.315,0,0,0,.507-.7,1.129,1.129,0,0,1,.306-.605,3.467,3.467,0,0,0,.261-.317,1.923,1.923,0,0,1,.268-.411,1.211,1.211,0,0,0,.217-.373,1.391,1.391,0,0,1,.563-.913l.04-.033a2.553,2.553,0,0,0,.44-.842,4.344,4.344,0,0,1,.44-.9,4.545,4.545,0,0,0,.592-1.161,5.459,5.459,0,0,1,.261-.6,12.575,12.575,0,0,0,.764-1.8c.067-.185.152-.393.241-.614.161-.391.342-.833.485-1.291.06-.167.1-.357.154-.556a5.112,5.112,0,0,1,.5-1.391,7.682,7.682,0,0,0,.48-1.672,4.741,4.741,0,0,1,.237-.748,3.157,3.157,0,0,0,.261-.953l0-.022a5.585,5.585,0,0,0-.4-1.6,2.526,2.526,0,0,0-1.052-1.072,1.69,1.69,0,0,0-.3,0,2.849,2.849,0,0,1-1.02-.092c-.355-.04-1.067,0-1.358-.045a11.417,11.417,0,0,0-2.132.092,19.057,19.057,0,0,1-2.211.138c-.141,0-.277,0-.409,0a4.278,4.278,0,0,0-1.224.089l-.174.04a3.364,3.364,0,0,1-1.737.054,2.276,2.276,0,0,0-.893.047,19.72,19.72,0,0,1-2.141.094,3.94,3.94,0,0,0-2.085.431,1.511,1.511,0,0,0-.641,1.291l.045,1.326a11.142,11.142,0,0,0,.089,1.7,5.471,5.471,0,0,1,.143,1.565c0,.085,0,.167,0,.248a6.728,6.728,0,0,0,.071.864,5.185,5.185,0,0,1,.063,1.061l0,.029a2.983,2.983,0,0,0,.02,1.239,4.184,4.184,0,0,1,.076.679,3.67,3.67,0,0,1-.382,1.621,1.156,1.156,0,0,1-1.306.6A4.651,4.651,0,0,1,92.2,147c-.351-.219-.531-.974-.531-2.242,0-.295-.02-.619-.04-.933a5.975,5.975,0,0,1,0-1.286,2.368,2.368,0,0,0-.058-.527,4.347,4.347,0,0,1-.08-1.279,9.245,9.245,0,0,0-.071-1.373c-.025-.263-.051-.536-.067-.781-.013-.217-.022-.406-.031-.587-.022-.429-.04-.8-.1-1.4a3.835,3.835,0,0,1-.089-.9,4.865,4.865,0,0,0-.047-.7,5.279,5.279,0,0,0-.261-1.279,1.518,1.518,0,0,0-.462-.31,5.133,5.133,0,0,1-.893-.6,5.545,5.545,0,0,1-.534-.54c-.359-.438-.639-.715-.556-1a.887.887,0,0,1,.442-.587,2.951,2.951,0,0,1,1.755-.051c.411.087.9.121,1.177.17.3.056.558.1.869.172a3.689,3.689,0,0,1,1.174.616,3.871,3.871,0,0,0,.413.263,1.79,1.79,0,0,1,.6.467,1.324,1.324,0,0,0,.511.389,1.628,1.628,0,0,0,.485.013,1.942,1.942,0,0,1,.605.029,2.908,2.908,0,0,0,.815-.029,7.873,7.873,0,0,1,.913-.067c.143,0,1.545-.02,1.86-.04.368-.025.75-.051.976-.051.141,0,.272.011.4.02a3.032,3.032,0,0,0,1.237-.1,4.916,4.916,0,0,1,1.081-.067,3.33,3.33,0,0,0,.668-.027l.029,0c.214,0,1.166-.045,1.527-.092.185-.013.359-.036.525-.058a3.576,3.576,0,0,1,1.121-.031,3.03,3.03,0,0,0,.994-.025,3.107,3.107,0,0,1,1.058-.02l.027.007a4.337,4.337,0,0,0,1.945-.141l1.134-.317a.866.866,0,0,0,.368-.234,1.323,1.323,0,0,1,.639-.36l.02,0a1.358,1.358,0,0,0,.284-.1,2,2,0,0,1,1.771-.027l.038.025.429.344a8.663,8.663,0,0,1,2.3,1.842,1.878,1.878,0,0,0,.248.33.8.8,0,0,1,.275.757,1.153,1.153,0,0,1-.835,1.083c-.476.19-.752.346-.857.625a3.319,3.319,0,0,1-.27.556,1.881,1.881,0,0,0-.266.643,6.6,6.6,0,0,1-.377,1.27,9.186,9.186,0,0,0-.538,1.545c-.045.165-.089.324-.136.476a5.641,5.641,0,0,1-.786,2.085,4.789,4.789,0,0,0-.2.587,1.28,1.28,0,0,1-.183.44,1.089,1.089,0,0,0-.116.348c-.065.279-.138.594-.411.71-.1.049-.1.083-.118.252a1.536,1.536,0,0,1-.208.677,4,4,0,0,1-.261.447.8.8,0,0,0-.172.44,1.68,1.68,0,0,1-.442,1.032l-.051.063a1.566,1.566,0,0,0-.366.654.936.936,0,0,1-.132.3,1.086,1.086,0,0,0-.145.337,1.225,1.225,0,0,1-.38.645,1.172,1.172,0,0,0-.239.447,2.017,2.017,0,0,1-.234.48l-.121.152a1.639,1.639,0,0,0-.4.7,1.1,1.1,0,0,1-.384.6.451.451,0,0,0-.2.326.883.883,0,0,1-.335.6.964.964,0,0,0-.268.353,1.471,1.471,0,0,1-.33.54,3.685,3.685,0,0,0-.281.364,6.056,6.056,0,0,1-.455.569,1.9,1.9,0,0,0-.217.277,2.185,2.185,0,0,1-.355.482,2.689,2.689,0,0,0-.328.429,2.606,2.606,0,0,1-.726.875,6.526,6.526,0,0,0-.453.5c-.071.085-.152.181-.257.3a3.423,3.423,0,0,1-.817.855,1.721,1.721,0,0,0-.654.688,1.678,1.678,0,0,1-.6.648,1.1,1.1,0,0,0-.2.167,2.547,2.547,0,0,1-.574.6,2.575,2.575,0,0,0-.217.19,4.877,4.877,0,0,1-.592.516,2.354,2.354,0,0,0-.493.5,5.1,5.1,0,0,1-.833.755c-.1.076-.364.246-.418.286a2.649,2.649,0,0,1-.7.5c-.15.076-.6.3-.806.418a6.169,6.169,0,0,1-1.38.572" transform="translate(108.931 160.921)" fill="#fff"/>
        <path id="Path_445" data-name="Path 445" d="M124.543,166.87a1.457,1.457,0,0,1-.268-.025h-.016a2.359,2.359,0,0,1-1.248-.444,1.4,1.4,0,0,1-.708-1.188c-.025-.259-.042-.522-.06-.775a6.725,6.725,0,0,0-.2-1.492,3.608,3.608,0,0,1,.134-1.693,14.289,14.289,0,0,0,.268-2.244,4.751,4.751,0,0,0-.04-.773,3.476,3.476,0,0,1,.049-1.458,2.745,2.745,0,0,0,.049-.936c-.007-.132-.013-.259-.013-.375a7.931,7.931,0,0,1,.047-1.148,4.068,4.068,0,0,0,0-1.141,3.568,3.568,0,0,1,.02-1.239,2.886,2.886,0,0,0-.013-1.286,3.172,3.172,0,0,1,.042-1.655,3.916,3.916,0,0,0,0-2.188.708.708,0,0,0-.723-.5,2.692,2.692,0,0,0-1.663.585,2.934,2.934,0,0,1-1.509,1.1,1.09,1.09,0,0,0-.636.371,1.541,1.541,0,0,1-.458.344,2.179,2.179,0,0,0-.67.442,3.17,3.17,0,0,1-.4.317c-.04.031-.1.078-.183.134-.212.15-.531.377-.9.677-.107.1-.2.181-.277.255a4.363,4.363,0,0,1-.788.623c-.2.143-.364.279-.514.4a4.759,4.759,0,0,1-.585.426,2.94,2.94,0,0,0-.654.485c-.109.1-.221.2-.373.322-.1.074-.214.145-.328.221a6.922,6.922,0,0,0-.8.589,2.751,2.751,0,0,1-.462.3,2.074,2.074,0,0,0-.654.493,1.613,1.613,0,0,1-.737.534,1.165,1.165,0,0,0-.371.212,1.772,1.772,0,0,1-.455.313c-.234.132-.4.337-.61.453a4.054,4.054,0,0,1-1.065.473,2.79,2.79,0,0,0-.435.138l-.355.138a3.192,3.192,0,0,1-1.853.257.884.884,0,0,1-.77-1.105c.112-.6.922-1.181,1.561-1.5a4.24,4.24,0,0,0,1.449-1.007,1.888,1.888,0,0,1,.487-.324,3.168,3.168,0,0,0,.755-.507,12.869,12.869,0,0,1,1.349-.933,6.237,6.237,0,0,0,.766-.576c.145-.123.281-.237.406-.326a6.314,6.314,0,0,1,.538-.342,2.233,2.233,0,0,0,.7-.534,3.752,3.752,0,0,1,.8-.659c.145-.1.3-.2.458-.328l.018-.011a2.782,2.782,0,0,0,.438-.389,3.381,3.381,0,0,1,.755-.618,2.383,2.383,0,0,0,.625-.52,5.7,5.7,0,0,1,.529-.507,2.724,2.724,0,0,0,.275-.295,3.08,3.08,0,0,1,.853-.777,2.638,2.638,0,0,0,.683-.636,2.607,2.607,0,0,1,.431-.44,4.923,4.923,0,0,0,.634-.641c.132-.154.27-.313.431-.473a5.863,5.863,0,0,1,.462-.464c.21-.2.444-.42.63-.627a3.623,3.623,0,0,1,.33-.284,2.138,2.138,0,0,0,.732-.851,1.434,1.434,0,0,1,.469-.549,2.772,2.772,0,0,0,.549-.574l.016-.02c.138-.152.272-.29.393-.411a2.423,2.423,0,0,0,.574-.717,1.7,1.7,0,0,1,.563-.661,1.378,1.378,0,0,0,.487-.576,2.151,2.151,0,0,1,.61-.766l.194-.192c.094-.121.167-.226.234-.322a3.528,3.528,0,0,1,.6-.7,1.463,1.463,0,0,0,.415-.509,1.977,1.977,0,0,1,.353-.485,1.718,1.718,0,0,0,.2-.3,2.83,2.83,0,0,1,.438-.612.958.958,0,0,0,.315-.531c.051-.154.065-.328.127-.467.06-.17-.083-.389-.145-.469a1.8,1.8,0,0,0-.752-.556c-.96-.342-1.3-.694-1.393-1.228-.038-.232.2-.578.67-.777a2.548,2.548,0,0,1,1.612-.21c.346.042.717.089,1.369.228a2.1,2.1,0,0,1,.817.375,2.1,2.1,0,0,0,.308.183,2.01,2.01,0,0,1,.357.2,4.344,4.344,0,0,0,.518.3,1.841,1.841,0,0,1,.547.4,1.946,1.946,0,0,0,.415.331,1.52,1.52,0,0,1,.391.4,2.2,2.2,0,0,0,.4.426.963.963,0,0,1,.44,1c-.1.632-.212.871-.732,1.132-.087.042-.167.083-.248.121a2.842,2.842,0,0,0-.846.529c-.123.143-.313.335-.511.538a10.128,10.128,0,0,0-.746.808,12.371,12.371,0,0,1-1.246,1.523c-.047.045-.121.112-.21.19a3.491,3.491,0,0,0-.71.755l-.009.018a1.182,1.182,0,0,1-.362.359,1.6,1.6,0,0,0-.587.677l-.013.022a5.344,5.344,0,0,1-.574.645c-.143.145-.277.284-.346.368a1.2,1.2,0,0,0-.266.893.927.927,0,0,0,.368.627,1.7,1.7,0,0,1,.576,1.329,6.136,6.136,0,0,1-.038,1.4.243.243,0,0,0-.009.056l-.045,1.6c0,.125,0,.286.009.451a5.246,5.246,0,0,1-.013.9,3.3,3.3,0,0,0-.034,1.244,3.915,3.915,0,0,1,.038.453,8.577,8.577,0,0,0,0,1.534,3.272,3.272,0,0,1-.02.636,3.37,3.37,0,0,0,.018,1.025,5.2,5.2,0,0,1,.018,1.375,2.828,2.828,0,0,0-.018.444,1.534,1.534,0,0,1,.02.735.946.946,0,0,0-.02.277,4.776,4.776,0,0,1,.025,1.116c-.011.21-.02.429-.02.643v1.681l.045,1.536a1.147,1.147,0,0,0,.049.188.95.95,0,0,1-.065.813,2.312,2.312,0,0,0-.04,1.195c.02.174.042.353.056.54a4.713,4.713,0,0,1-.243,1.9l-.022.049c-.234.509-.5,1.081-1.221,1.081" transform="translate(127.403 159.73)" fill="#fff"/>
        <path id="Path_446" data-name="Path 446" d="M124.321,166.126a3.241,3.241,0,0,1-.491-.112c-.806-.313-.694-.625-.469-.982a2.525,2.525,0,0,1,1.1-.967,1.275,1.275,0,0,1,.489-.348,1.627,1.627,0,0,0,.366-.223,1.885,1.885,0,0,1,.319-.2,4.311,4.311,0,0,0,.556-.353,2.887,2.887,0,0,1,.567-.31c.114-.051.223-.1.3-.147.112-.085.221-.172.33-.261a3.591,3.591,0,0,1,1.4-.811,3.267,3.267,0,0,0,.815-.565,6.456,6.456,0,0,1,.735-.554,3.489,3.489,0,0,0,.837-.706,4.991,4.991,0,0,1,.607-.563,5.336,5.336,0,0,0,1.233-1.3l.054-.071a1.34,1.34,0,0,1,.2-.2.911.911,0,0,0,.353-.485c.054-.38.223-.552.6-.922a3.628,3.628,0,0,0,.864-1.6,1.2,1.2,0,0,1,.272-.549.841.841,0,0,0,.223-.594,1.243,1.243,0,0,1,.223-.723,1.024,1.024,0,0,0,.188-.52,3.048,3.048,0,0,1,.176-.741c.054-.176.112-.357.147-.514s.074-.288.107-.415a3.691,3.691,0,0,0,.161-.766,1.228,1.228,0,0,1,.1-.576,1.717,1.717,0,0,0,.13-.661,3.085,3.085,0,0,1,.2-1.257,2.511,2.511,0,0,0-.009-1.567.547.547,0,0,0-.449-.46l-.232-.038c-.409-.065-.389-.089-.619-.054-.1.013-.226.036-.348.058a2.639,2.639,0,0,1-.815.078,5.416,5.416,0,0,0-1.648.163c-.123.025-.234.047-.335.065-.226.02-.531.071-.853.127a8.962,8.962,0,0,1-1.119.147l-1.947.272c-.125.02-.232.033-.324.047a4.979,4.979,0,0,0-.846.176c-.371.08-.619.156-.817.217a3.157,3.157,0,0,1-.391.1c-.373.089-1.11.183-1.378.264a3.616,3.616,0,0,1-1.2,0c-.529-.112-.587-.438-.9-.652a5.154,5.154,0,0,1-.793-.708c-.071-.076-.132-.145-.183-.21a1.1,1.1,0,0,0-.4-.344l-.022-.013a2.842,2.842,0,0,1-.911-1.074,1.365,1.365,0,0,1,0-1.286.824.824,0,0,1,1.105-.551,2.581,2.581,0,0,1,.911.632,1.591,1.591,0,0,0,.811.393c.087.022.165.042.23.065a1.715,1.715,0,0,1,.192.1,1.211,1.211,0,0,0,.692.208c.217,0,.433-.016.683-.036.33-.025.7-.054,1.188-.054a7.52,7.52,0,0,0,1.027-.074,6.6,6.6,0,0,1,.844-.063c.264,0,1.056-.047,1.34-.092a5.63,5.63,0,0,1,.683-.069,6.194,6.194,0,0,0,.677-.065,1.933,1.933,0,0,1,.7-.034,1.334,1.334,0,0,0,.63-.049l.049-.011a7.127,7.127,0,0,0,.884-.118,3.346,3.346,0,0,1,1.282-.06,1.89,1.89,0,0,0,1.029-.107l.109-.031a2.721,2.721,0,0,0,1.605-.947,1.358,1.358,0,0,0,.223-1.036c0-.17-.009-.344,0-.525a5.109,5.109,0,0,1,.051-1.686,2.74,2.74,0,0,0-.011-.9,6.324,6.324,0,0,1-.038-1.3l0-.018a3.459,3.459,0,0,0,0-1.125,6.524,6.524,0,0,1-.049-.706c0-.092,0-.176,0-.252a1.38,1.38,0,0,0-.2-.969l-.011-.02c-.257-.516-.33-.65-.467-.679l-.022,0a7.213,7.213,0,0,0-1.264-.442c-.5-.1-.757-.277-.869-.654a.732.732,0,0,1,.335-.815,2.462,2.462,0,0,1,1.3-.355c.051,0,.1.007.134.007.25-.033.46-.08.645-.121a1.55,1.55,0,0,1,.788-.054,2.653,2.653,0,0,0,.552.1c.159.02.339.042.56.078a7.932,7.932,0,0,1,1.148.38c.138.056.257.1.337.127l.016.007a5.978,5.978,0,0,1,.848.485c.123.08.252.165.4.255a2.194,2.194,0,0,1,.721,1.13c.176.594-.232.817-.487,1.078a1.464,1.464,0,0,0-.3.386,3.167,3.167,0,0,0-.3,1.154,11.573,11.573,0,0,1-.094,1.355,4.517,4.517,0,0,0-.049.98c0,.1.007.2.007.306a12.118,12.118,0,0,1-.047,2.291c0,.7,0,1.058.275,1.371a1.834,1.834,0,0,0,.735.538,1.569,1.569,0,0,0,1.087.054c.123-.025.237-.047.359-.06.284-.029.418-.04.639-.058.109-.007.243-.018.426-.034a3.327,3.327,0,0,0,.4-.038,4.1,4.1,0,0,1,.945-.051,2.357,2.357,0,0,0,.835-.036,3.173,3.173,0,0,1,.511-.056,3.509,3.509,0,0,0,.683-.085,6.365,6.365,0,0,1,.665-.1,7.111,7.111,0,0,0,1.141-.31l.145-.047a3.783,3.783,0,0,1,1.742-.029l.145.022a1.61,1.61,0,0,1,.719.219,3.475,3.475,0,0,0,.344.154,3.606,3.606,0,0,1,1.342.862l.054.065a1.83,1.83,0,0,1,.632,1.487c-.049.761-.826.974-1.516,1.159a1.849,1.849,0,0,1-1.038-.013,3,3,0,0,0-.5-.069,3.29,3.29,0,0,1-.706-.13,2.149,2.149,0,0,0-.654-.1c-.054,0-.114,0-.179,0a3.36,3.36,0,0,1-1.105-.1,6.242,6.242,0,0,0-1.228-.083,5.141,5.141,0,0,1-.543-.04,1.884,1.884,0,0,0-.639-.013,3.473,3.473,0,0,1-1,.025c-.114-.009-.214-.016-.284-.016a3.2,3.2,0,0,0-.353.029,3.72,3.72,0,0,1-1.074.013,6.729,6.729,0,0,0-1.311,0c-.261.04-.621.5-.9.694l-.027.018A1.65,1.65,0,0,0,141,146.37a5.515,5.515,0,0,1-.2.96,5.132,5.132,0,0,0-.167.788,8.234,8.234,0,0,1-.373,1.728l-.335,1.4a2.925,2.925,0,0,0-.384,1.228l0,.022a2.281,2.281,0,0,1-.226.623,1.907,1.907,0,0,0-.228.674l0,.022a4.275,4.275,0,0,1-.621,1.353,3.045,3.045,0,0,0-.324.618,1.884,1.884,0,0,1-.226.433l-.02.022a1.689,1.689,0,0,0-.431.668c-.036.089-.074.181-.127.288a2.128,2.128,0,0,1-.4.567,2.827,2.827,0,0,0-.29.362l-.016.02a2.544,2.544,0,0,0-.348.485,1.481,1.481,0,0,1-.353.442,1.941,1.941,0,0,0-.246.257,3.728,3.728,0,0,1-.534.525,3.369,3.369,0,0,0-.54.52c-.074.083-.143.163-.219.237a2.3,2.3,0,0,1-.219.19,3.194,3.194,0,0,0-.587.572l-.013.013a3.56,3.56,0,0,1-.4.348,1.6,1.6,0,0,0-.364.364l-.08.092a1.578,1.578,0,0,1-.933.656.694.694,0,0,0-.382.261,1.67,1.67,0,0,1-.433.357c-.089.045-.172.083-.252.121a1.565,1.565,0,0,0-.643.415,1.6,1.6,0,0,1-.636.467,2.012,2.012,0,0,0-.355.208,2.88,2.88,0,0,1-1.058.581,6.028,6.028,0,0,0-.583.248,3.549,3.549,0,0,1-.518.21c-.15.038-.275-.013-.451.056-.275.1-.351.2-.514.2a2.812,2.812,0,0,0-.65.089,6.452,6.452,0,0,1-1,.067" transform="translate(148.324 159.994)" fill="#fff"/>
        <path id="Path_447" data-name="Path 447" d="M142.454,166.623c-.109,0-1.025.042-1.125.029a1.273,1.273,0,0,1-1.188-.882c-.243-.639.337-.837.873-1.159a1.782,1.782,0,0,1,.589-.2.684.684,0,0,0,.295-.1,2.665,2.665,0,0,1,1.163-.449,5.565,5.565,0,0,0,1.061-.424,4.806,4.806,0,0,1,.855-.351.547.547,0,0,0,.221-.161.826.826,0,0,1,.641-.3c.08,0,.172-.078.277-.17a1.228,1.228,0,0,1,.449-.279,1.78,1.78,0,0,0,.728-.449l.071-.06a1.706,1.706,0,0,1,.449-.29,1.842,1.842,0,0,0,.451-.292,2.809,2.809,0,0,1,.391-.3,3.638,3.638,0,0,0,.429-.335,3.352,3.352,0,0,0,.237-.27.908.908,0,0,1,.594-.418c.025,0,.094-.136.125-.2a.8.8,0,0,1,.61-.529c.132-.016.181-.08.3-.263a2.385,2.385,0,0,1,.322-.413,1.753,1.753,0,0,0,.554-.766,1.7,1.7,0,0,1,.435-.661c.056-.058.116-.121.185-.2a1.829,1.829,0,0,0,.426-.63c.029-.06.06-.127.1-.2.118-.234.223-.413.31-.554a2.923,2.923,0,0,0,.181-.335,3.711,3.711,0,0,1,.232-.525,5.783,5.783,0,0,0,.4-.969,3.138,3.138,0,0,1,.188-.509,2.4,2.4,0,0,0,.261-.945,5.43,5.43,0,0,1,.272-1.293c.04-.132.074-.252.1-.344a1.312,1.312,0,0,0,.022-.362,2.8,2.8,0,0,1,.212-1.255,6.358,6.358,0,0,0,.125-1.527c.045-.509.045-1.009.045-1.641,0-.308.025-.563.045-.786a2.885,2.885,0,0,0,0-.819,5.262,5.262,0,0,1-.018-1.409l.016-.23a16.685,16.685,0,0,0,0-2.115c-.036-1.172-.018-1.637-.007-1.887,0-.071,0-.125,0-.176,0-.143-.009-.3-.018-.471a3.631,3.631,0,0,1,.02-.969,6.232,6.232,0,0,0,.027-1.525,2.949,2.949,0,0,1-.029-.4,4.282,4.282,0,0,0-.174-1.637,1.385,1.385,0,0,0-.476-.9l-.076-.045a6.023,6.023,0,0,0-.882-.435c-.042-.016-.516-.112-.623-.141-.485-.13-1.029-.176-1.045-.589-.025-.71.2-.849.768-1.105.071-.033.346-.145.424-.181a2.845,2.845,0,0,1,1.759-.147,3.753,3.753,0,0,0,.663.085,4.185,4.185,0,0,1,1.592.581l1.3.619a4.517,4.517,0,0,1,1.4,1.483c.322.737-.08.982-.467,1.353a.452.452,0,0,1-.08.049,1.958,1.958,0,0,0-.4,1.226c-.016.152-.031.292-.054.413a3.592,3.592,0,0,0,0,.819,4.74,4.74,0,0,1,0,.991,7.373,7.373,0,0,0,0,1.4,5.777,5.777,0,0,1,.013.916c0,.19-.011.389-.011.576v1.447a4.016,4.016,0,0,1,0,1.48c0,.375-.013.641-.027.877-.009.2-.018.366-.018.567,0,.31-.018.538-.036.739a3.662,3.662,0,0,0-.011.7,3.532,3.532,0,0,1-.038.786,6.185,6.185,0,0,0-.051.688,8.216,8.216,0,0,1-.141,1.538,9.668,9.668,0,0,0-.172,1.224c-.031.313-.062.61-.1.822-.092.362-.147.719-.2,1.034a5.79,5.79,0,0,1-.174.857,5.468,5.468,0,0,0-.152.6,4.9,4.9,0,0,1-.357,1.152,4.626,4.626,0,0,0-.223.616,3.534,3.534,0,0,1-.473,1.047,5.262,5.262,0,0,0-.842,1.456,3,3,0,0,1-1.183,1.563c-.031.016-.06.058-.107.134a1.765,1.765,0,0,1-.509.536.944.944,0,0,0-.23.246,1.284,1.284,0,0,1-.52.451c-.442.221-.576.288-.688.585a1.248,1.248,0,0,1-.936.793,1.168,1.168,0,0,0-.634.373,2.463,2.463,0,0,1-.447.371c-.1.089-.194.183-.288.275a2.13,2.13,0,0,1-1.074.717,1.3,1.3,0,0,0-.835.4c-.04.036-.078.069-.118.1a2.752,2.752,0,0,1-.777.391,2.781,2.781,0,0,0-.554.255,3.541,3.541,0,0,1-.73.342,2.62,2.62,0,0,0-.547.25,2.136,2.136,0,0,1-.8.422l-.455.123a3.126,3.126,0,0,1-.578.152,4.182,4.182,0,0,0-.7.152,1.924,1.924,0,0,1-.822.183M145.8,153.21a2.3,2.3,0,0,1-1.152-.46,2.6,2.6,0,0,1-.844-1.152,4.414,4.414,0,0,1-.462-2.208,5.73,5.73,0,0,1,.183-.9,2.68,2.68,0,0,0,.134-.92,3.8,3.8,0,0,1,.029-.974l.016-.152a6.682,6.682,0,0,0,.022-1.208c-.011-.172-.022-.353-.022-.594s.016-.442.031-.627a5.6,5.6,0,0,0,.013-.909,9.256,9.256,0,0,1,0-1.409,7.164,7.164,0,0,0,0-1.179,2.716,2.716,0,0,1,.018-.567,3.231,3.231,0,0,0-.016-1.011,3.825,3.825,0,0,1-.016-.929,4.976,4.976,0,0,0,.011-.732l0-.038c-.038-.848.016-1.668-.25-1.934l-.1-.277a1.5,1.5,0,0,0-.538-.438,2.256,2.256,0,0,0-.511-.205c-.453,0-1.239-.087-1.429-.583l-.016-.1c-.145-.556.527-.94.991-1.11.08-.029.159-.065.237-.092a2.4,2.4,0,0,1,1.476-.042,11.581,11.581,0,0,0,1.217.259,3.269,3.269,0,0,1,.956.4c.165.087.337.179.5.255a6.134,6.134,0,0,1,1.228.982,2.412,2.412,0,0,1,.558,1.206.911.911,0,0,1-.219.643,2.142,2.142,0,0,0-.288.569c-.08.263-.127.482-.183.735-.038.17-.078.355-.134.576l0,.018a1.969,1.969,0,0,0-.025.944,2.861,2.861,0,0,1,.036.362l-.02.277a5.825,5.825,0,0,0-.029,1.058,4.141,4.141,0,0,1,.038,1.931.787.787,0,0,0-.036.192,4.7,4.7,0,0,1,.011,1.221c0,.033-.009.06-.011.092a9.262,9.262,0,0,1,0,1.387,7.1,7.1,0,0,0,0,1.195,18.829,18.829,0,0,1,.051,2.079c0,.2,0,.4,0,.585s.009.4.018.612a4.624,4.624,0,0,1-.121,1.728c-.319.9-.663,1.451-1.344,1.451" transform="translate(172.703 159.769)" fill="#fff"/>
        <path id="Path_448" data-name="Path 448" d="M158.116,142.059a2.061,2.061,0,0,1-1.284-.375c-.069-.033-.141-.067-.217-.1s-.125-.062-.188-.092a3.414,3.414,0,0,1-.811-.482,2.327,2.327,0,0,0-.453-.333,1.027,1.027,0,0,1-.46-.42l-.007-.018c-.036-.123-.192-.239-.359-.364a1.944,1.944,0,0,1-.433-.4l-.085-.109a4.558,4.558,0,0,0-.708-.773l-.21-.4c-.536-.672-.719-1.2-.38-1.465.4-.545,1.078-.277,1.6.007.116.065.239.132.373.2l.016.011c.154.1.293.194.424.275a11.639,11.639,0,0,0,1.219.592,3.348,3.348,0,0,0,1.085.264c.335,0,.817.085,1.123.1.241.009.449.018.605.018.5-.018.869-.033,1.141-.045a3.931,3.931,0,0,1,.853,0l.018,0a1.8,1.8,0,0,0,.936,0A3.015,3.015,0,0,1,163,138.1a6.014,6.014,0,0,0,1.253-.009c.25-.02.507-.038.768-.038s.518-.011.8-.02c.344-.013.73-.027,1.154-.027.266,0,.493-.013.732-.029a3.12,3.12,0,0,1,.7-.011,2.7,2.7,0,0,0,.639-.031,5.279,5.279,0,0,1,.828-.018,6.408,6.408,0,0,0,1.288-.011c.257-.018.5-.036.7-.036l2.365-.045,2.365-.092c.241,0,.554-.027.915-.056.453-.038.969-.08,1.458-.08a9.486,9.486,0,0,0,2.322-.176l.022,0,1.364-.183a5.59,5.59,0,0,0,.587-.136,2.8,2.8,0,0,1,.759-.138,3.83,3.83,0,0,1,.551.042,4.545,4.545,0,0,0,.677.049,5.938,5.938,0,0,1,1.55.279l.17.047a2.026,2.026,0,0,1,1.192.645s.8.806.576,1.326c-.045.125-.08.239-.109.337a.923.923,0,0,1-.371.61c-.054.027-.109.063-.179.1a2.076,2.076,0,0,1-.915.377,10.142,10.142,0,0,0-1.078.121,3.8,3.8,0,0,1-1.121.063c-.324,0-.569-.016-.768-.027a1.941,1.941,0,0,0-.627.02l-.018,0a4.413,4.413,0,0,1-1.786.047c-.1-.018-.2-.036-.308-.045h-3.309c-.264,0-.558.025-.844.049a4.016,4.016,0,0,1-1.3-.011,4.487,4.487,0,0,0-1.253-.022c-.252.013-.511.029-.746.029-.469,0-.878.016-1.239.027-.3.011-.583.02-.855.02-.453,0-.75.022-1.038.045s-.576.047-1.009.047c-.147,0-.317-.016-.5-.031a1.518,1.518,0,0,0-.913.069,2.151,2.151,0,0,1-.848.085c-.284,0-.552,0-.782.011a4.769,4.769,0,0,1-1.286.06,2.388,2.388,0,0,0-.732.025,3.631,3.631,0,0,1-.967.058c-.094,0-.185,0-.272,0a8.47,8.47,0,0,0-1.614.045c-.121.013-.275.036-.444.063a6.411,6.411,0,0,1-1.331.118,3.025,3.025,0,0,0-.873.2,5.519,5.519,0,0,1-1.188.219" transform="translate(187.827 168.178)" fill="#fff"/>
      </g>
    </g>
  </g>
</svg>
