<svg xmlns="http://www.w3.org/2000/svg" width="989.997" height="1007.691" viewBox="0 0 989.997 1007.691">
  <g id="Group_319" data-name="Group 319" opacity="0.3">
    <path id="Path_285" data-name="Path 285" d="M495,0C221.618,0,0,225.57,0,503.845,0,782.1,221.618,1007.691,495,1007.691S990,782.1,990,503.845C990,225.57,768.379,0,495,0M838.025,852.989C746.4,946.257,624.572,997.62,495,997.62S243.593,946.257,151.972,852.989,9.882,635.724,9.882,503.845c0-131.9,50.469-255.9,142.09-349.167C243.593,61.434,365.426,10.07,495,10.07S746.4,61.434,838.025,154.678c91.621,93.268,142.09,217.265,142.09,349.167,0,131.879-50.469,255.876-142.09,349.144" transform="translate(0 0)" fill="#e9dac3"/>
    <path id="Path_286" data-name="Path 286" d="M127.513,485.9c12.023,0,23.105-4.87,30.117-13.788,1.694,9.106,4.4,16.753,7.929,21.788.141.188.353.329.518.518.118.094.165.259.282.353l.188.118a8.189,8.189,0,0,0,.847.518c.235.118.447.235.682.329l.188.071c35.5,10.047,67.339,2.941,99.762-22.4,16.094,28.093,44.258,38.187,66.916,38.187.706,0,1.412,0,2.094-.023h.165a4.782,4.782,0,0,0,1.624-.353l.094-.023.259-.165a5.142,5.142,0,0,0,.871-.471c19.152-14.8,26.587-44.8,19.505-76.422,16.635,2.424,37.787-1.835,53.269-7.953l.071-.047.212-.118a4.531,4.531,0,0,0,1.341-.965l.188-.118.071-.141a4.364,4.364,0,0,0,.918-1.482l.094-.353a6.138,6.138,0,0,0,.212-.776c5.223-37.175,6.706-70.186-28.234-97.668-21.646-17.035-46.587-18.658-59.1-18.164,3.882-13.2,8.588-40.611-10.047-62.116-34.07-39.387-81.763-37.246-113.432-24.258a51.261,51.261,0,0,0-9.647-8.659c11.929-4.141,24.94-11.294,36.987-19.882a3.731,3.731,0,0,0,1.012-.776c19.647-14.235,36.493-32.234,41.387-47.081v-.118a5.684,5.684,0,0,0,.141-1.082,4.005,4.005,0,0,0,.047-.918l.024-.141a4.274,4.274,0,0,0-.329-.918,4.19,4.19,0,0,0-.212-.776l-.094-.141-.071-.118c-6.423-12-25.717-23.788-46.8-30.729,22.188-51.622,68.492-83.127,92.962-83.127h.094c11.67.047,20.8,5.223,24.423,13.858,3.247,7.717,1.388,16.682-4.87,23.411-7.788,8.329-18.823,6.588-25.788,1.459-4.635-3.435-8.87-9.67-5.506-15.953a5.087,5.087,0,0,0-2-6.823,4.884,4.884,0,0,0-6.706,2.023c-5.2,9.741-1.812,21.364,8.4,28.893,10.682,7.906,27.411,9.506,38.775-2.682,9.012-9.67,11.623-22.823,6.8-34.3-5.247-12.447-17.764-19.905-33.505-19.952h-.094c-15.623,0-39.528,10.87-61.6,31.411,1.341-13.035-3.2-24.517-10-31.717A29.907,29.907,0,0,0,215.017,8.43c-11.341,5.059-18.329,21.2-14.117,32.587a19.548,19.548,0,0,0,12.094,11.694,21.582,21.582,0,0,0,18.658-2.471,5.117,5.117,0,0,0,1.576-6.941,4.885,4.885,0,0,0-6.823-1.6,11.666,11.666,0,0,1-10.235,1.459,9.562,9.562,0,0,1-6-5.694c-2.4-6.494,2.212-16.87,8.823-19.811a20.169,20.169,0,0,1,22.846,4.47c5.529,5.882,12.306,20.635,2.612,38.446-.024.047-3.129,5.012-5.859,9.011a171.434,171.434,0,0,0-20.635,36.258,107.777,107.777,0,0,0-24.211-3.435,177.676,177.676,0,0,0,2.071-36.14l-.024-.071c-1.153-20.117-6.941-35.811-17.435-47.387L177.3,17.418a4.927,4.927,0,0,0-7.035-.871C63.327,103.7,1.987,233.577,1.987,372.868A464.921,464.921,0,0,0,31.4,535.522c2.047,5.953,3.553,9.364,3.623,9.553l.165.259a456.162,456.162,0,0,0,26.305,54.822,4.942,4.942,0,0,0,4.282,2.518,4.723,4.723,0,0,0,2.471-.682,5.063,5.063,0,0,0,1.812-6.87,445.313,445.313,0,0,1-29.34-63.01c-.612-1.765-1.271-3.765-1.953-5.976a54.948,54.948,0,0,1,5.012-42.869c5.576-9.694,13.435-16.07,22.117-17.929,10.164-2.165,20.705.494,27.552,6.917,5.882,5.529,8.706,13.458,7.929,22.282-.871,10.07-6.4,14.4-10.87,16.282-6.8,2.823-15.647,1.718-20.588-2.565a4.866,4.866,0,0,0-6.965.541,5.1,5.1,0,0,0,.541,7.106c7.788,6.776,20.447,8.517,30.752,4.235,9.953-4.141,15.976-12.917,16.988-24.729a39.854,39.854,0,0,0-.871-12.823,47.935,47.935,0,0,0,17.152,3.318m30.446-62.14-.024.141c-.259,1.482-.447,3.012-.682,4.541a24.776,24.776,0,0,0-4.776-3.765c-8.659-5.176-18.87-6.565-27.317-3.718a21.891,21.891,0,0,0-13.529,12.329,5.088,5.088,0,0,0,2.635,6.612,4.9,4.9,0,0,0,6.47-2.682,12.013,12.013,0,0,1,7.553-6.706c5.67-1.906,13.035-.824,19.176,2.847a16.458,16.458,0,0,1,7.459,11.035,27.566,27.566,0,0,1-4.165,20.376c-7.717,11.129-24.141,14.306-39.081,7.553a45.081,45.081,0,0,1-11.27-7.2l-.259-.259-.235-.212c-13.741-12.564-16.87-33.364-8.988-60.987L94.9,390.938c6.188-16.258,6.941-36.352,1.318-56.257-10.07-35.505-37.058-59.5-72.61-64.751,2.118-9.153,4.565-18.235,7.223-27.223,6.823,8.659,19.741,23.011,40.281,38.328,17.458,13.011,38.3,20.635,59.2,23.952a4.742,4.742,0,0,0,1.529.259l.047-.024a159.91,159.91,0,0,0,23.482,1.765c2.894,0,5.741-.118,8.564-.259-19.364,10.753-36.375,26.376-42.022,40.681l-.024.071-.024.047a5.05,5.05,0,0,0-.353,1.882l.071.306a4.882,4.882,0,0,0,.282,1.529l.047.094v.047c8.047,20.423,30.446,35.1,45.928,43.2-4.494,8.165-7.812,18.141-9.882,29.176M49.233,368.421c-6.917-4.847-15.976-6.141-24.846-3.529a29.408,29.408,0,0,0-12.494,7.27,456.17,456.17,0,0,1,9.576-92.4c31.858,4.376,56.21,25.858,65.222,57.716,7.788,27.505,1.718,56.21-14.776,69.786-12.306,10.141-24.893,14.258-36.446,11.953-9.576-1.906-16.776-8.07-19.411-12.988a24.8,24.8,0,0,1-1.412-20.682,18.513,18.513,0,0,1,12.47-10.988c8.235-2.4,13.882.306,16.517,2.165,2.965,2.071,4.941,5.059,5.176,7.764a4.948,4.948,0,1,0,9.859-.847c-.471-5.718-4-11.412-9.435-15.223m243.335-30.164-4.376,5.153-153.337.894c12.141-18.023,43.081-37.434,66.539-40.517a5.015,5.015,0,0,0,3.929-2.988,5.2,5.2,0,0,0-.541-4.965c-8.941-12.588-12.941-37.975-9.529-54.728ZM179.676,391.2a4.985,4.985,0,0,0-2.659-3.247c-12.211-5.882-32.54-17.529-42.469-33.576l145.055-.824-48.987,57.763-61.528,7.953c2.282-9.317,5.623-17.505,9.906-23.905a5.028,5.028,0,0,0,.682-4.165m11.811-99.056c-16.258,4.659-36.07,6.141-56.046,3.482L111.8,231.342l74,41.1a86.472,86.472,0,0,0,5.694,19.694M165.771,441.572c.235-4.094.659-8.047,1.247-11.882l53.9-6.965-50.328,59.34c-3.765-9.67-5.717-25.011-4.823-40.493m108.3,21.929a5.077,5.077,0,0,0-3.412-2.706,5.408,5.408,0,0,0-1.059-.118,4.961,4.961,0,0,0-3.129,1.129c-28.964,24.141-57.057,32.587-87.833,26.188l99.033-116.75,51.951,130.043c-20-1.553-43.269-12-55.551-37.787m80.163-40.893a4.931,4.931,0,0,0-5.035,1.176,5.117,5.117,0,0,0-1.271,5.082c8.306,27.458,4.612,54.14-8.965,69.081L284.921,362.68l8.259-9.741a4.938,4.938,0,0,0,2.518-2.965l6.894-8.117c.118-.118.282-.141.377-.259a5.03,5.03,0,0,0,.471-.753l7.106-8.376,91.1,86.962c-17.623,5.553-36.281,6.964-47.41,3.176m27.411-90.115c28.046,22.07,29.552,46.916,25.741,78.633l-90.374-86.28,6.823-8.047c7.059-.729,34.964-2.306,57.81,15.694m-70.516-81.6c19.223,22.211,7.788,53.81,5.929,58.469L299.038,330.61l-24.729-24.682-9.812-82.68c16,3.106,32.376,11.176,46.634,27.646m-56.775-28.964,8.659,72.7L201.182,232.9c11.953-6.023,31.764-12.47,53.175-10.964m-25.152-40.3-71.88-19.364,104.444-14.07c-6.447,10.988-18.635,23.176-32.564,33.434M172.688,27.512c7.553,9.2,11.882,21.388,13.106,36.87L81.138,131.933a445.738,445.738,0,0,1,91.55-104.421M69.538,151.344,186.147,76.076a196.571,196.571,0,0,1-3.129,30.611,5.081,5.081,0,0,0,1.176,4.259,4.849,4.849,0,0,0,4.023,1.647c9.506-.635,20.211.918,30.587,3.835l.047.024.165.023c17.129,4.823,33.364,13.317,41.858,21.67L131.16,155.626h-.024L62.244,164.9q3.529-6.847,7.294-13.553M56.786,175.791l74.727-10.047,86.68,23.341c-13.317,8.306-27.129,14.376-38.281,15.717a5.066,5.066,0,0,0-.753,9.882,37.219,37.219,0,0,1,16.47,9.741c-1.835.988-3.6,2-5.27,3.035a5.186,5.186,0,0,0-.659.565l-.282.188-.071.118a4.964,4.964,0,0,0-.918,1.365l-.071.165-.024.071c-3.435,8-4.659,18.964-4,30.258L51.774,186.52q2.435-5.4,5.012-10.729m41.74,48.163,25.623,69.716C107.4,290.07,91,283.388,76.95,272.917,51.7,254.094,38.433,236.565,34.527,230.966q5.894-17.894,13.2-35.223ZM63.868,455.477c-11.459,2.447-21.623,10.517-28.635,22.705a64.273,64.273,0,0,0-6.612,16.705A452.53,452.53,0,0,1,14.34,419.572,40.663,40.663,0,0,0,33.563,429.1a41.383,41.383,0,0,0,8.259.823c9.694,0,22.258-3.247,36.328-14.823l.024-.023c-2.918,17.364-.965,30.47,3.341,40.4a42.876,42.876,0,0,0-17.647,0" transform="translate(44.762 130.954)" fill="#e9dac3"/>
    <path id="Path_287" data-name="Path 287" d="M139.839,29.288c-.682-.212-16.8-5.247-33.034-.094C93.581,33.382,85.464,43.1,80.946,50.581c-4.518-7.482-12.635-17.2-25.858-21.388-16.258-5.153-32.352-.118-33.034.094a5.055,5.055,0,0,0-3.247,6.306,4.951,4.951,0,0,0,6.188,3.318c.141-.047,13.929-4.282,27.152-.094C69.653,44.346,76.194,63.334,76.264,63.5a1.621,1.621,0,0,0,.165.353,4.313,4.313,0,0,0,.306.565,5.114,5.114,0,0,0,.729.988l.376.376a5.5,5.5,0,0,0,1.435.847l.094.047h.024a4.884,4.884,0,0,0,1.553.259,4.645,4.645,0,0,0,1.482-.235h.023l.071-.023.282-.165a5.182,5.182,0,0,0,1.2-.706c.165-.141.306-.306.471-.471a4.035,4.035,0,0,0,.659-.87,3.71,3.71,0,0,0,.306-.612l.188-.329c.071-.188,6.612-19.176,24.117-24.705,13.176-4.188,26.917.024,27.129.094a4.957,4.957,0,0,0,6.212-3.318,5.055,5.055,0,0,0-3.247-6.306" transform="translate(418.709 605.589)" fill="#e9dac3"/>
    <path id="Path_288" data-name="Path 288" d="M109.557,30.122c-.494-.165-12.141-3.788-23.858-.071A33.7,33.7,0,0,0,68.17,43.6,33.792,33.792,0,0,0,50.641,30.052c-11.741-3.694-23.388-.094-23.858.071a5.055,5.055,0,0,0-3.247,6.306,4.96,4.96,0,0,0,6.188,3.318c.094-.023,9.247-2.823,17.976-.071C59.111,43.3,63.441,55.745,63.464,55.863l.188.377.282.518a5.382,5.382,0,0,0,.753,1.012l.353.353a5.553,5.553,0,0,0,1.529.894,5.2,5.2,0,0,0,1.6.282,5.114,5.114,0,0,0,1.553-.259l.306-.188a4.523,4.523,0,0,0,1.176-.682A4.671,4.671,0,0,0,71.7,57.7a6.038,6.038,0,0,0,.659-.871l.306-.612.188-.329C72.9,55.745,77.229,43.3,88.64,39.675c8.635-2.729,17.741,0,17.952.071a4.976,4.976,0,0,0,6.212-3.318,5.065,5.065,0,0,0-3.247-6.306" transform="translate(525.25 639.389)" fill="#e9dac3"/>
    <path id="Path_289" data-name="Path 289" d="M217.037,50.031c83.1,21.67,127.455,79.88,127.9,80.468a4.848,4.848,0,0,0,6.917.965,5.072,5.072,0,0,0,.941-7.059c-1.859-2.494-46.728-61.551-133.314-84.139C156.051,23.726,27,36.949,21.537,37.538a5.007,5.007,0,0,0-4.447,5.106c.023,1.059.706,26.164,18.8,42.658,18.258,16.658,31.6,13.035,33.058,12.564A5.033,5.033,0,0,0,66.1,88.219c-.4.094-9.576,2.377-23.6-10.423C31.866,68.1,28.5,54.22,27.442,47.09c24.541-2.282,134.679-11.364,189.595,2.941" transform="translate(384.996 720.419)" fill="#e9dac3"/>
    <path id="Path_290" data-name="Path 290" d="M667.588,133.287C584.625,226.179,466.37,279.448,343.126,279.448a431.044,431.044,0,0,1-124.679-18.305L153.2,62.042c3.059-.894,8.4-1.694,16.47-.259,18.141,3.223,27.458,21.811,27.646,22.164l62.21,116.467a4.938,4.938,0,0,0,3.318,2.518,4.88,4.88,0,0,0,4.047-.941c.471-.353,45.975-35.764,106.868-40.658,67.739-5.459,123.856,27.482,124.4,27.811a4.9,4.9,0,0,0,6.776-1.788,5.088,5.088,0,0,0-1.765-6.894c-2.376-1.435-59.245-34.893-130.185-29.176-53.081,4.282-93.974,29.834-107.456,39.293L206.094,79.312c-.471-.965-11.576-23.317-34.7-27.458-18.164-3.223-26.446,2.8-27.34,3.506a5.126,5.126,0,0,0-1.647,5.576l65.434,199.689c-11.6.165-37.246-2.447-51.363-26.823-6.729-11.67-50.657-139.361-68.986-193.312,2.612-.518,7.247-.941,14.988-.4a24.131,24.131,0,0,1,16.894,8.918,4.892,4.892,0,0,0,6.894,1.106,5.1,5.1,0,0,0,1.106-7.035,34.293,34.293,0,0,0-24.235-13.058C84.8,28.8,79.156,32.254,77.439,34.443a5.055,5.055,0,0,0-.823,4.8c2.4,7.129,56.422,166.513,69.575,196.018a101.134,101.134,0,0,1-14.329-5.106,57.939,57.939,0,0,1-19.105-14.729l-.494-.518a23.529,23.529,0,0,1-2.776-3.459l-.235-.306C96.827,193.262,64.616,126.675,43.2,80.253a34.143,34.143,0,0,1,6.659-2,34.728,34.728,0,0,1,14.376-.071,4.939,4.939,0,0,0,6.07-3.529,5.036,5.036,0,0,0-3.459-6.188,43.522,43.522,0,0,0-18.917-.094c-10.682,2.188-14.164,5.953-14.988,7.035a5.141,5.141,0,0,0-.518,5.153c4.541,9.929,36,78.115,57.081,116.609a444.29,444.29,0,0,1-74.116-67.575,4.868,4.868,0,0,0-6.988-.424,5.07,5.07,0,0,0-.4,7.106,452.182,452.182,0,0,0,93.95,81.645,34.548,34.548,0,0,0,3.294,4.094,68.056,68.056,0,0,0,22.588,17.341,119.041,119.041,0,0,0,26,8.047c16.494,20.282,40.093,23.341,52.728,23.341a67.051,67.051,0,0,0,7.6-.4,441.025,441.025,0,0,0,128.961,19.2c126.02,0,246.958-54.493,331.779-149.478a5.09,5.09,0,0,0-.329-7.106,4.864,4.864,0,0,0-6.988.329" transform="translate(151.875 670.55)" fill="#e9dac3"/>
    <path id="Path_291" data-name="Path 291" d="M622.8,500.834c3.106-27.952-11.458-54.4-35.5-66.586A73.721,73.721,0,0,0,581.2,313.286a65.933,65.933,0,0,0,9.717-27.788c3.953-35.481-21.2-67.622-56.069-71.645a62.265,62.265,0,0,0-23.27,1.741,73.425,73.425,0,0,0,3.294-15.058,72.419,72.419,0,0,0-14.941-52.963A70.131,70.131,0,0,0,430.8,121.785a3.235,3.235,0,0,1,.071-.471,72.741,72.741,0,0,0-15.035-53.222,70.324,70.324,0,0,0-43.6-26.235A442.4,442.4,0,0,0,16.624,36.894a5.092,5.092,0,0,0-2.659,6.588,4.911,4.911,0,0,0,6.47,2.706,430.862,430.862,0,0,1,78.61-24.729l50.234,73.6c-28.587,9.223-49.387,36.517-49.387,68.633a72.615,72.615,0,0,0,9.341,35.764,70.789,70.789,0,0,0-14.188,8.941,71.822,71.822,0,0,0-26.211,48.21,72.6,72.6,0,0,0,27.082,65.128,66.48,66.48,0,0,0-2.588,12.376c-4,35.952,21.482,68.516,56.8,72.61a67.987,67.987,0,0,0,7.247.4,63.782,63.782,0,0,0,34.634-10.282,69.783,69.783,0,0,0,26.917,10.87c-2.541,39.858,26.211,75.245,65.622,79.81a72.755,72.755,0,0,0,36.14-5.082c-.165,34.328,25.152,64.069,59.387,68.022a69.741,69.741,0,0,0,7.647.424c1.059,0,2.118-.047,3.176-.094a74.54,74.54,0,0,0-3.176,14.8c-4.518,40.587,24.235,77.339,64.116,81.927a70.649,70.649,0,0,0,8.329.494,74.195,74.195,0,0,0,9.176-.588,55.774,55.774,0,0,0-4.423,16.352,54.627,54.627,0,0,0,11.294,40,53.032,53.032,0,0,0,41.834,20.517c26.8,0,50-20.541,53.081-48.258a54.99,54.99,0,0,0-6.541-32.8c21.647-5.247,38.94-24.446,41.67-48.987a58.055,58.055,0,0,0-13.764-44.752,62.236,62.236,0,0,0,6.235-4.4,65.991,65.991,0,0,0,24.07-44.258M605.762,382.108c-3.365,34.564-33.787,59.881-67.692,56.445a60.934,60.934,0,0,1-36.893-17.388c.447-2.118.776-4.282,1.035-6.47a71.95,71.95,0,0,0-19.764-58.046,72.772,72.772,0,0,0,24.423-31.011,60.694,60.694,0,0,1,43.458-12.447c33.952,3.435,58.822,34.352,55.434,68.916M380.732,281.358c7.67-30.352,36.164-50.422,66.963-46.869a61.187,61.187,0,0,1,41.481,23.364,63.793,63.793,0,0,1-14.4,91.951,68.741,68.741,0,0,0-69.151-8.894,76.72,76.72,0,0,0-24.893-59.551m40-60.234a58.962,58.962,0,0,1-1.012,6.047A72.336,72.336,0,0,0,372.332,274.7a73.639,73.639,0,0,0-32.964-12.282,76.376,76.376,0,0,0-10.329-.447c.094-.565.188-1.153.259-1.741a75.161,75.161,0,0,0-15.529-54.94,71.976,71.976,0,0,0-8.541-9.176c8.517-27.482,35.034-45.011,63.245-41.787a58.409,58.409,0,0,1,20.141,6.141,60.712,60.712,0,0,1,32.117,60.657M308.9,154.585a67.308,67.308,0,0,1-13.67,33.834,72.5,72.5,0,0,0-91.974,11.929,67.485,67.485,0,0,1-25.482-60.916c4.094-36.775,36.8-63.363,72.986-59.175a65.192,65.192,0,0,1,44.187,24.917,67.458,67.458,0,0,1,13.953,49.41m-45.363,33.034a62.734,62.734,0,0,1,42.493,23.952A65.024,65.024,0,0,1,319.463,259.1c-.141,1.294-.329,2.565-.541,3.835a75.378,75.378,0,0,0-59.6,53.434,62.928,62.928,0,0,1-52.587-24.305A64.993,64.993,0,0,1,193.3,244.535c3.953-35.387,35.411-60.94,70.233-56.916m2.988,142.961c4.023-36.164,36.164-62.257,71.739-58.14,35.528,4.094,61.151,36.846,57.128,73.01a3.627,3.627,0,0,0-.024.871,71.345,71.345,0,0,0-31.882,48.752,63.473,63.473,0,0,1-39.834,8.541,64.233,64.233,0,0,1-43.434-24.47,66.456,66.456,0,0,1-13.694-48.564m106.3,69.2c3.482-31.223,29.552-54.328,59.716-54.328a55.573,55.573,0,0,1,6.823.4c32.964,3.788,56.728,34.187,53.01,67.716-3.741,33.552-33.576,57.716-66.563,53.952-32.94-3.812-56.728-34.187-52.987-67.739m51.881,77.739a69.573,69.573,0,0,0,7.929.471c29.317,0,55.316-18.776,65.481-46.093a70.319,70.319,0,0,0,22.846,13.129,57.9,57.9,0,0,1-12.306,73.833,71.65,71.65,0,0,0-81.551-10.941,57.425,57.425,0,0,1-10.447-31.811,69.248,69.248,0,0,0,8.047,1.412M533.74,223.853c29.435,3.388,50.681,30.54,47.34,60.516a55.374,55.374,0,0,1-8.753,24.282,70.673,70.673,0,0,0-61.081,2.306c.353-1.859.635-3.694.847-5.576a73.518,73.518,0,0,0-24.47-63.645,53.51,53.51,0,0,1,46.116-17.882m-82.3-92.962a60.247,60.247,0,0,1,40.752,22.964,62.888,62.888,0,0,1,6.612,66.681,64.019,64.019,0,0,0-19.105,15.153,70.788,70.788,0,0,0-49.5-10.894c.141-.847.283-1.694.377-2.541a70.947,70.947,0,0,0-33.481-68.516,59.974,59.974,0,0,1,54.352-22.846m-84.3-79.6c.847.094,1.671.212,2.518.353a5.452,5.452,0,0,0,1.482.259h.024a60.4,60.4,0,0,1,36.94,22.47,62.634,62.634,0,0,1,12.941,45.811c-.165,1.529-.4,3.059-.682,4.565a70.417,70.417,0,0,0-32.329,24.4,67.624,67.624,0,0,0-18.447-4.823,68.365,68.365,0,0,0-51.434,15.341c.212-1.318.447-2.635.588-3.953a77.7,77.7,0,0,0-16.047-56.822c-.494-.635-1.012-1.247-1.529-1.859,7.764-29.6,35.9-49.222,65.975-45.74M109.657,19.365A433.557,433.557,0,0,1,347.133,42.07a71.657,71.657,0,0,0-53.834,46.8A74.893,74.893,0,0,0,187.561,94.68a4.9,4.9,0,0,0-2.659-1.529,70.135,70.135,0,0,0-25.246-.588Zm60.987,82.4a60.553,60.553,0,0,1,10.541.941A78.216,78.216,0,0,0,196.9,208.113a73.494,73.494,0,0,0-5.2,8.47,69.855,69.855,0,0,0-73.057-20.8A62.493,62.493,0,0,1,109.8,163.69c0-34.14,27.293-61.928,60.845-61.928m-92,156c3.788-33.952,33.976-58.422,67.339-54.563a60.116,60.116,0,0,1,40.728,22.941,4.53,4.53,0,0,0,.565.588,76.33,76.33,0,0,0,.894,52.7,72.2,72.2,0,0,0-26.493,42.8,59.761,59.761,0,0,1-29.411,4.047c-33.34-3.859-57.387-34.587-53.622-68.516M151.232,396.7c-29.882-3.435-51.457-31.011-48.069-61.457a56.416,56.416,0,0,1,1.412-7.67,69.52,69.52,0,0,0,55.74,5.859A72.649,72.649,0,0,0,183.608,390.2a53.807,53.807,0,0,1-32.376,6.494M170.5,329.78A62.033,62.033,0,0,1,192.6,288.722a73.463,73.463,0,0,0,6.4,9.623,72.634,72.634,0,0,0,49.128,27.693,76.13,76.13,0,0,0,8.353.471l.612-.023c-.141.988-.306,1.976-.4,2.965a77.062,77.062,0,0,0,0,17.27,75.323,75.323,0,0,0-36.446,50.987c-31.317-5.694-53.363-35.317-49.74-67.928m115.15,147.714c-35.175-4.047-60.563-36.493-56.587-72.327a65.481,65.481,0,0,1,29.552-47.9,75.9,75.9,0,0,0,13.858,28.14,73.9,73.9,0,0,0,50.046,28.211,76.1,76.1,0,0,0,8.612.494,72.164,72.164,0,0,0,25.929-4.8,66.384,66.384,0,0,1-.353,10.588c-3.976,35.811-35.881,61.669-71.057,57.6m95.55,62.939a56.468,56.468,0,0,1-38.211-21.505,58.375,58.375,0,0,1-12.141-41.646,75.311,75.311,0,0,0,34.7-49.928,71.187,71.187,0,0,0,41.222,45.6,67.458,67.458,0,0,0,11.835,40.14,73.854,73.854,0,0,0-23.411,27.2,55.709,55.709,0,0,1-14,.141m71.739,97.08c-34.446-3.977-59.293-35.74-55.387-70.8a63.841,63.841,0,0,1,23.317-42.846A62.107,62.107,0,0,1,509.2,534.057a64.778,64.778,0,0,1-10,89.927,61.68,61.68,0,0,1-46.258,13.529m108.35,37.364c-2.706,24.305-24.305,41.787-48.187,39.058-23.858-2.753-41.058-24.752-38.352-49.034a44.674,44.674,0,0,1,7.412-20.188l.141-.259a72.489,72.489,0,0,0,23.058-12.588,77.692,77.692,0,0,0,7.059-6.565A52.2,52.2,0,0,0,546.8,644.336a54.3,54.3,0,0,0,5.859.329l1.106-.024a44.5,44.5,0,0,1,7.529,30.235m34.94-81.786c-2.823,25.364-24.494,43.763-48.3,41.011a42.353,42.353,0,0,1-28.893-16.823,75.371,75.371,0,0,0,10.753-64.516,64.158,64.158,0,0,0,21.176,6.306,65.945,65.945,0,0,0,7.435.424,63.215,63.215,0,0,0,24.752-5.082,47.518,47.518,0,0,1,13.082,38.681m-3.671-55.881a54.292,54.292,0,0,1-70.092-1.294,74.826,74.826,0,0,0-5.529-8.117c-.447-.588-.918-1.129-1.388-1.694a68.071,68.071,0,0,0,18.094-77.974c1.153.165,2.282.329,3.435.447,2.4.235,4.8.353,7.176.353a70.184,70.184,0,0,0,32.8-8.164c23.788,8.776,38.775,33.058,35.9,58.94a55.826,55.826,0,0,1-20.4,37.5" transform="translate(306.17 45.598)" fill="#e9dac3"/>
  </g>
</svg>
