<svg id="logo" xmlns="http://www.w3.org/2000/svg" xmlns:xlink="http://www.w3.org/1999/xlink" width="280.309" height="95" viewBox="0 0 280.309 95">
  <defs>
    <clipPath id="clip-path">
      <rect id="Rectangle_364" data-name="Rectangle 364" width="280.309" height="95" fill="none"/>
    </clipPath>
  </defs>
  <g id="Group_305" data-name="Group 305" transform="translate(0 0)" clip-path="url(#clip-path)">
    <path id="Path_285" data-name="Path 285" d="M46.666,0C20.893,0,0,21.266,0,47.5S20.893,95,46.666,95,93.332,73.732,93.332,47.5,72.439,0,46.666,0M79,80.415a45.167,45.167,0,0,1-64.678,0,47.14,47.14,0,0,1,0-65.833,45.172,45.172,0,0,1,64.678,0,47.14,47.14,0,0,1,0,65.833" transform="translate(0 0)" fill="#fff"/>
    <path id="Path_286" data-name="Path 286" d="M13.821,51.073a3.561,3.561,0,0,0,2.839-1.3,5.419,5.419,0,0,0,.748,2.054c.013.018.033.031.049.049s.016.024.027.033l.018.011a.77.77,0,0,0,.08.049c.022.011.042.022.064.031l.018.007c3.347.947,6.348.277,9.405-2.112a7.2,7.2,0,0,0,6.308,3.6c.067,0,.133,0,.2,0h.016a.451.451,0,0,0,.153-.033l.009,0,.024-.016a.485.485,0,0,0,.082-.044c1.806-1.4,2.507-4.223,1.839-7.2a10.731,10.731,0,0,0,5.022-.75l.007,0,.02-.011a.427.427,0,0,0,.126-.091l.018-.011.007-.013a.411.411,0,0,0,.087-.14l.009-.033a.579.579,0,0,0,.02-.073c.492-3.5.632-6.617-2.662-9.208a8.558,8.558,0,0,0-5.572-1.712,6.218,6.218,0,0,0-.947-5.856A9.184,9.184,0,0,0,21.137,26a4.833,4.833,0,0,0-.909-.816,14.4,14.4,0,0,0,3.487-1.874.352.352,0,0,0,.1-.073c1.852-1.342,3.44-3.039,3.9-4.439V18.79a.536.536,0,0,0,.013-.1.378.378,0,0,0,0-.087l0-.013A.4.4,0,0,0,27.7,18.5a.4.4,0,0,0-.02-.073l-.009-.013-.007-.011c-.606-1.131-2.424-2.243-4.412-2.9C25.344,10.64,29.71,7.67,32.017,7.67h.009a2.358,2.358,0,0,1,2.3,1.307,2.057,2.057,0,0,1-.459,2.207,1.8,1.8,0,0,1-2.431.138,1.2,1.2,0,0,1-.519-1.5.48.48,0,0,0-.189-.643.46.46,0,0,0-.632.191,2.114,2.114,0,0,0,.792,2.724,2.725,2.725,0,0,0,3.656-.253A3.006,3.006,0,0,0,35.186,8.6a3.259,3.259,0,0,0-3.159-1.881h-.009c-1.473,0-3.727,1.025-5.807,2.961a3.8,3.8,0,0,0-.943-2.99,2.82,2.82,0,0,0-3.2-.632,2.658,2.658,0,0,0-1.331,3.072,1.843,1.843,0,0,0,1.14,1.1A2.035,2.035,0,0,0,23.639,10a.482.482,0,0,0,.149-.654.461.461,0,0,0-.643-.151,1.1,1.1,0,0,1-.965.138.9.9,0,0,1-.566-.537,1.7,1.7,0,0,1,.832-1.868,1.9,1.9,0,0,1,2.154.421,3.093,3.093,0,0,1,.246,3.624s-.3.472-.552.85a16.162,16.162,0,0,0-1.945,3.418,10.161,10.161,0,0,0-2.283-.324,16.75,16.75,0,0,0,.2-3.407l0-.007a7.013,7.013,0,0,0-1.644-4.467l-.1-.131a.465.465,0,0,0-.663-.082A43.121,43.121,0,0,0,1.987,40.417,43.83,43.83,0,0,0,4.76,55.751c.193.561.335.883.342.9l.016.024A43.006,43.006,0,0,0,7.6,61.844a.466.466,0,0,0,.4.237.445.445,0,0,0,.233-.064A.477.477,0,0,0,8.4,61.37a41.983,41.983,0,0,1-2.766-5.94c-.058-.166-.12-.355-.184-.563a5.18,5.18,0,0,1,.472-4.042,3.3,3.3,0,0,1,2.085-1.69,2.935,2.935,0,0,1,2.6.652,2.511,2.511,0,0,1,.748,2.1,1.685,1.685,0,0,1-1.025,1.535,1.984,1.984,0,0,1-1.941-.242.459.459,0,0,0-.657.051.481.481,0,0,0,.051.67,2.879,2.879,0,0,0,2.9.4,2.62,2.62,0,0,0,1.6-2.331A3.757,3.757,0,0,0,12.2,50.76a4.519,4.519,0,0,0,1.617.313m2.87-5.858,0,.013c-.024.14-.042.284-.064.428a2.336,2.336,0,0,0-.45-.355,3.152,3.152,0,0,0-2.575-.35,2.064,2.064,0,0,0-1.275,1.162.48.48,0,0,0,.248.623.462.462,0,0,0,.61-.253,1.133,1.133,0,0,1,.712-.632,2.26,2.26,0,0,1,1.808.268,1.552,1.552,0,0,1,.7,1.04,2.6,2.6,0,0,1-.393,1.921,2.955,2.955,0,0,1-3.684.712,4.25,4.25,0,0,1-1.063-.679l-.024-.024-.022-.02c-1.3-1.185-1.59-3.145-.847-5.75l.375-1.2a8.561,8.561,0,0,0,.124-5.3,8.22,8.22,0,0,0-6.845-6.1c.2-.863.43-1.719.681-2.566a20.258,20.258,0,0,0,3.8,3.613,12.654,12.654,0,0,0,5.581,2.258.447.447,0,0,0,.144.024l0,0a15.076,15.076,0,0,0,2.214.166c.273,0,.541-.011.807-.024a9.027,9.027,0,0,0-3.962,3.835l0,.007,0,0a.476.476,0,0,0-.033.177l.007.029a.46.46,0,0,0,.027.144l0,.009v0c.759,1.925,2.87,3.31,4.33,4.073a9.308,9.308,0,0,0-.932,2.751M6.441,40A2.718,2.718,0,0,0,4.1,39.665a2.773,2.773,0,0,0-1.178.685,43.005,43.005,0,0,1,.9-8.711,7.3,7.3,0,0,1,6.149,5.441c.734,2.593.162,5.3-1.393,6.579a4.164,4.164,0,0,1-3.436,1.127,2.764,2.764,0,0,1-1.83-1.224,2.338,2.338,0,0,1-.133-1.95,1.745,1.745,0,0,1,1.176-1.036,1.769,1.769,0,0,1,1.557.2,1.084,1.084,0,0,1,.488.732.466.466,0,1,0,.929-.08A2.019,2.019,0,0,0,6.441,40m22.94-2.844-.413.486-14.456.084a10.554,10.554,0,0,1,6.273-3.82.473.473,0,0,0,.37-.282.491.491,0,0,0-.051-.468,7.75,7.75,0,0,1-.9-5.159ZM18.739,42.145a.47.47,0,0,0-.251-.306,9.939,9.939,0,0,1-4-3.165L28.159,38.6l-4.618,5.446-5.8.75a7.128,7.128,0,0,1,.934-2.254.474.474,0,0,0,.064-.393m1.114-9.339a13.261,13.261,0,0,1-5.284.328l-2.229-6.06,6.976,3.875a8.153,8.153,0,0,0,.537,1.857M17.428,46.894c.022-.386.062-.759.118-1.12l5.082-.657-4.745,5.594a9.84,9.84,0,0,1-.455-3.817m10.21,2.067a.479.479,0,0,0-.322-.255.509.509,0,0,0-.1-.011.468.468,0,0,0-.3.106c-2.731,2.276-5.379,3.072-8.28,2.469l9.336-11.007,4.9,12.26a6.217,6.217,0,0,1-5.237-3.562M35.2,45.106a.465.465,0,0,0-.475.111.482.482,0,0,0-.12.479c.783,2.589.435,5.1-.845,6.513l-5.1-12.752.779-.918a.466.466,0,0,0,.237-.279l.65-.765c.011-.011.027-.013.035-.024a.474.474,0,0,0,.044-.071l.67-.79,8.589,8.2a8.046,8.046,0,0,1-4.47.3m2.584-8.5c2.644,2.081,2.786,4.423,2.427,7.413l-8.52-8.134.643-.759a7.854,7.854,0,0,1,5.45,1.48m-6.648-7.693c1.812,2.094.734,5.073.559,5.512l-1.7,2L27.66,34.106l-.925-7.795a7.639,7.639,0,0,1,4.4,2.606m-5.352-2.731.816,6.854-5.829-5.82a10.031,10.031,0,0,1,5.013-1.034m-2.371-3.8-6.777-1.826,9.846-1.326a11.7,11.7,0,0,1-3.07,3.152M18.08,7.858a6.076,6.076,0,0,1,1.236,3.476L9.449,17.7A42.022,42.022,0,0,1,18.08,7.858M8.355,19.533l10.993-7.1a18.531,18.531,0,0,1-.3,2.886.479.479,0,0,0,.111.4.457.457,0,0,0,.379.155,8.791,8.791,0,0,1,2.884.362l0,0,.016,0a9.864,9.864,0,0,1,3.946,2.043L14.165,19.936h0l-6.495.874q.333-.645.688-1.278m-1.2,2.3L14.2,20.89l8.172,2.2a9.608,9.608,0,0,1-3.609,1.482.478.478,0,0,0-.071.932,3.509,3.509,0,0,1,1.553.918c-.173.093-.339.189-.5.286a.489.489,0,0,0-.062.053l-.027.018-.007.011a.468.468,0,0,0-.087.129l-.007.016,0,.007a6.57,6.57,0,0,0-.377,2.853l-12.5-6.945q.23-.509.472-1.011m3.935,4.541L13.5,32.95a11.452,11.452,0,0,1-4.45-1.956,18.193,18.193,0,0,1-4-3.955Q5.61,25.352,6.3,23.718ZM7.821,48.2a4.211,4.211,0,0,0-2.7,2.141A6.059,6.059,0,0,0,4.5,51.92a42.662,42.662,0,0,1-1.346-7.1,3.833,3.833,0,0,0,1.812.9,3.9,3.9,0,0,0,.779.078,5.367,5.367,0,0,0,3.425-1.4l0,0A6.648,6.648,0,0,0,9.484,48.2a4.042,4.042,0,0,0-1.664,0" transform="translate(2.421 7.081)" fill="#fff"/>
    <path id="Path_287" data-name="Path 287" d="M30.017,27.108A5.674,5.674,0,0,0,26.9,27.1a4.475,4.475,0,0,0-2.438,2.016A4.475,4.475,0,0,0,22.027,27.1a5.671,5.671,0,0,0-3.114.009.477.477,0,0,0-.306.594.467.467,0,0,0,.583.313,4.805,4.805,0,0,1,2.56-.009,3.966,3.966,0,0,1,2.274,2.327.153.153,0,0,0,.016.033.407.407,0,0,0,.029.053.482.482,0,0,0,.069.093l.035.035a.518.518,0,0,0,.135.08l.009,0h0a.461.461,0,0,0,.146.024.438.438,0,0,0,.14-.022h0l.007,0,.027-.016a.488.488,0,0,0,.113-.067c.016-.013.029-.029.044-.044a.38.38,0,0,0,.062-.082.35.35,0,0,0,.029-.058l.018-.031a3.961,3.961,0,0,1,2.274-2.329,4.783,4.783,0,0,1,2.558.009.467.467,0,0,0,.586-.313.477.477,0,0,0-.306-.594" transform="translate(22.641 32.745)" fill="#fff"/>
    <path id="Path_288" data-name="Path 288" d="M31.445,28.545a4.09,4.09,0,0,0-2.249-.007,3.177,3.177,0,0,0-1.653,1.278,3.186,3.186,0,0,0-1.653-1.278,4.108,4.108,0,0,0-2.249.007.477.477,0,0,0-.306.594.468.468,0,0,0,.583.313,3.21,3.21,0,0,1,1.695-.007A2.6,2.6,0,0,1,27.1,30.972l.018.035.027.049a.507.507,0,0,0,.071.1l.033.033a.524.524,0,0,0,.144.084.49.49,0,0,0,.151.027.482.482,0,0,0,.146-.024l.029-.018a.427.427,0,0,0,.111-.064.441.441,0,0,0,.047-.044.569.569,0,0,0,.062-.082l.029-.058.018-.031a2.608,2.608,0,0,1,1.488-1.528,3.2,3.2,0,0,1,1.692.007.469.469,0,0,0,.586-.313.478.478,0,0,0-.306-.594" transform="translate(28.401 34.573)" fill="#fff"/>
    <path id="Path_289" data-name="Path 289" d="M35.939,33.68A23.6,23.6,0,0,1,48,41.266a.457.457,0,0,0,.652.091.478.478,0,0,0,.089-.665A24.093,24.093,0,0,0,36.17,32.759c-5.98-1.559-18.147-.313-18.662-.257a.472.472,0,0,0-.419.481A6.067,6.067,0,0,0,18.861,37c1.721,1.57,2.979,1.229,3.117,1.184a.474.474,0,0,0-.268-.909c-.038.009-.9.224-2.225-.983a4.958,4.958,0,0,1-1.42-2.895c2.314-.215,12.7-1.071,17.874.277" transform="translate(20.817 38.954)" fill="#fff"/>
    <path id="Path_290" data-name="Path 290" d="M69.043,39.524A41.1,41.1,0,0,1,38.454,53.3,40.636,40.636,0,0,1,26.7,51.577l-6.151-18.77a3.407,3.407,0,0,1,1.553-.024,4.1,4.1,0,0,1,2.606,2.09l5.865,10.98a.465.465,0,0,0,.313.237A.46.46,0,0,0,31.267,46a20.777,20.777,0,0,1,10.075-3.833A22.017,22.017,0,0,1,53.069,44.79a.462.462,0,0,0,.639-.169.48.48,0,0,0-.166-.65,22.528,22.528,0,0,0-12.273-2.751,21.446,21.446,0,0,0-10.13,3.7l-5.6-10.49a4.978,4.978,0,0,0-3.272-2.589,3.277,3.277,0,0,0-2.578.331.483.483,0,0,0-.155.526L25.7,51.529A5.352,5.352,0,0,1,20.857,49c-.634-1.1-4.776-13.138-6.5-18.225a5.55,5.55,0,0,1,1.413-.038,2.275,2.275,0,0,1,1.593.841.461.461,0,0,0,.65.1.481.481,0,0,0,.1-.663,3.233,3.233,0,0,0-2.285-1.231c-1.728-.115-2.26.211-2.422.417a.477.477,0,0,0-.078.453c.226.672,5.319,15.7,6.559,18.48a9.536,9.536,0,0,1-1.351-.481,5.462,5.462,0,0,1-1.8-1.389l-.047-.049a2.219,2.219,0,0,1-.262-.326l-.022-.029a136.668,136.668,0,0,1-6.226-12.34,3.219,3.219,0,0,1,.628-.189,3.274,3.274,0,0,1,1.355-.007A.466.466,0,0,0,12.734,34a.475.475,0,0,0-.326-.583,4.1,4.1,0,0,0-1.783-.009,2.293,2.293,0,0,0-1.413.663.485.485,0,0,0-.049.486c.428.936,3.394,7.364,5.381,10.993a41.885,41.885,0,0,1-6.987-6.371.459.459,0,0,0-.659-.04.478.478,0,0,0-.038.67,42.629,42.629,0,0,0,8.857,7.7,3.258,3.258,0,0,0,.311.386,6.416,6.416,0,0,0,2.129,1.635,11.223,11.223,0,0,0,2.451.759A6.727,6.727,0,0,0,26.3,52.445a41.577,41.577,0,0,0,12.158,1.81A42.026,42.026,0,0,0,69.732,40.163a.48.48,0,0,0-.031-.67.459.459,0,0,0-.659.031" transform="translate(8.212 36.258)" fill="#fff"/>
    <path id="Path_291" data-name="Path 291" d="M71.023,49.049a6.257,6.257,0,0,0-3.347-6.277,6.95,6.95,0,0,0-.575-11.4,6.216,6.216,0,0,0,.916-2.62,6.089,6.089,0,0,0-5.286-6.754,5.87,5.87,0,0,0-2.194.164,6.921,6.921,0,0,0,.311-1.42,6.827,6.827,0,0,0-1.409-4.993,6.612,6.612,0,0,0-6.517-2.431.306.306,0,0,1,.007-.044,6.858,6.858,0,0,0-1.417-5.018A6.63,6.63,0,0,0,47.4,5.779a41.707,41.707,0,0,0-33.526-.468.48.48,0,0,0-.251.621.463.463,0,0,0,.61.255,40.619,40.619,0,0,1,7.411-2.331l4.736,6.938a6.843,6.843,0,0,0-3.775,9.842,6.674,6.674,0,0,0-1.338.843A6.771,6.771,0,0,0,18.8,26.025a6.845,6.845,0,0,0,2.553,6.14,6.267,6.267,0,0,0-.244,1.167,6.172,6.172,0,0,0,5.355,6.845,6.409,6.409,0,0,0,.683.038,6.013,6.013,0,0,0,3.265-.969,6.579,6.579,0,0,0,2.538,1.025,7.089,7.089,0,0,0,6.186,7.524,6.859,6.859,0,0,0,3.407-.479,6.4,6.4,0,0,0,5.6,6.413,6.573,6.573,0,0,0,.721.04c.1,0,.2,0,.3-.009a7.018,7.018,0,0,0,5.745,9.119,6.657,6.657,0,0,0,.785.047,7,7,0,0,0,.865-.055,5.258,5.258,0,0,0-.417,1.542A5.15,5.15,0,0,0,57.2,68.181a5,5,0,0,0,3.944,1.934,5.079,5.079,0,0,0,5-4.549,5.184,5.184,0,0,0-.617-3.092,5.3,5.3,0,0,0,3.928-4.618,5.473,5.473,0,0,0-1.3-4.219,5.87,5.87,0,0,0,.588-.415,6.221,6.221,0,0,0,2.269-4.172M69.417,37.856a5.87,5.87,0,0,1-6.382,5.321,5.745,5.745,0,0,1-3.478-1.639c.042-.2.073-.4.1-.61a6.783,6.783,0,0,0-1.863-5.472,6.86,6.86,0,0,0,2.3-2.924,5.722,5.722,0,0,1,4.1-1.173,5.916,5.916,0,0,1,5.226,6.5M48.2,28.358a5.841,5.841,0,0,1,6.313-4.419,5.768,5.768,0,0,1,3.911,2.2,6.014,6.014,0,0,1-1.358,8.669,6.481,6.481,0,0,0-6.519-.838A7.233,7.233,0,0,0,48.2,28.358m3.771-5.679a5.556,5.556,0,0,1-.1.57A6.819,6.819,0,0,0,47.41,27.73,6.942,6.942,0,0,0,44.3,26.573a7.2,7.2,0,0,0-.974-.042c.009-.053.018-.109.024-.164a7.086,7.086,0,0,0-1.464-5.179,6.787,6.787,0,0,0-.805-.865,5.6,5.6,0,0,1,5.962-3.939,5.507,5.507,0,0,1,1.9.579,5.724,5.724,0,0,1,3.028,5.718M41.43,16.407a6.345,6.345,0,0,1-1.289,3.19,6.835,6.835,0,0,0-8.671,1.125,6.362,6.362,0,0,1-2.4-5.743A6.252,6.252,0,0,1,35.949,9.4a6.146,6.146,0,0,1,4.166,2.349,6.36,6.36,0,0,1,1.315,4.658m-4.277,3.114a5.914,5.914,0,0,1,4.006,2.258,6.13,6.13,0,0,1,1.267,4.481c-.013.122-.031.242-.051.362a7.106,7.106,0,0,0-5.619,5.037A5.933,5.933,0,0,1,31.8,29.367a6.127,6.127,0,0,1-1.267-4.481,6.015,6.015,0,0,1,6.621-5.366M37.435,33A6.142,6.142,0,0,1,44.2,27.517,6.2,6.2,0,0,1,49.584,34.4a.341.341,0,0,0,0,.082,6.726,6.726,0,0,0-3.006,4.6,5.984,5.984,0,0,1-3.755.805,6.056,6.056,0,0,1-4.095-2.307A6.265,6.265,0,0,1,37.435,33m10.022,6.524a5.714,5.714,0,0,1,5.63-5.122,5.24,5.24,0,0,1,.643.038,5.771,5.771,0,1,1-6.273,5.084m4.891,7.329a6.559,6.559,0,0,0,.748.044,6.63,6.63,0,0,0,6.173-4.345,6.629,6.629,0,0,0,2.154,1.238,5.458,5.458,0,0,1-1.16,6.961,6.755,6.755,0,0,0-7.688-1.031,5.414,5.414,0,0,1-.985-3,6.527,6.527,0,0,0,.759.133M62.627,22.937a5.142,5.142,0,0,1,4.463,5.705,5.221,5.221,0,0,1-.825,2.289,6.663,6.663,0,0,0-5.758.217c.033-.175.06-.348.08-.526a6.931,6.931,0,0,0-2.307-6,5.045,5.045,0,0,1,4.348-1.686m-7.759-8.764a5.68,5.68,0,0,1,3.842,2.165,5.929,5.929,0,0,1,.623,6.286,6.035,6.035,0,0,0-1.8,1.429,6.674,6.674,0,0,0-4.667-1.027c.013-.08.027-.16.035-.24a6.688,6.688,0,0,0-3.156-6.459,5.654,5.654,0,0,1,5.124-2.154m-7.948-7.5c.08.009.157.02.237.033a.514.514,0,0,0,.14.024h0a5.694,5.694,0,0,1,3.483,2.118A5.9,5.9,0,0,1,52,13.164c-.016.144-.038.288-.064.43a6.639,6.639,0,0,0-3.048,2.3,6.375,6.375,0,0,0-1.739-.455A6.445,6.445,0,0,0,42.3,16.886c.02-.124.042-.248.055-.373a7.325,7.325,0,0,0-1.513-5.357c-.047-.06-.1-.118-.144-.175a5.782,5.782,0,0,1,6.22-4.312M22.647,3.659A40.874,40.874,0,0,1,45.035,5.8a6.755,6.755,0,0,0-5.075,4.412,7.061,7.061,0,0,0-9.968.548.462.462,0,0,0-.251-.144,6.612,6.612,0,0,0-2.38-.055Zm5.75,7.768a5.708,5.708,0,0,1,.994.089,7.374,7.374,0,0,0,1.482,9.937,6.929,6.929,0,0,0-.49.8,6.586,6.586,0,0,0-6.887-1.961,5.892,5.892,0,0,1-.834-3.026A5.8,5.8,0,0,1,28.4,11.427M19.723,26.133a5.766,5.766,0,0,1,6.348-5.144,5.667,5.667,0,0,1,3.84,2.163.428.428,0,0,0,.053.055,7.2,7.2,0,0,0,.084,4.969,6.807,6.807,0,0,0-2.5,4.035,5.634,5.634,0,0,1-2.773.382,5.825,5.825,0,0,1-5.055-6.459m6.843,13.1a5.222,5.222,0,0,1-4.532-5.794,5.319,5.319,0,0,1,.133-.723,6.554,6.554,0,0,0,5.255.552,6.849,6.849,0,0,0,2.2,5.352,5.073,5.073,0,0,1-3.052.612m1.817-6.308a5.848,5.848,0,0,1,2.083-3.871,6.927,6.927,0,0,0,.6.907A6.848,6.848,0,0,0,35.7,32.57a7.177,7.177,0,0,0,.787.044l.058,0c-.013.093-.029.186-.038.279a7.266,7.266,0,0,0,0,1.628,7.1,7.1,0,0,0-3.436,4.807,5.831,5.831,0,0,1-4.689-6.4M39.239,46.849A6.193,6.193,0,0,1,36.69,35.514,7.156,7.156,0,0,0,38,38.167a6.967,6.967,0,0,0,4.718,2.66,7.175,7.175,0,0,0,.812.047,6.8,6.8,0,0,0,2.444-.453,6.258,6.258,0,0,1-.033,1,6.088,6.088,0,0,1-6.7,5.43m9.008,5.934a5.324,5.324,0,0,1-3.6-2.027A5.5,5.5,0,0,1,43.5,46.829a7.1,7.1,0,0,0,3.272-4.707,6.711,6.711,0,0,0,3.886,4.3A6.36,6.36,0,0,0,51.774,50.2a6.963,6.963,0,0,0-2.207,2.564,5.252,5.252,0,0,1-1.32.013m6.763,9.152a6.065,6.065,0,0,1-3.023-10.714,5.855,5.855,0,0,1,8.327.96,6.107,6.107,0,0,1-.943,8.478,5.815,5.815,0,0,1-4.361,1.275m10.215,3.522a4.107,4.107,0,1,1-8.158-.94,4.211,4.211,0,0,1,.7-1.9l.013-.024A6.834,6.834,0,0,0,59.952,61.4a7.324,7.324,0,0,0,.665-.619,4.921,4.921,0,0,0,3.241,1.795,5.123,5.123,0,0,0,.552.031l.1,0a4.2,4.2,0,0,1,.71,2.85m3.294-7.71a4.221,4.221,0,0,1-4.554,3.866,3.993,3.993,0,0,1-2.724-1.586,7.106,7.106,0,0,0,1.014-6.082,6.049,6.049,0,0,0,2,.594,6.219,6.219,0,0,0,.7.04,5.959,5.959,0,0,0,2.334-.479,4.48,4.48,0,0,1,1.233,3.647m-.346-5.268a5.118,5.118,0,0,1-6.608-.122,7.051,7.051,0,0,0-.521-.765c-.042-.055-.087-.106-.131-.16a6.417,6.417,0,0,0,1.706-7.351c.109.016.215.031.324.042.226.022.452.033.677.033a6.617,6.617,0,0,0,3.092-.77,5.323,5.323,0,0,1,1.462,9.092" transform="translate(16.555 2.466)" fill="#fff"/>
    <path id="Path_292" data-name="Path 292" d="M51.627,31.123v6.1H49.946v-6.1H47.617V29.572h6.337v1.551Z" transform="translate(58.006 36.024)" fill="#fff"/>
    <path id="Path_293" data-name="Path 293" d="M59.093,35a3.93,3.93,0,0,1-2.136,2.109,4.435,4.435,0,0,1-3.261,0,4.061,4.061,0,0,1-1.284-.843,3.761,3.761,0,0,1-.841-1.244,3.937,3.937,0,0,1-.3-1.535v-.022a3.9,3.9,0,0,1,.3-1.535,4.006,4.006,0,0,1,.847-1.255,3.952,3.952,0,0,1,1.289-.854,4.441,4.441,0,0,1,3.263,0,4.064,4.064,0,0,1,1.282.843,3.728,3.728,0,0,1,.841,1.244,3.9,3.9,0,0,1,.3,1.535v.022A3.863,3.863,0,0,1,59.093,35M57.64,33.468a2.55,2.55,0,0,0-.169-.929,2.3,2.3,0,0,0-1.218-1.282,2.235,2.235,0,0,0-.929-.193,2.272,2.272,0,0,0-.934.186,2.11,2.11,0,0,0-.721.515,2.375,2.375,0,0,0-.47.759,2.5,2.5,0,0,0-.169.923v.022a2.55,2.55,0,0,0,.169.929,2.315,2.315,0,0,0,1.213,1.282,2.2,2.2,0,0,0,.934.193,2.285,2.285,0,0,0,.927-.186A2.137,2.137,0,0,0,57,35.172a2.415,2.415,0,0,0,.47-.759,2.5,2.5,0,0,0,.169-.923Z" transform="translate(62.458 35.952)" fill="#fff"/>
    <path id="Path_294" data-name="Path 294" d="M61.967,37.22V32.227l-2.152,3.267h-.044L57.642,32.26v4.96H55.98V29.572h1.812L59.8,32.806l2.01-3.234h1.814V37.22Z" transform="translate(68.194 36.023)" fill="#fff"/>
    <rect id="Rectangle_362" data-name="Rectangle 362" width="1.684" height="7.648" transform="translate(134.552 65.596)" fill="#fff"/>
    <path id="Path_295" data-name="Path 295" d="M69.86,37.22l-3.7-4.862V37.22H64.5V29.572h1.551l3.582,4.709V29.572H71.29V37.22Z" transform="translate(78.568 36.023)" fill="#fff"/>
    <path id="Path_296" data-name="Path 296" d="M76.425,35a3.93,3.93,0,0,1-2.136,2.109,4.435,4.435,0,0,1-3.261,0,4.062,4.062,0,0,1-1.284-.843,3.762,3.762,0,0,1-.841-1.244,3.938,3.938,0,0,1-.3-1.535v-.022a3.863,3.863,0,0,1,.306-1.535,3.911,3.911,0,0,1,2.136-2.109,4.435,4.435,0,0,1,3.261,0,4.064,4.064,0,0,1,1.282.843,3.768,3.768,0,0,1,.843,1.244,3.937,3.937,0,0,1,.3,1.535v.022A3.863,3.863,0,0,1,76.425,35m-1.453-1.535a2.55,2.55,0,0,0-.169-.929,2.3,2.3,0,0,0-1.218-1.282,2.235,2.235,0,0,0-.929-.193,2.28,2.28,0,0,0-.934.186,2.11,2.11,0,0,0-.721.515,2.374,2.374,0,0,0-.47.759,2.5,2.5,0,0,0-.169.923v.022a2.549,2.549,0,0,0,.169.929,2.315,2.315,0,0,0,1.213,1.282,2.2,2.2,0,0,0,.934.193,2.285,2.285,0,0,0,.927-.186,2.115,2.115,0,0,0,.728-.515,2.414,2.414,0,0,0,.47-.759,2.5,2.5,0,0,0,.169-.923Z" transform="translate(83.572 35.952)" fill="#fff"/>
    <path id="Path_297" data-name="Path 297" d="M82.827,35a3.93,3.93,0,0,1-2.136,2.109,4.435,4.435,0,0,1-3.261,0,4.061,4.061,0,0,1-1.284-.843,3.762,3.762,0,0,1-.841-1.244,3.937,3.937,0,0,1-.3-1.535v-.022a3.863,3.863,0,0,1,.306-1.535,3.911,3.911,0,0,1,2.136-2.109,4.435,4.435,0,0,1,3.261,0,4.064,4.064,0,0,1,1.282.843,3.767,3.767,0,0,1,.843,1.244,3.937,3.937,0,0,1,.3,1.535v.022A3.863,3.863,0,0,1,82.827,35m-1.453-1.535a2.55,2.55,0,0,0-.169-.929,2.3,2.3,0,0,0-1.218-1.282,2.235,2.235,0,0,0-.929-.193,2.28,2.28,0,0,0-.934.186,2.11,2.11,0,0,0-.721.515,2.375,2.375,0,0,0-.47.759,2.5,2.5,0,0,0-.169.923v.022a2.55,2.55,0,0,0,.169.929,2.289,2.289,0,0,0,.481.763,2.266,2.266,0,0,0,.732.519,2.2,2.2,0,0,0,.934.193,2.285,2.285,0,0,0,.927-.186,2.115,2.115,0,0,0,.728-.515,2.415,2.415,0,0,0,.47-.759,2.5,2.5,0,0,0,.169-.923Z" transform="translate(91.37 35.952)" fill="#fff"/>
    <path id="Path_298" data-name="Path 298" d="M84.652,37.22l-2.371-3.256-.885.918V37.22H79.715V29.572H81.4v3.345l3.1-3.345h2.032l-3.114,3.245,3.256,4.4Z" transform="translate(97.107 36.023)" fill="#fff"/>
    <path id="Path_299" data-name="Path 299" d="M89.73,37.25l-.7-1.715H85.8l-.7,1.715H83.384l3.276-7.7h1.553l3.276,7.7Zm-2.316-5.681L86.4,34.049H88.43Z" transform="translate(101.576 35.995)" fill="#fff"/>
    <path id="Path_300" data-name="Path 300" d="M98.511,37.286H97.047l-1.726-5-1.726,5H92.132l-2.611-7.7h1.8l1.584,5.177,1.717-5.2h1.442l1.715,5.2,1.584-5.177h1.759Z" transform="translate(109.052 36.012)" fill="#fff"/>
    <rect id="Rectangle_363" data-name="Rectangle 363" width="1.684" height="7.648" transform="translate(212.315 65.596)" fill="#fff"/>
    <path id="Path_301" data-name="Path 301" d="M103.07,37.22l-3.7-4.862V37.22H97.706V29.572h1.55l3.582,4.709V29.572H104.5V37.22Z" transform="translate(119.023 36.023)" fill="#fff"/>
    <path id="Path_302" data-name="Path 302" d="M101.966,37.22V29.572h5.758v1.5h-4.1v1.553h3.6v1.5h-3.6v1.606h4.15v1.5Z" transform="translate(124.213 36.023)" fill="#fff"/>
    <path id="Path_303" data-name="Path 303" d="M110.278,37.22l-1.639-2.449h-1.32V37.22h-1.684V29.572h3.5a3.116,3.116,0,0,1,2.125.665,2.347,2.347,0,0,1,.759,1.859v.022a2.4,2.4,0,0,1-.452,1.513,2.64,2.64,0,0,1-1.185.856l1.868,2.733Zm.033-5.037a.98.98,0,0,0-.348-.819,1.554,1.554,0,0,0-.974-.273h-1.67v2.194h1.7a1.4,1.4,0,0,0,.956-.293,1,1,0,0,0,.333-.787Z" transform="translate(128.682 36.024)" fill="#fff"/>
    <path id="Path_304" data-name="Path 304" d="M113.832,34.171v3.048H112.15V34.2l-2.939-4.632h1.965L113,32.642l1.857-3.07h1.912Z" transform="translate(133.038 36.024)" fill="#fff"/>
    <path id="Path_305" data-name="Path 305" d="M52.1,22.726c-.082,0-.286.071-.388.029-.155-.038-.619-.073-.6-.328a.632.632,0,0,1,.24-.375.982.982,0,0,1,.355-.215c.018,0,.1-.022.111-.029l.058-.069h0a.8.8,0,0,0,.373-.142,1.132,1.132,0,0,1,.348-.166,1.385,1.385,0,0,0,.3-.131l.1-.055a3.288,3.288,0,0,0,.51-.324l.009-.009c.191-.122.317-.189.419-.244.044-.022.084-.044.126-.067a4.189,4.189,0,0,0,.541-.43,2.811,2.811,0,0,1,.441-.417l.084-.071c.069-.075.12-.14.169-.2a1.917,1.917,0,0,1,.313-.337l.448-.581a2.6,2.6,0,0,0,.3-.479c.02-.035.038-.071.058-.1s.033-.078.055-.133a2.476,2.476,0,0,1,.255-.508,2.684,2.684,0,0,0,.166-.479l.038-.142a1.415,1.415,0,0,1,.082-.222.882.882,0,0,0,.091-.4,1.307,1.307,0,0,1,.04-.275,1.62,1.62,0,0,0,.055-.4,2.08,2.08,0,0,1,.058-.408,1.518,1.518,0,0,0,.04-.248,1.626,1.626,0,0,0-.26-.832c-.2-.3-.317-.39-.517-.39a7.2,7.2,0,0,0-.756.049l-.087.009c-.078.011-.151.027-.22.04a1.211,1.211,0,0,1-.6.018,1.107,1.107,0,0,0-.723.149c-.248.124-.268.275-.268.319v.009a2.639,2.639,0,0,0-.007.632l.007.109a1.158,1.158,0,0,1-.009.244,1.424,1.424,0,0,0,.007.421.861.861,0,0,1-.007.291,1.142,1.142,0,0,0,.007.441,1.888,1.888,0,0,1,0,.756l-.02.144c0,.033-.04.164-.04.193a.412.412,0,0,1-.209.366.5.5,0,0,1-.211.135c-.031.013-.124.069-.155.084a.34.34,0,0,1-.313.009c-.173-.062-.237-.248-.3-.406a1.386,1.386,0,0,1-.177-.648c0-.1-.029-.35-.018-.43a1.274,1.274,0,0,0,0-.441,1.676,1.676,0,0,1,0-.459c.007-.091.016-.186.016-.271a1.052,1.052,0,0,0-.073-.457,1.968,1.968,0,0,1-.062-.2.456.456,0,0,0-.109-.237,1.209,1.209,0,0,1-.271-.284c-.069-.1-.1-.133-.228-.142a1.243,1.243,0,0,0-.346.049,2,2,0,0,1-.441.067,2.683,2.683,0,0,0-.619.12c-.042.013-.082.024-.113.031a3.158,3.158,0,0,1-.424.135c-.071.02-.133.035-.191.058a1.484,1.484,0,0,1-.9.04,1.279,1.279,0,0,1-.453-.322c-.062-.058-.129-.12-.2-.175l-.009-.009a1.583,1.583,0,0,0-.3-.242,1.447,1.447,0,0,1-.315-.26c-.284-.384-.324-.541-.135-.752.253-.277.315-.231.779.02a2.955,2.955,0,0,0,.481.222.438.438,0,0,1,.157.082c.062.047.1.069.177.035a.783.783,0,0,1,.335-.022,1.6,1.6,0,0,0,.342,0,1.578,1.578,0,0,1,.277-.016,1.365,1.365,0,0,0,.393-.042,2.356,2.356,0,0,1,.677-.06,2.361,2.361,0,0,0,.659-.075,2.018,2.018,0,0,1,.55-.06c.273-.069.344-.4.359-.5a3.139,3.139,0,0,0,.022-1.009.754.754,0,0,1-.013-.3.955.955,0,0,0-.007-.319.609.609,0,0,1-.013-.248.277.277,0,0,0-.031-.209l-.051-.06a.4.4,0,0,0-.273-.184,1.5,1.5,0,0,0-.3-.022c-.342,0-.47-.007-.5-.2-.027-.175.051-.288.517-.6A.692.692,0,0,1,52,9.1a2.172,2.172,0,0,1,.63-.118,1.817,1.817,0,0,1,.555.14c.075.027.153.053.224.075a.714.714,0,0,1,.557.614,1.979,1.979,0,0,1-.033.328.38.38,0,0,0-.011.166,2.069,2.069,0,0,1-.035.894,1.505,1.505,0,0,0-.018.663c.009.053.016.1.02.149s0,.1.007.14a.455.455,0,0,0,.084.313,1.055,1.055,0,0,0,.53.155,2.187,2.187,0,0,0,.459-.033,2.24,2.24,0,0,1,.255-.024.778.778,0,0,1,.2.007.243.243,0,0,0,.175-.018l.013,0a1.766,1.766,0,0,1,.643-.067c.042,0,.08,0,.113,0a2.248,2.248,0,0,0,.61-.071.846.846,0,0,0,.268-.273c.02-.029.042-.058.067-.089a.542.542,0,0,0,.062-.271,1.143,1.143,0,0,1,.022-.2,1.358,1.358,0,0,0-.011-.248,1.106,1.106,0,0,1,.013-.4,2.416,2.416,0,0,0,.016-.634c0-.078,0-.155-.007-.246-.007-.118-.013-.251-.013-.415,0-.067-.007-.313-.016-.41-.011-.126-.022-.268-.022-.4,0-.328-.047-.543-.273-.606a1.309,1.309,0,0,0-.3-.04c-.251.009-.561-.009-.612-.2a.335.335,0,0,1,.051-.277.527.527,0,0,1,.379-.242c.044-.009.149-.073.189-.084a.648.648,0,0,1,.288-.053.617.617,0,0,0,.251-.042.46.46,0,0,1,.408.035.349.349,0,0,0,.1.035.965.965,0,0,1,.433.1c.055.024.115.049.193.078l.009,0c.055.027.115.051.175.073a.707.707,0,0,1,.377.244.777.777,0,0,0,.089.111.346.346,0,0,1,.133.359.754.754,0,0,1-.126.251.875.875,0,0,0-.126.251c-.022.069-.044.124-.064.173a.41.41,0,0,0-.049.271,2.195,2.195,0,0,1-.011.756,1.073,1.073,0,0,0-.027.186,4.767,4.767,0,0,0,0,.712.9.9,0,0,1-.018.253,2.551,2.551,0,0,0-.04.468.515.515,0,0,0,.206.426.644.644,0,0,0,.512.157l.011,0c.044,0,.089-.009.131-.013a1.9,1.9,0,0,1,.528,0,1.778,1.778,0,0,0,.406.009c.067,0,.135-.009.2-.009a.863.863,0,0,0,.4-.093c.055-.022.118-.049.2-.078a1.422,1.422,0,0,1,1.12,0,1,1,0,0,0,.284.08.922.922,0,0,1,.386.14c.073.051.126.093.173.131a1.326,1.326,0,0,0,.264.173.777.777,0,0,1,.271.639.315.315,0,0,1-.075.291c-.109.122-.337.087-.5.087-.067,0-.149-.007-.235-.011a2.868,2.868,0,0,0-.457-.009,1.742,1.742,0,0,1-.459-.031c-.064-.011-.133-.022-.211-.029-.142-.018-.237-.022-.331-.027a3.128,3.128,0,0,1-.315-.031,1.568,1.568,0,0,0-.475-.022l-.087,0a2.924,2.924,0,0,1-1.107-.022,1.291,1.291,0,0,0-.5.113.443.443,0,0,0-.337.433,3.781,3.781,0,0,1-.06.83,3.192,3.192,0,0,0-.075.714,1.3,1.3,0,0,1-.069.537,1.285,1.285,0,0,0-.049.211c0,.031-.007.069-.009.111a1.411,1.411,0,0,1-.157.641,1.909,1.909,0,0,0-.2.57c-.007.035-.016.069-.024.1a1.486,1.486,0,0,1-.248.588l-.071.111c-.033.055-.069.118-.106.184-.091.155-.184.319-.282.457-.027.033-.049.069-.073.1a1.062,1.062,0,0,1-.211.26c-.018.018-.042.038-.064.06a.653.653,0,0,0-.186.242.714.714,0,0,1-.324.346l-.009,0a.346.346,0,0,0-.169.14,1.312,1.312,0,0,1-.115.133c-.06.053-.091.087-.12.115a1.061,1.061,0,0,1-.2.164l-.082.055c-.126.089-.2.138-.222.186a.468.468,0,0,1-.315.268L55.3,21.1c-.189.093-.253.126-.319.226a1.01,1.01,0,0,1-.541.353,1.471,1.471,0,0,0-.217.1,1.294,1.294,0,0,0-.228.184.756.756,0,0,1-.4.233,1.175,1.175,0,0,0-.384.153c-.042.022-.087.047-.131.069l-.042.033a.481.481,0,0,1-.264.124,1.94,1.94,0,0,0-.257.084,1.006,1.006,0,0,1-.408.069" transform="translate(57.421 8.832)" fill="#fff"/>
    <path id="Path_306" data-name="Path 306" d="M59.045,20.348a.374.374,0,0,1-.211-.071.9.9,0,0,0-.16-.078.9.9,0,0,1-.488-.366,1.306,1.306,0,0,0-.348-.337l-.035-.024a.619.619,0,0,1-.166-.2c-.038-.064-.062-.1-.109-.12a.93.93,0,0,1-.26-.315,1.448,1.448,0,0,0-.24-.313c-.164-.377-.24-.506-.067-.8.1-.2.217-.133.319-.115.024,0,.166.044.18.044h.011a.868.868,0,0,1,.395.193l.044.033a2.474,2.474,0,0,1,.279.171.239.239,0,0,0,.122.067.449.449,0,0,1,.253.073.969.969,0,0,0,.131.082H58.8c.111.055.124.007.213-.042.058-.029.14-.049.211-.087s.118-.067.166-.1a1.564,1.564,0,0,1,.366-.177,1.384,1.384,0,0,0,.355-.213c.049-.038.1-.073.151-.109l.519-.326a1.565,1.565,0,0,1,.315-.215.614.614,0,0,0,.175-.122,1.435,1.435,0,0,1,.528-.377l.058-.029a2.369,2.369,0,0,0,.262-.186,3.556,3.556,0,0,1,.291-.215c.044-.029.111-.075.186-.131.131-.091.279-.2.377-.257l.042-.027a2.824,2.824,0,0,0,.486-.388c.031-.027.06-.053.091-.082a2.157,2.157,0,0,1,.49-.357,1.294,1.294,0,0,0,.357-.273c.044-.042.091-.089.149-.142a1.566,1.566,0,0,1,.262-.189.834.834,0,0,0,.271-.226,1.89,1.89,0,0,1,.472-.428,1.26,1.26,0,0,0,.233-.191,2.436,2.436,0,0,1,.362-.291,1.852,1.852,0,0,0,.481-.444.985.985,0,0,1,.291-.275.78.78,0,0,0,.211-.189A1.385,1.385,0,0,1,67.361,12a.873.873,0,0,0,.266-.315.788.788,0,0,1,.233-.246,1.428,1.428,0,0,0,.3-.291,2.455,2.455,0,0,1,.26-.319c.109-.122.306-.262.364-.333a2.258,2.258,0,0,1,.885-.781.35.35,0,0,1,.382,0c.153.113.122.153.122.288a1.128,1.128,0,0,1-.246.592,1.792,1.792,0,0,0-.166.268.647.647,0,0,1-.209.3c-.126.073-.2.346-.233.417a.528.528,0,0,1-.2.279c-.031.035-.28.326-.313.362-.1.113-.029.058-.113.184a1.566,1.566,0,0,1-.244.257.808.808,0,0,0-.173.189.613.613,0,0,1-.271.3.4.4,0,0,0-.124.106,1.2,1.2,0,0,1-.428.47.494.494,0,0,0-.171.157.231.231,0,0,1-.115.1.524.524,0,0,0-.2.18.7.7,0,0,1-.111.118,1.338,1.338,0,0,0-.255.262l-.062.078a.671.671,0,0,1-.142.1.931.931,0,0,0-.206.166c-.031.031-.058.064-.087.1a.722.722,0,0,1-.288.251,1.3,1.3,0,0,0-.253.235c-.029.031-.053.06-.073.08a1.407,1.407,0,0,1-.171.138.618.618,0,0,0-.186.177,1.379,1.379,0,0,1-.417.37,1,1,0,0,0-.175.126l-.009.009c-.233.169-.311.237-.47.373l-.124.106a1.26,1.26,0,0,1-.2.146,1.605,1.605,0,0,0-.386.308,1.961,1.961,0,0,1-.413.322c-.073.047-.142.091-.2.135a3.086,3.086,0,0,1-.406.306,1.342,1.342,0,0,0-.206.153,2.112,2.112,0,0,1-.472.331c-.064.035-.126.069-.177.1l-.144.089a2.87,2.87,0,0,0-.486.348,5,5,0,0,1-.634.437,1.632,1.632,0,0,0-.557.5.751.751,0,0,1-.51.3.526.526,0,0,1-.1.011m.271-8.4a.909.909,0,0,1-.652-.359.779.779,0,0,1-.089-.142,1.959,1.959,0,0,0-.126-.211,1.32,1.32,0,0,1-.18-.353c-.013-.038-.029-.073-.042-.106-.022-.049-.038-.1-.055-.144A.566.566,0,0,0,58,10.341a1.306,1.306,0,0,1-.39-.528.368.368,0,0,0-.22-.153.38.38,0,0,1-.075-.029c-.162-.089-.339-.157-.455-.209-.528-.233-.626-.357-.608-.621,0-.175.222-.286.461-.357l.1-.024a.811.811,0,0,1,.5-.013l.6.118c.08.024.153.044.222.062a.863.863,0,0,1,.333.131,1.075,1.075,0,0,0,.348.186,1.636,1.636,0,0,1,.28.133,3.573,3.573,0,0,1,.457.342l.129.109a1.325,1.325,0,0,1,.315.408c.038.062.078.131.124.2a.918.918,0,0,1,.169.559q.007.093.02.193a1.314,1.314,0,0,1-.248.752.816.816,0,0,1-.7.339l-.044,0" transform="translate(68.523 10.199)" fill="#fff"/>
    <path id="Path_307" data-name="Path 307" d="M66.226,22.686a.456.456,0,0,1-.35-.2,1.426,1.426,0,0,0-.16-.126.768.768,0,0,1-.291-.659c0-.215-.011-.43-.022-.621-.009-.151-.016-.282-.016-.384a5.547,5.547,0,0,1,.04-.8v-.009a2.982,2.982,0,0,0,.02-.561c0-.075,0-.149,0-.215,0-.111.009-.22.018-.337.011-.133.02-.273.02-.437v-.151a3.993,3.993,0,0,1,.022-.654,5.777,5.777,0,0,0,0-.785c0-.067-.007-.122-.007-.171l.02-.479a3.613,3.613,0,0,1-.009-.612c0-.124.009-.253.009-.379,0-.055,0-.133,0-.224,0-.233-.009-.521,0-.692.009-.129.007-.257,0-.379a2.565,2.565,0,0,1,.016-.459,2.833,2.833,0,0,0,.007-.55c0-.084-.007-.162-.007-.231v-.007c0-.047.009-.089.016-.129a1.9,1.9,0,0,0-.016-.739,2.4,2.4,0,0,1-.027-.621c0-.093.007-.189.007-.284s0-.2,0-.288c0-.186-.009-.359,0-.606l0-.013a1.223,1.223,0,0,0-.011-.4,1.56,1.56,0,0,1-.009-.488.739.739,0,0,0-.233-.641l-.04-.049a.578.578,0,0,0-.222-.1c-.035-.009-.073-.022-.113-.035a1.4,1.4,0,0,0-.226-.029c-.146-.007-.286-.016-.339-.124a.24.24,0,0,1-.016-.191c.06-.177.308-.3.49-.384l.062-.031c.024-.011.049-.027.075-.04a.489.489,0,0,1,.517-.055,1.063,1.063,0,0,0,.313.087.574.574,0,0,1,.235.073,1.824,1.824,0,0,0,.308.157,2.334,2.334,0,0,1,.368.191,1.478,1.478,0,0,1,.293.253,2.091,2.091,0,0,0,.251.233l.007,0a.654.654,0,0,1,.257.521.493.493,0,0,1-.237.446.375.375,0,0,0-.073.069,2.041,2.041,0,0,1-.1.311.543.543,0,0,0-.053.184,1.377,1.377,0,0,1-.02.406,1.743,1.743,0,0,0-.018.523,2.158,2.158,0,0,1,0,.586,1.8,1.8,0,0,0-.016.333,6.269,6.269,0,0,1,0,1.06.746.746,0,0,0,.2.466l0,.007c.138.215.191.291.315.275a4.111,4.111,0,0,1,1.045.213c.055.013.111.029.166.044l.011,0a1.3,1.3,0,0,0,.395.091,1.022,1.022,0,0,1,.364.084,1.236,1.236,0,0,0,.28.08,1.851,1.851,0,0,1,.435.133l.122.067a1.476,1.476,0,0,0,.552.217,1.23,1.23,0,0,1,.419.206.834.834,0,0,0,.1.044.666.666,0,0,1,.282.2c.042.042.1.093.166.149a1.96,1.96,0,0,1,.424.444,2.011,2.011,0,0,1,.259.8.885.885,0,0,1-.211.621,1,1,0,0,1-.563.333.98.98,0,0,1-.572-.16.552.552,0,0,1-.26-.231.456.456,0,0,0-.153-.16,1.721,1.721,0,0,1-.413-.47,1.255,1.255,0,0,0-.375-.377,1.182,1.182,0,0,1-.22-.175,1.39,1.39,0,0,0-.213-.177c-.04-.024-.1-.062-.158-.106-.086-.06-.2-.135-.306-.2a.537.537,0,0,0-.135-.049.375.375,0,0,1-.284-.2c-.011-.033-.093-.06-.166-.082a.991.991,0,0,1-.228-.093c-.124-.062-.756-.2-.945-.062-.08.053-.335.242-.335.461,0,.113.007.22.013.324a1.516,1.516,0,0,1-.018.508,3.686,3.686,0,0,0,0,.9c.011.182.009.379,0,.588,0,.111,0,.226,0,.348l0,.011a2.6,2.6,0,0,0-.007.6,2.392,2.392,0,0,1,.009.324c0,.1,0,.2,0,.3a4.232,4.232,0,0,0,.022.634,3.077,3.077,0,0,1,.011.561c0,.118-.011.242-.011.379,0,.1,0,.186-.007.282a4.154,4.154,0,0,0,.007.639,1.788,1.788,0,0,1-.22.836.566.566,0,0,1-.5.313Z" transform="translate(78.332 8.841)" fill="#fff"/>
    <path id="Path_308" data-name="Path 308" d="M71,22.956a.469.469,0,0,1-.138-.009c-.322-.1-.384-.14-.444-.3a.288.288,0,0,1,.151-.41,1.423,1.423,0,0,1,.322-.14.73.73,0,0,0,.193-.109.9.9,0,0,1,.439-.182c.16-.04.191-.118.335-.189a2.079,2.079,0,0,1,.362-.149.221.221,0,0,0,.1-.069.35.35,0,0,1,.273-.126c.033,0,.071-.033.115-.071a.5.5,0,0,1,.193-.12A.771.771,0,0,0,73.2,20.9l.031-.029a.8.8,0,0,1,.193-.122.808.808,0,0,0,.191-.124,1.244,1.244,0,0,1,.166-.129,1.683,1.683,0,0,0,.182-.142,1.078,1.078,0,0,0,.1-.115.392.392,0,0,1,.253-.177c.011,0,.04-.06.053-.087a.343.343,0,0,1,.26-.224c.055-.007.075-.033.126-.111a1.017,1.017,0,0,1,.138-.177.731.731,0,0,0,.235-.326.731.731,0,0,1,.184-.279c.024-.024.049-.051.08-.087a.789.789,0,0,0,.182-.268c.011-.027.024-.053.04-.084.049-.1.1-.173.131-.235a1.2,1.2,0,0,0,.078-.142,1.565,1.565,0,0,1,.1-.224,2.539,2.539,0,0,0,.173-.41,1.2,1.2,0,0,1,.08-.217,1.042,1.042,0,0,0,.111-.4,2.3,2.3,0,0,1,.115-.55c.018-.055.031-.106.042-.144a.633.633,0,0,0,.009-.155,1.16,1.16,0,0,1,.089-.532,2.708,2.708,0,0,0,.053-.65c.02-.215.02-.428.02-.7,0-.131.011-.24.02-.335a1.219,1.219,0,0,0,0-.348,2.219,2.219,0,0,1-.007-.6l.007-.1a7.128,7.128,0,0,0,0-.9c-.016-.5-.007-.7,0-.8l0-.075c0-.062,0-.129-.009-.2a1.57,1.57,0,0,1,.009-.413,2.579,2.579,0,0,0,.011-.648,1.282,1.282,0,0,1-.011-.173,1.839,1.839,0,0,0-.075-.694c-.058-.246-.071-.326-.144-.386l-.051-.058a.708.708,0,0,0-.344-.186,1.405,1.405,0,0,0-.211-.033c-.184,0-.508-.033-.539-.344-.024-.253.14-.284.382-.393.031-.016.173-.042.208-.055a1.353,1.353,0,0,1,.663-.016,2.355,2.355,0,0,0,.337.042c.2.016.342-.009.47.084l.739.37a1.421,1.421,0,0,1,.532.643c.109.4-.1.519-.2.575l-.036.02a.834.834,0,0,0-.169.521c-.007.064-.013.124-.024.177a1.648,1.648,0,0,0,0,.346,2.079,2.079,0,0,1,0,.424,3.275,3.275,0,0,0,0,.592,2.339,2.339,0,0,1,.007.39c0,.08,0,.164,0,.244v.614a1.668,1.668,0,0,1,0,.63c0,.16-.007.273-.011.373,0,.084-.009.155-.009.242,0,.131-.007.228-.013.313a1.49,1.49,0,0,0,0,.3,1.44,1.44,0,0,1-.018.333,2.527,2.527,0,0,0-.022.293,3.533,3.533,0,0,1-.06.654,4.2,4.2,0,0,0-.071.519c-.016.133-.027.26-.044.35-.038.153-.062.3-.082.437a2.74,2.74,0,0,1-.075.366,2.385,2.385,0,0,0-.064.255,2.074,2.074,0,0,1-.151.488,1.916,1.916,0,0,0-.1.264,1.536,1.536,0,0,1-.2.444,2.229,2.229,0,0,0-.357.619,1.26,1.26,0,0,1-.5.663c-.013.007-.024.027-.044.058a.778.778,0,0,1-.217.228.388.388,0,0,0-.1.1.547.547,0,0,1-.222.191c-.186.1-.244.122-.291.251a.538.538,0,0,1-.4.335.5.5,0,0,0-.268.16,1.073,1.073,0,0,1-.191.157c-.042.038-.082.078-.122.118a.92.92,0,0,1-.457.3.544.544,0,0,0-.353.171c-.018.016-.035.029-.051.044a1.214,1.214,0,0,1-.331.166,1.071,1.071,0,0,0-.235.109,1.633,1.633,0,0,1-.311.144,1,1,0,0,0-.233.106,1.342,1.342,0,0,1-.419.209l-.078.031a1.472,1.472,0,0,1-.262.082,2.409,2.409,0,0,1-.348.087,2.829,2.829,0,0,1-.466.009m1.189-5.778a.878.878,0,0,1-.484-.146.788.788,0,0,1-.322-.424,2.159,2.159,0,0,1-.18-1.009,2.623,2.623,0,0,1,.08-.384,1.188,1.188,0,0,0,.055-.39,1.692,1.692,0,0,1,.011-.413l.009-.067a2.729,2.729,0,0,0,.009-.512c0-.073-.009-.151-.009-.253s.007-.189.011-.268a2.1,2.1,0,0,0,.007-.384,3.85,3.85,0,0,1,0-.6,3.145,3.145,0,0,0,0-.5,1.114,1.114,0,0,1,.007-.242,1.346,1.346,0,0,0-.007-.43,1.691,1.691,0,0,1-.007-.395,2.054,2.054,0,0,0,0-.311v-.02a2.108,2.108,0,0,0-.151-.918l-.038-.038a.674.674,0,0,0-.286-.2,1.023,1.023,0,0,0-.191-.051c-.193,0-.446-.1-.495-.255L70.2,8.9c-.049-.222.18-.359.388-.437.035-.011.069-.024.1-.038a.734.734,0,0,1,.628-.018,4.567,4.567,0,0,0,.517.109,1.44,1.44,0,0,1,.406.171c.071.035.144.075.213.106a2.567,2.567,0,0,1,.521.419,1.02,1.02,0,0,1,.237.512.38.38,0,0,1-.093.273.905.905,0,0,0-.122.242c-.033.113-.053.2-.078.313-.016.071-.033.151-.058.244l0,.009a.851.851,0,0,0-.009.4,1.379,1.379,0,0,1,.016.153l-.009.122a2.513,2.513,0,0,0-.013.446,1.739,1.739,0,0,1,.016.821.416.416,0,0,0-.013.082,2.086,2.086,0,0,1,0,.517l0,.04a4,4,0,0,1,0,.588,2.794,2.794,0,0,0,0,.51,8.56,8.56,0,0,1,.022.883c0,.087,0,.169,0,.248s0,.169.007.26a1.965,1.965,0,0,1-.051.736c-.135.382-.344.57-.632.57" transform="translate(85.509 8.859)" fill="#fff"/>
    <path id="Path_309" data-name="Path 309" d="M78.441,12.555a1.291,1.291,0,0,1-.657-.157c-.029-.013-.06-.029-.091-.042l-.08-.04a1.4,1.4,0,0,1-.344-.2.771.771,0,0,0-.144-.14.27.27,0,0,1-.14-.162l-.058-.055c-.016-.053-.082-.1-.153-.155a.691.691,0,0,1-.162-.16l-.109-.111a1.352,1.352,0,0,0-.242-.293l-.08-.14c-.182-.331-.211-.441-.093-.632.1-.126.275-.078.495.044.049.027.115.071.171.1l.035.016.18.113a3.082,3.082,0,0,0,.515.268,1.9,1.9,0,0,0,.53.089c.142,0,.291.007.421.011.1,0,.189.009.255.009.215-.007.37-.013.486-.02a1.732,1.732,0,0,1,.362,0l.009,0a.753.753,0,0,0,.4,0,1.339,1.339,0,0,1,.464-.02,2.667,2.667,0,0,0,.532,0c.1-.007.215-.016.326-.016s.22,0,.342-.009c.144,0,.311-.011.49-.011.113,0,.208-.007.311-.011a3.941,3.941,0,0,1,.526-.009,3.6,3.6,0,0,0,.5-.011,2.132,2.132,0,0,1,.353-.007,2.676,2.676,0,0,0,.548,0c.109-.009.213-.016.3-.016l1-.02,1-.038c.1,0,.235-.011.388-.024.193-.016.413-.033.621-.033a4.013,4.013,0,0,0,.987-.075l.009,0,.579-.078c.093-.016.173-.038.251-.058a1.159,1.159,0,0,1,.322-.06,1.41,1.41,0,0,1,.235.02,2.215,2.215,0,0,0,.288.02,2.553,2.553,0,0,1,.657.118l.073.02a.866.866,0,0,1,.506.275s.344.379.248.6c-.02.053-.053.124-.069.164-.062.146-.044.144-.138.2-.022.011-.047.024-.075.042a.891.891,0,0,1-.39.162,3.812,3.812,0,0,0-.457.051,1.69,1.69,0,0,1-.477.027c-.138,0-.242-.007-.326-.011a.769.769,0,0,0-.266.007l-.009,0a1.839,1.839,0,0,1-.759.02c-.044-.007-.084-.016-.131-.02l-1.406,0c-.113,0-.237.009-.359.02a1.735,1.735,0,0,1-.552,0,1.948,1.948,0,0,0-.535-.011c-.107.007-.215.013-.315.013-.2,0-.375.007-.528.011-.126,0-.248.009-.362.009-.2,0-.319.011-.444.02s-.244.018-.428.018c-.062,0-.135,0-.211-.011a1.638,1.638,0,0,0-.637.029,2.362,2.362,0,0,1-.57.035c-.122,0-.235,0-.333,0a1.922,1.922,0,0,1-.548.027,1.042,1.042,0,0,0-.311.009,1.511,1.511,0,0,1-.41.027c-.04,0-.08,0-.115,0a3.739,3.739,0,0,0-.688.018l-.189.027a2.6,2.6,0,0,1-.566.051,1.318,1.318,0,0,0-.37.084,1.536,1.536,0,0,1-.395.091" transform="translate(92.605 12.413)" fill="#fff"/>
    <path id="Path_310" data-name="Path 310" d="M66.4,36.344a.8.8,0,0,1-.3-.073l-.06-.024a1.132,1.132,0,0,0-.253-.06,1.375,1.375,0,0,1-.417-.113,1.249,1.249,0,0,0-.444-.089.78.78,0,0,1-.138-.013,2,2,0,0,0-.652,0,3.5,3.5,0,0,1-.492.024,5.155,5.155,0,0,0-.661.02c-.164.011-.322.022-.468.022l-.3,0a5.618,5.618,0,0,0-.8.022,2.4,2.4,0,0,1-.668.024,2.5,2.5,0,0,0-.466,0,1.885,1.885,0,0,1-.579.024,3.122,3.122,0,0,0-.541,0h-.011a6.479,6.479,0,0,0-1.1,0,2.986,2.986,0,0,1-.492.011,5.107,5.107,0,0,0-.6.009c-.279.016-.535.011-.781.007-.115,0-.228,0-.339,0l-.011,0a3.577,3.577,0,0,0-.652,0c-.142.009-.288.018-.428.018-.1,0-.222,0-.346-.009a4.675,4.675,0,0,0-.734.009,3.337,3.337,0,0,1-.774.013c-.118-.007-.228-.013-.328-.013H49.315a2.588,2.588,0,0,0-.546.075,2.631,2.631,0,0,1-.548.075c-.1,0-.2,0-.3.009a2.218,2.218,0,0,1-.843-.078.76.76,0,0,1-.523-.543.356.356,0,0,1,.062-.291.67.67,0,0,1,.477-.313,5.031,5.031,0,0,1,1.129-.064c.129.013.248.035.364.058a2.909,2.909,0,0,0,.719.069,1.445,1.445,0,0,1,.277.007,1.732,1.732,0,0,0,.4,0l.011,0c.033,0,.08,0,.142.011a1.7,1.7,0,0,0,.51,0,.622.622,0,0,1,.393-.031,2.374,2.374,0,0,0,.3.022c.062,0,.124,0,.189,0a4.075,4.075,0,0,0,.492,0L53,35.1H53a2.147,2.147,0,0,0,.606-.062c.042-.007.082-.016.122-.022l.011,0c.421-.067.49-.089.519-.251a1.234,1.234,0,0,0-.122-.725,3.062,3.062,0,0,1-.129-.388,1.915,1.915,0,0,0-.086-.273.624.624,0,0,0-.14-.291c-.058-.069-.106-.124-.129-.153l-.031-.035a.733.733,0,0,1-.237-.486.3.3,0,0,1,.133-.217,1.275,1.275,0,0,1,1.014.1c.042.027.1.064.151.1.122.084.02-.009.1.033a1.58,1.58,0,0,1,.455.364,1.116,1.116,0,0,0,.093.082,1.368,1.368,0,0,1,.231.242.83.83,0,0,1,.149.244.368.368,0,0,0,.08.133,1.261,1.261,0,0,1,.231.845c0,.062,0,.12.007.171.013.173.06.2.222.3.064.04.144.087.237.155a.735.735,0,0,0,.586.133,2.447,2.447,0,0,0,.692-.018.523.523,0,0,0,.255-.231c.051-.08.084-.184.138-.277l.153-.563a.938.938,0,0,0,.091-.337,1.389,1.389,0,0,1,.031-.18,1.944,1.944,0,0,0,.1-.572c0-.526.071-.805.233-.907a1.179,1.179,0,0,1,.918-.08c.1.018.206.038.311.047a.864.864,0,0,1,.359.106.578.578,0,0,0,.164.067c.244.071.37.521.388.6.064.3-.215.344-.417.4a2.567,2.567,0,0,0-.246.12.226.226,0,0,0-.14.18c-.042.142-.027.1-.166.262a.417.417,0,0,0-.082.173.451.451,0,0,1-.133.224.6.6,0,0,0-.293.437l0,.055c-.02.175-.029.24.171.331a2.5,2.5,0,0,0,.83.209,3.046,3.046,0,0,0,.353,0,2.926,2.926,0,0,1,.4,0,1.662,1.662,0,0,0,.468,0,2.49,2.49,0,0,1,.714,0l.009,0a2.752,2.752,0,0,0,.972-.1.921.921,0,0,0,.284-.131c.071-.078.169-.1.226-.162.027-.027.1-.115.122-.142.082-.071.029-.044.12-.2a.491.491,0,0,1,.175-.164.437.437,0,0,0,.16-.18c.122-.235.222-.413.433-.424a.544.544,0,0,1,.441.277l.024.038a.435.435,0,0,0,.355.264.515.515,0,0,1,.291.186,2.477,2.477,0,0,0,.324.293.67.67,0,0,1,.186.177.853.853,0,0,0,.51.359l.047.016a.306.306,0,0,1,.171.184.489.489,0,0,1-.016.359.729.729,0,0,1-.366.373.815.815,0,0,0-.111.067.568.568,0,0,1-.322.106M61.755,32.56a.448.448,0,0,1-.211-.042c-.071-.033-.06-.162-.153-.41a1.807,1.807,0,0,0-.1-.248A1.046,1.046,0,0,0,61,31.728c-.042-.02-.089-.04-.14-.067a.975.975,0,0,0-.481-.129,1.752,1.752,0,0,1-.728.011c-.133-.011-.362.02-.488.02H57.043c-.087,0-.191,0-.3.009a4.981,4.981,0,0,1-.759-.009,2.56,2.56,0,0,0-.486,0,2.049,2.049,0,0,1-.563,0,7.052,7.052,0,0,0-.954.018c-.277.022-.315-.115-.552.064l-.175.038c-.073.04-.2.118-.262.149a.815.815,0,0,0-.377.313.853.853,0,0,1-.75.35l-.075.013c-.5-.2-.488-.413-.5-.792a.624.624,0,0,1,0-.064l.044-1.524c0-.024,0-.06-.007-.1a2.454,2.454,0,0,1,.007-.568,1.14,1.14,0,0,0,0-.3.73.73,0,0,1,.027-.377,3.111,3.111,0,0,0,.013-.834c-.009-.133-.018-.257-.018-.359a1.221,1.221,0,0,0-.02-.344c-.1-.464-.193-.834.058-.956.231-.111.468.053.73.193.073.04.149.08.222.113l.832.384a1.2,1.2,0,0,0,.659-.02,1.883,1.883,0,0,1,.3-.031h1.992c.1,0,.215-.009.333-.02a1.91,1.91,0,0,1,.692.022,1.874,1.874,0,0,0,.486,0,1.755,1.755,0,0,1,.517,0,3.636,3.636,0,0,0,.96,0,4.347,4.347,0,0,1,.51,0c.069,0,.131,0,.184,0a1.137,1.137,0,0,0,.244-.016.9.9,0,0,1,.439.018,1.12,1.12,0,0,0,.685-.251c.058-.058.149-.166.2-.217.144-.151.144-.231.353-.242a.487.487,0,0,1,.335.1.5.5,0,0,0,.1.051,1.572,1.572,0,0,1,.581.379,1.027,1.027,0,0,0,.215.213.976.976,0,0,1,.233.235.808.808,0,0,0,.1.12.358.358,0,0,1,.138.346c-.04.191-.191.266-.382.406-.051.038-.149.144-.189.18a.423.423,0,0,0-.118.475.521.521,0,0,1,.018.224,2.414,2.414,0,0,0,.02.674l0,.013a2.448,2.448,0,0,1,0,.319,1.049,1.049,0,0,0,.022.353,1.7,1.7,0,0,1,.02.743.988.988,0,0,0-.022.468c.009.064.018.138.024.235.024.306-.1.306-.306.481-.049.04-.1.078-.149.122a1.087,1.087,0,0,1-.61.2m-4.064-2.023a2.856,2.856,0,0,1,.435.027,1.487,1.487,0,0,0,.6.013,1.944,1.944,0,0,1,.446-.016,4.513,4.513,0,0,0,1.069,0,.625.625,0,0,0,.539-.406c.033-.06.069-.12.1-.18a.936.936,0,0,0,.209-.643,1.877,1.877,0,0,1,0-.315,2.51,2.51,0,0,0,0-.5l0-.013a1.061,1.061,0,0,0-.262-.382,1.789,1.789,0,0,0-.552-.2c-.113,0-.224,0-.337,0-.226,0-.459-.009-.73,0a4.121,4.121,0,0,1-.475,0,3.254,3.254,0,0,0-.548,0h-.009c-.124,0-.233,0-.337,0-.2,0-.386-.009-.665,0-.26.016-.548.009-.781,0-.1,0-.182,0-.251,0-.155,0-.3,0-.421-.009a3.271,3.271,0,0,0-.594.009c-.049,0-.1.009-.162.016a3.049,3.049,0,0,1-1.076-.02c-.1-.027-.357.1-.472.382l-.007.011a4.951,4.951,0,0,0-.355.794,1.787,1.787,0,0,0-.024.546c0,.1.007.191.007.286a.427.427,0,0,0,.24.393,1.689,1.689,0,0,1,.319.129.911.911,0,0,0,.257.1,4.3,4.3,0,0,1,.439,0,4.287,4.287,0,0,0,.639,0,4.588,4.588,0,0,1,.754-.011c.115,0,.224.009.308.009s.184,0,.286.009a5.362,5.362,0,0,0,.774-.009c.186-.011.419-.024.637-.024m-5.71-5.887a1.6,1.6,0,0,1-.441.373,4.887,4.887,0,0,0-.512.475l-.007,0c-.08.073-.133.129-.18.175a2.289,2.289,0,0,1-.366.306c-.106.091-.2.162-.279.22a.941.941,0,0,0-.233.209,1.086,1.086,0,0,1-.49.4c-.049.024-.1.047-.135.071-.151.1-.264.2-.377.291-.087.071-.177.144-.282.222a1.924,1.924,0,0,1-.617.319c-.027,0-.233.06-.264.067a1.392,1.392,0,0,1-.333.035c-.144,0-.4-.051-.468-.222-.1-.253-.038-.328.138-.6l.144-.153a1.777,1.777,0,0,1,.661-.539,2.782,2.782,0,0,0,.448-.395l.035-.031c.033-.029.062-.055.091-.082a2.207,2.207,0,0,1,.459-.335l.009-.007a1.365,1.365,0,0,0,.235-.2,2.353,2.353,0,0,1,.235-.211,2.208,2.208,0,0,1,.555-.441.876.876,0,0,0,.257-.244,1.029,1.029,0,0,1,.228-.224,1.84,1.84,0,0,0,.446-.426,2.783,2.783,0,0,1,.41-.421l.093-.084a2.687,2.687,0,0,0,.437-.479c.113-.146.206-.251.282-.335a1.168,1.168,0,0,0,.142-.173c.031-.049.082-.115.146-.2a4.33,4.33,0,0,0,.262-.359c.038-.055.069-.113.1-.173a1.427,1.427,0,0,1,.342-.448.4.4,0,0,0,.144-.2,1.31,1.31,0,0,1,.1-.173c.024-.029.049-.058.08-.089a.907.907,0,0,0,.251-.4c.022-.084.033-.209-.146-.366a.81.81,0,0,0-.65-.193h-.856c-.1,0-.217.009-.342.018a2.48,2.48,0,0,1-.8-.022,2.913,2.913,0,0,0-.87-.013c-.073.007-.146.013-.215.018a4.655,4.655,0,0,0-.475.078c-.131.027-.264.053-.4.071a2.055,2.055,0,0,1-.969-.093c-.311-.175-.484-.362-.515-.555-.033-.231.138-.421.521-.583a1.83,1.83,0,0,1,.55-.042c.129,0,.262,0,.4-.007a1.666,1.666,0,0,1,.479.069,1.5,1.5,0,0,0,.4.06,2.17,2.17,0,0,1,.55,0,2.287,2.287,0,0,0,.579,0,7.107,7.107,0,0,1,1.151,0c.186.009.353,0,.512,0a3.7,3.7,0,0,1,.626,0,5.9,5.9,0,0,0,.814.009c.113,0,.217-.009.313-.009.051,0,.064-.02.1-.142a.7.7,0,0,1,.089-.209.589.589,0,0,1,.421-.26L55.031,18a.26.26,0,0,1,.208.062.719.719,0,0,0,.237.111.484.484,0,0,1,.242.189.58.58,0,0,0,.293.217.8.8,0,0,1,.373.339c.04.053.08.109.122.157a1.1,1.1,0,0,0,.1.1.278.278,0,0,1,.106.346c-.011.033-.022.062-.033.089a.486.486,0,0,1-.359.368,1.692,1.692,0,0,1-.222.049.491.491,0,0,0-.282.1.775.775,0,0,0-.169.273.649.649,0,0,1-.228.315,1.591,1.591,0,0,0-.388.526l-.013.024a1.861,1.861,0,0,1-.4.55l-.04.044a3.52,3.52,0,0,1-.484.546,1.59,1.59,0,0,0-.279.3,2.087,2.087,0,0,1-.2.244c-.042.042-.091.087-.14.133a2.234,2.234,0,0,0-.342.366,1.5,1.5,0,0,1-.348.37c-.062.053-.122.1-.175.157L52.591,24c-.109.1-.333.268-.393.322s-.169.282-.217.331m.641-.255c.138-.149.138-.1.377-.206a2.242,2.242,0,0,1,.557-.087c.1-.007.2-.016.3-.029a1.452,1.452,0,0,1,.435.064,1.443,1.443,0,0,0,.495.064,3.38,3.38,0,0,1,.83,0l.171.024a1.042,1.042,0,0,0,.6-.02.867.867,0,0,1,.37-.007,1.2,1.2,0,0,0,.428,0,1.261,1.261,0,0,1,.368.011c.138.018.033.035.18-.009a.67.67,0,0,0,.377-.268c.058-.08.189-.2.273-.293a.681.681,0,0,0,.08-.146c.1-.213.24-.53.559-.437a.7.7,0,0,1,.441.2c.155.14.142.348.437.43l.253.124a.921.921,0,0,1,.388.486c.018.031.231.291.257.328.1.144.215.1.078.366-.2.277-.488.233-.87.182a7.447,7.447,0,0,0-.923-.058,2.694,2.694,0,0,1-.659.027c-.055,0-.106,0-.153,0l-.535.042h0a5.479,5.479,0,0,0-.568,0c-.064,0-.122,0-.171,0-.151,0-.286.007-.415.011-.113,0-.222.011-.331.011h-.723c-.084,0-.166,0-.248-.007a4.123,4.123,0,0,0-.468,0c-.106.02-.237.04-.382.06-.169.027-.362.055-.563.091a3.254,3.254,0,0,1-.852-.044l-.144-.02-.009,0a.59.59,0,0,1-.395-.246.4.4,0,0,1-.051-.2.812.812,0,0,1,.213-.446m12.832,2.653a.537.537,0,0,1-.386-.162.5.5,0,0,0-.118-.08.816.816,0,0,1-.155-.1.767.767,0,0,0-.279-.153.966.966,0,0,1-.353-.182l-.124-.087a2.837,2.837,0,0,0-.435-.251l-.011,0c-.138-.047-.368-.122-.444-.324-.02-.047-.075-.073-.162-.113a.813.813,0,0,1-.246-.155,1.923,1.923,0,0,0-.39-.288,2.194,2.194,0,0,1-.424-.333,1.709,1.709,0,0,0-.189-.144.979.979,0,0,1-.293-.277,1.156,1.156,0,0,0-.24-.213,1.063,1.063,0,0,1-.224-.2c-.02-.02-.049-.049-.084-.08a1.7,1.7,0,0,1-.359-.395.649.649,0,0,0-.262-.273.483.483,0,0,1-.182-.166,1.177,1.177,0,0,0-.224-.26.773.773,0,0,1-.189-.222.626.626,0,0,0-.149-.193A1.3,1.3,0,0,1,59.3,22.1a1.66,1.66,0,0,0-.2-.273c-.055-.067-.118-.142-.182-.235s-.206-.311-.362-.51a3.16,3.16,0,0,1-.235-.355l-.049-.082c-.018-.031-.038-.058-.058-.087a2.618,2.618,0,0,1-.2-.346,1.762,1.762,0,0,0-.251-.439.706.706,0,0,1-.08-.169.814.814,0,0,0-.146-.271,1.1,1.1,0,0,1-.233-.5,2.01,2.01,0,0,1-.1-.244.421.421,0,0,0-.093-.193.381.381,0,0,1-.138-.279.419.419,0,0,0-.071-.206,1.21,1.21,0,0,1-.206-.548.3.3,0,0,1,.14-.284.54.54,0,0,1,.515-.042.925.925,0,0,1,.322.57.784.784,0,0,0,.251.446.827.827,0,0,1,.253.364.55.55,0,0,0,.058.12c.024.031.044.058.064.087a2.068,2.068,0,0,1,.248.4l0,.011a.827.827,0,0,0,.16.228.709.709,0,0,1,.138.191.522.522,0,0,0,.142.171.5.5,0,0,1,.184.271c.031.193.322.233.561.233a.559.559,0,0,0,.421-.1c.044-.024.1-.055.162-.089.036-.018.06-.06.093-.129a.589.589,0,0,1,.173-.228.644.644,0,0,0,.248-.322.7.7,0,0,1,.242-.364l.055-.053a.885.885,0,0,0,.122-.162c.035-.055.078-.124.149-.217a.974.974,0,0,0,.106-.169,1.039,1.039,0,0,1,.18-.244.346.346,0,0,0,.051-.129.47.47,0,0,1,.222-.313c.171-.1.628.12.681.146a1.12,1.12,0,0,0,.552.237.782.782,0,0,1,.464.215c.049.038.153.126.215.164.271.164.315.262.286.481-.033.266-.115.2-.453.331a1.431,1.431,0,0,1-.464.049,1.256,1.256,0,0,0-.415.14,1.8,1.8,0,0,0-.273.26,1.261,1.261,0,0,1-.3.262,3.914,3.914,0,0,0-.306.248,1.742,1.742,0,0,1-.359.268,6.356,6.356,0,0,0-.61.419.865.865,0,0,0-.135.512c0,.175.055.228.2.477a1.081,1.081,0,0,0,.268.279c.12.071.2.04.22.12a1.257,1.257,0,0,0,.16.1c.011,0,.071-.016.08-.02.044-.022.1,0,.2-.029l.12-.071c.173-.067.182-.029.3-.164a2.5,2.5,0,0,0,.186-.235,2.052,2.052,0,0,1,.182-.217,2.563,2.563,0,0,0,.377-.421c.06-.075.113-.133.16-.182a.673.673,0,0,0,.151-.206.589.589,0,0,1,.2-.262.531.531,0,0,0,.124-.131c.062-.091.113-.153.153-.2a.879.879,0,0,0,.142-.215c.02-.044.033-.084.047-.122a.5.5,0,0,1,.3-.353.331.331,0,0,1,.388.091.762.762,0,0,0,.228.144,2.878,2.878,0,0,1,.282.149,1.377,1.377,0,0,0,.171.089l.543.317a.466.466,0,0,1,.275.4c0,.217-.084.246-.284.326-.115.047-.557.189-.736.248a1.539,1.539,0,0,0-.5.424l-.126.133a2.884,2.884,0,0,1-.532.386,2.045,2.045,0,0,0-.2.131l-.009.009a1.068,1.068,0,0,0-.1.073,1.422,1.422,0,0,1-.5.279c-.189.047-.191.109-.233.24l-.02.171a.258.258,0,0,0,.02.22,1.2,1.2,0,0,0,.131.22,1.411,1.411,0,0,1,.47.282.975.975,0,0,0,.353.2,1.168,1.168,0,0,1,.435.209,1.061,1.061,0,0,0,.244.138,2.777,2.777,0,0,1,.331.169c.078.044.149.087.253.135s.237.093.382.155l.237.1a2.213,2.213,0,0,0,.85.18c.226.009.512-.009.61.3a.781.781,0,0,1-.206.634l-.013.033a.817.817,0,0,1-.546.39l-.047.011a2.518,2.518,0,0,0-.286.151,1.472,1.472,0,0,1-.342.109c-.055.007-.118.069-.18.129a.474.474,0,0,1-.3.173M50.755,23.3a.586.586,0,0,1-.517-.242l-.009-.009a1.861,1.861,0,0,0-.384-.406,1.108,1.108,0,0,1-.284-.3,2.885,2.885,0,0,0-.2-.246,1.75,1.75,0,0,1-.235-.248.459.459,0,0,0-.277-.2,1.393,1.393,0,0,1-.5-.237,1.56,1.56,0,0,0-.282-.157c-.222-.033-.532-.18-.594-.35a.154.154,0,0,1,.038-.184A1.107,1.107,0,0,1,48,20.478l.016,0a.669.669,0,0,0,.071-.009,1.219,1.219,0,0,1,.6.053l.67.155c.1.024.186.055.271.084a1.521,1.521,0,0,0,.424.106,1.14,1.14,0,0,1,.663.251c.064.04.122.082.18.124a1.572,1.572,0,0,0,.3.189.482.482,0,0,1,.273.279c.024.049.044.093.073.106.222.126.189.417.173.555a.778.778,0,0,1-.306.568c-.078.067-.135.122-.184.171a.479.479,0,0,1-.364.193h-.1" transform="translate(56.705 20.703)" fill="#fff"/>
    <path id="Path_311" data-name="Path 311" d="M58.363,37.171c-.328,0-.661-.078-.761-.315a.351.351,0,0,1,.011-.368.749.749,0,0,1,.566-.353.722.722,0,0,0,.253-.115c.08-.047.1-.031.231-.055a1.506,1.506,0,0,0,.375-.14,1.966,1.966,0,0,1,.2-.067c.058-.011.231-.033.3-.04.155-.013.18-.047.362-.173a1.3,1.3,0,0,1,.8-.242h.009a1.318,1.318,0,0,0,.433-.155,1.973,1.973,0,0,1,.286-.122,1.919,1.919,0,0,0,.53-.211l.16-.082a6.794,6.794,0,0,0,.7-.382c.058-.033.124-.067.2-.1a1.46,1.46,0,0,0,.472-.313,2.611,2.611,0,0,1,.481-.386.655.655,0,0,0,.291-.26.421.421,0,0,1,.1-.115,1.027,1.027,0,0,0,.339-.4.767.767,0,0,1,.189-.231.286.286,0,0,0,.124-.2.364.364,0,0,1,.1-.166.631.631,0,0,0,.14-.248,2.05,2.05,0,0,1,.248-.455c.093-.126.04-.22-.1-.435-.042-.067-.091-.14-.14-.224a1.2,1.2,0,0,0-.293-.2l-.082-.047a.492.492,0,0,0-.342-.091,1.047,1.047,0,0,1-.142-.007,3.727,3.727,0,0,0-.98-.018c-.089.007-.177.016-.266.02-.069,0-.133,0-.2.011a1.762,1.762,0,0,1-.566-.013,2.55,2.55,0,0,0-.546-.007c-.078,0-.144.009-.189.009a1.519,1.519,0,0,0-.284.009,1.367,1.367,0,0,1-.464-.011,2.036,2.036,0,0,0-.705,0l-.022,0a3.79,3.79,0,0,0-.67.084c-.131.024-.264.049-.39.064a2.826,2.826,0,0,1-.9-.047c-.089-.016-.173-.029-.255-.04l-.013,0c-.39-.109-.506-.231-.53-.566,0-.226.1-.335.515-.552a1.523,1.523,0,0,1,.772-.08c.133.007.273.013.4.007a1.948,1.948,0,0,1,.665.067,1.9,1.9,0,0,0,.41.062l.184,0a4.852,4.852,0,0,0,.575,0,2.085,2.085,0,0,1,.322,0,3.856,3.856,0,0,0,.452,0,2.551,2.551,0,0,1,.373,0,3.35,3.35,0,0,0,.4,0,5.016,5.016,0,0,1,.546,0c.08,0,.158,0,.233,0a2.362,2.362,0,0,1,.262.02,1.432,1.432,0,0,0,.63-.016,1.08,1.08,0,0,1,.488,0,1.135,1.135,0,0,0,.433,0l.013,0,.091-.013a1.36,1.36,0,0,0,.69-.293c.031-.024.062-.049.091-.073.251-.2.346-.271.346-.479a1.486,1.486,0,0,1,.042-.284,2.505,2.505,0,0,0,.064-.466,2.87,2.87,0,0,1,.044-.641.343.343,0,0,0,.011-.069.321.321,0,0,1,.04-.166.327.327,0,0,1,.122-.124.563.563,0,0,0-.091-.007c-.171,0-.326.011-.475.022-.129.011-.248.02-.362.02a.717.717,0,0,1-.233-.024,2.765,2.765,0,0,0-.634-.007,3.385,3.385,0,0,1-.421.009l-.115-.011a2.6,2.6,0,0,0-.929.009,1.9,1.9,0,0,1-.768.031c-.1-.011-.193-.022-.306-.029-.086,0-.169-.009-.244-.016a3.327,3.327,0,0,0-.81.016,2.166,2.166,0,0,1-.7.02c-.111-.009-.224-.02-.362-.02a2.793,2.793,0,0,0-.632.078,4.2,4.2,0,0,1-.43.073,2.64,2.64,0,0,1-1.173-.091c-.18-.073-.654-.262-.519-.6.013-.031.024-.058.033-.084.064-.162.138-.275.5-.4a2,2,0,0,1,.85-.082c.1.007.2.013.311.013a2.667,2.667,0,0,1,.552.033,1.97,1.97,0,0,0,.5.058,5.2,5.2,0,0,1,.6,0c.091,0,.177,0,.242,0a1.343,1.343,0,0,0,.3-.018,1.137,1.137,0,0,1,.561.022,1.755,1.755,0,0,0,.546.009c.1-.007.186-.013.264-.013.038,0,.071.007.1.011a2.366,2.366,0,0,0,.716-.009,1.894,1.894,0,0,1,.548,0,1.265,1.265,0,0,0,.328,0,2.553,2.553,0,0,1,.912,0,.5.5,0,0,0,.226-.047.759.759,0,0,1,.271-.062.824.824,0,0,0,.428-.2,3,3,0,0,1,.226-.237.743.743,0,0,0,.268-.388c.011-.067.022-.133.033-.193.038-.2.055-.311-.009-.375l-.042-.047a1.113,1.113,0,0,0-.306-.242,1.415,1.415,0,0,0-.761-.18,4.079,4.079,0,0,1-.495,0c-.071,0-.14,0-.2,0H63.591a2.2,2.2,0,0,1-.492.009c-.06,0-.118-.009-.177-.009h-.663c-.113,0-.215,0-.306-.007a1.97,1.97,0,0,0-.319,0,4.777,4.777,0,0,1-1.087.151c-.131,0-.246.007-.348.013a1.96,1.96,0,0,1-.878-.153c-.28-.075-.41-.155-.472-.311a.28.28,0,0,1,.022-.255.442.442,0,0,0,.031-.064.623.623,0,0,1,.486-.4,3.474,3.474,0,0,1,1.173-.106c.089.016.173.035.255.055a1.941,1.941,0,0,0,.79.071,2.419,2.419,0,0,1,.359-.007c.08,0,.175.007.3.007h1.329c.067,0,.129,0,.193-.009a1.822,1.822,0,0,1,.461.009,3.8,3.8,0,0,0,.481,0c.071,0,.138,0,.191,0a2.166,2.166,0,0,1,.335.011.838.838,0,0,0,.313,0,1.3,1.3,0,0,1,.279-.082.787.787,0,0,0,.466-.22l.087-.084c.173-.171.3-.293.3-.481v-.6c0-.1-.073-.129-.388-.22a7.173,7.173,0,0,0-.889-.169,2.314,2.314,0,0,0-.519-.009c-.093,0-.182.009-.26.009H63.072a2.393,2.393,0,0,1-.282-.02.968.968,0,0,0-.446.018,2.323,2.323,0,0,1-.561.011c-.078,0-.153-.009-.211-.009h-.748a3.735,3.735,0,0,0-.634.084c-.16.029-.311.058-.43.067a3.119,3.119,0,0,1-1.209-.153c-.386-.138-.557-.313-.481-.535a.719.719,0,0,1,.55-.466,2.611,2.611,0,0,1,1.142-.126c.237.013.47.047.7.078.122.018.246.035.373.051a4.957,4.957,0,0,0,.967,0,3.68,3.68,0,0,1,.606-.007c.175.007.375.016.619,0a3.094,3.094,0,0,0,.834-.144c.22-.089.206-.153.2-.184a1.6,1.6,0,0,0-.324-.708c-.067-.067-.14-.153-.217-.244a2.524,2.524,0,0,0-.326-.346,1.309,1.309,0,0,1-.37-.561l-.035-.075a.413.413,0,0,1,.02-.375,2.045,2.045,0,0,0,.064-.271c.058-.184.177-.184.457-.184.024,0,.106-.013.135-.016a.689.689,0,0,1,.521.122,2.639,2.639,0,0,0,.43.237c.044.027.084.047.111.064a1.244,1.244,0,0,1,.228.16.9.9,0,0,0,.231.155l.011,0a1.684,1.684,0,0,1,.694.674,2.432,2.432,0,0,1,.268,1.018c0,.029.007.064.009.1.011.149.022.3.14.37a1.575,1.575,0,0,0,.71.2c.169,0,.313-.009.439-.016a1.251,1.251,0,0,1,.481.02,1.682,1.682,0,0,0,.382,0,1.271,1.271,0,0,1,.273,0,.735.735,0,0,0,.677-.408,1.776,1.776,0,0,1,.144-.4c.027-.058.053-.113.073-.169a1.218,1.218,0,0,1,.113-.228.677.677,0,0,0,.118-.286l0-.013a3.83,3.83,0,0,1,.162-.47c.042-.106.082-.206.118-.326a1.317,1.317,0,0,0,.04-.306c.016-.279.038-.63.317-.63a1.611,1.611,0,0,1,.734.251,1.92,1.92,0,0,0,.725.131l.047,0a.674.674,0,0,1,.4.184.584.584,0,0,0,.087.064A.533.533,0,0,1,72.4,18a.426.426,0,0,1-.222.317c-.033.024-.069.049-.106.078a.756.756,0,0,1-.413.135.722.722,0,0,0-.184.067,1.241,1.241,0,0,0-.306.393l0,.009a1.461,1.461,0,0,0-.306.743.429.429,0,0,0,.408.322h1.435a3.2,3.2,0,0,1,.366.033c.228.031.486.064.588-.016a.872.872,0,0,0,.322-.337L74,19.7a.814.814,0,0,1,.348-.355l.007,0a.625.625,0,0,0,.3-.319c.007-.018.071-.1.08-.115.151-.242.235-.275.362-.279a1.059,1.059,0,0,1,.677.5c.013,0,.038.013.058.018a.786.786,0,0,1,.306.164.582.582,0,0,0,.182.084.979.979,0,0,1,.4.217.864.864,0,0,0,.144.1.587.587,0,0,1,.326.388l.038.1c.071.184.18.257.089.435a5.188,5.188,0,0,1-.388.424,1.074,1.074,0,0,1-.177.106.731.731,0,0,1-.481-.011c-.064-.013-.189-.029-.273-.047-.144-.035-.353-.038-.488-.064l-.12-.022a2.631,2.631,0,0,0-.461-.062c-.1,0-.224.011-.357.024A3.638,3.638,0,0,1,73.83,21a4.915,4.915,0,0,0-.617.02c-.155.011-.317.024-.466.024s-.286,0-.408-.007c-.213,0-.4-.009-.614.007l-.109.007a4.95,4.95,0,0,1-.956.013,2.637,2.637,0,0,0-.475,0,3.264,3.264,0,0,1-.705,0,1.19,1.19,0,0,0-.543.1c-.029.016-.062.038-.1.06-.086.053-.193.12-.333.2a1.118,1.118,0,0,0-.106.548,3.3,3.3,0,0,1,0,.439c0,.047,0,.089,0,.133.016.129.018.129.215.2l.029.009a2.788,2.788,0,0,1,.266.109.4.4,0,0,0,.326.06,3.446,3.446,0,0,1,1.171,0l.009,0a2.169,2.169,0,0,0,1.027,0,1.1,1.1,0,0,1,.552.024c.175.038.326.069.421-.007a2.571,2.571,0,0,0,.472-.532.207.207,0,0,1,.024-.042,1.785,1.785,0,0,1,.515-.532c.169-.035.319.084.546.228.067.044.224.089.308.131a2.284,2.284,0,0,1,.519.319,4.348,4.348,0,0,0,.481.3c.1.053.224.18.275.213.213.149.268.226.211.49a.478.478,0,0,1-.428.419c-.14,0-.208,0-.273.009a2.41,2.41,0,0,1-.264.011,1.265,1.265,0,0,1-.612-.118.325.325,0,0,0-.184-.022.731.731,0,0,1-.342,0,1.326,1.326,0,0,0-.546.007,2.3,2.3,0,0,1-.393.04l-.921.022c-.1,0-.22.007-.346.016a2.654,2.654,0,0,1-.592,0,3.365,3.365,0,0,0-.43.011,3.114,3.114,0,0,1-.439.011,1.337,1.337,0,0,0-.253.011,2.013,2.013,0,0,1-.681-.013.559.559,0,0,0-.415.293c-.038.089-.078.173-.113.251a1.432,1.432,0,0,0-.14.362,1.228,1.228,0,0,1,.016.557.945.945,0,0,0-.013.1c0,.053,0,.193.35.217a3.266,3.266,0,0,1,.759.146l.177.049a1.952,1.952,0,0,0,.453.007c.1,0,.2-.011.3-.011h3c.124,0,.231.011.324.018a.771.771,0,0,0,.328-.009.337.337,0,0,0,.131-.149.656.656,0,0,1,.175-.209,1.446,1.446,0,0,0,.279-.344.556.556,0,0,1,.129-.131.542.542,0,0,0,.164-.2.07.07,0,0,1,.013-.038,1.448,1.448,0,0,1,.324-.333l.038-.016c.089-.022.12.073.184.106s.144.109.222.146a.959.959,0,0,1,.373.233c.02.027.035.055.051.071a2.732,2.732,0,0,0,.433.366,2.67,2.67,0,0,1,.271.209,4.347,4.347,0,0,0,.49.339.718.718,0,0,1,.1.06c.237.186.24.288.14.53a.628.628,0,0,1-.4.379.6.6,0,0,1-.377.075,1.325,1.325,0,0,0-.26-.033,1.35,1.35,0,0,1-.517-.078,1.807,1.807,0,0,0-.211-.08l-.575-.084a2.385,2.385,0,0,0-.634.013,1.634,1.634,0,0,1-.5.009,4.134,4.134,0,0,0-1.062.04,3.348,3.348,0,0,1-1.14.024c-.257-.013-.475,0-.685.007-.135.007-.264.013-.4.013-.1,0-.209.007-.324.013a7.372,7.372,0,0,1-.75.009c-.1-.007-.186-.016-.277-.024a1.968,1.968,0,0,0-.787.022,1.8,1.8,0,0,1-.579.067h-.04a.705.705,0,0,1,.06.042.287.287,0,0,0,.082.049l.009,0c.186.062.5.209.528.479a1.062,1.062,0,0,1-.182.614,2.422,2.422,0,0,0-.122.257.5.5,0,0,1-.144.182.521.521,0,0,0-.193.308c-.013.144.036.228.335.275l.011,0,.106.033a3.08,3.08,0,0,0,.71.157l.814.064c.113.007.215.018.313.029a4.248,4.248,0,0,0,.495.035c.151,0,.26,0,.366.009s.222.011.384.011c.087,0,.16,0,.228,0a3.053,3.053,0,0,1,.555.024l.011,0a.815.815,0,0,0,.319,0,1.1,1.1,0,0,1,.4,0l.06.007a1.73,1.73,0,0,0,.6,0,.466.466,0,0,0,.166-.169c.035-.049.08-.111.146-.193a1.149,1.149,0,0,1,.2-.215.435.435,0,0,0,.133-.155.914.914,0,0,1,.379-.4c.049-.022.1-.122.149-.18.118-.142.151-.182.259-.193a.449.449,0,0,1,.373.228.383.383,0,0,0,.058.067l.164.12c.111.08.166.12.244.182l.1.089a1.258,1.258,0,0,0,.271.2.508.508,0,0,1,.131.124.448.448,0,0,0,.226.171,1,1,0,0,1,.293.231.839.839,0,0,0,.264.2.713.713,0,0,1,.257.151.476.476,0,0,1-.02.344,1.053,1.053,0,0,1-1.069.561l-.129-.031c-.049-.013-.213-.055-.279-.075a1.912,1.912,0,0,0-.506-.064.876.876,0,0,1-.355-.087c-.111-.049-.169-.071-.251-.031a1.228,1.228,0,0,1-.677.029.839.839,0,0,0-.366.011.468.468,0,0,1-.246.007,2.189,2.189,0,0,0-1.125.042l-.027,0a2.65,2.65,0,0,1-.936.024c-.08-.009-.162-.018-.242-.022a7.073,7.073,0,0,0-1.14.02,3.646,3.646,0,0,1-.457.007c-.073,0-.153,0-.26,0-.453,0-.515.18-.515.339l.007.115c.009.182.022.488.206.586a1.941,1.941,0,0,1,.579.488,1.057,1.057,0,0,0,.35.277c.042.024.082.047.124.073l.011.009a1.513,1.513,0,0,0,.282.2c.064.038.135.078.224.14.062.038.12.075.175.111a2.13,2.13,0,0,0,.364.2l.586.3c.075.04.138.078.2.111a.963.963,0,0,0,.457.18h0a1.1,1.1,0,0,1,.375.138,1.805,1.805,0,0,0,.339.142,1.838,1.838,0,0,1,.342.118,1.608,1.608,0,0,0,.346.118,2.242,2.242,0,0,1,.368.12,1.016,1.016,0,0,0,.342.093l.415.02c.22-.027.548.138.852.084a1.589,1.589,0,0,1,.426-.029c.073.007.26-.027.328-.027a1.3,1.3,0,0,1,.619.109c.326.151.328.135.424.426l.075.14a1.5,1.5,0,0,0,0,.173c.033.182-.071.191-.182.4a1.041,1.041,0,0,1-.388.377l-.237.151a2.82,2.82,0,0,0-.47.26.918.918,0,0,0-.182.171.785.785,0,0,1-.226.193c-.138.087-.337-.009-.51-.093a.8.8,0,0,0-.237-.089,1.082,1.082,0,0,1-.486-.111,2.017,2.017,0,0,0-.222-.087c-.115-.038-.2-.055-.266-.073a1.3,1.3,0,0,1-.437-.169l-.007,0a1.993,1.993,0,0,0-.5-.184c-.058-.016-.106-.029-.14-.04a2.283,2.283,0,0,1-.668-.313.862.862,0,0,0-.366-.189,1.373,1.373,0,0,1-.264-.1,2.444,2.444,0,0,1-.222-.14,2.311,2.311,0,0,0-.368-.22,3.809,3.809,0,0,1-.643-.4l-.009-.009a1.3,1.3,0,0,0-.437-.326L70.31,34.2a1.375,1.375,0,0,1-.517-.448l-.007-.011a.949.949,0,0,0-.426-.39.636.636,0,0,1-.355-.339.8.8,0,0,0-.106-.153l-.007-.007-.41-.521c-.166-.26-.279-.346-.346-.373a.526.526,0,0,1-.2-.144.416.416,0,0,0-.206-.133c-.126-.038-.3-.093-.359-.062a.072.072,0,0,0-.027.047.725.725,0,0,1-.169.359.641.641,0,0,0-.093.146.747.747,0,0,0-.04.153.354.354,0,0,1-.206.291.815.815,0,0,0-.348.457.978.978,0,0,1-.051.115l-.007.007c-.064.087-.12.16-.169.226a1.843,1.843,0,0,1-.273.324,2.471,2.471,0,0,0-.448.419l-.033.042a1.321,1.321,0,0,1-.337.286,1.637,1.637,0,0,0-.226.171l-.011.007-.6.406a4.132,4.132,0,0,1-.767.459l-.038.016a1.876,1.876,0,0,0-.654.346,1.65,1.65,0,0,1-.861.37,2.1,2.1,0,0,0-.466.175,1.694,1.694,0,0,1-.3.122c-.149.04-.308.1-.45.151a2.471,2.471,0,0,1-.417.131l-.106.013c-.257.035-.331-.013-.521.124l-.007.007a1.043,1.043,0,0,1-.665.124.829.829,0,0,0-.211.035,1.957,1.957,0,0,1-.377.022c-.049,0-.093,0-.135,0" transform="translate(69.903 20.499)" fill="#fff"/>
    <path id="Path_312" data-name="Path 312" d="M77.14,32.956a2.29,2.29,0,0,1-.47-.029c-.06-.016-.37-.06-.426-.071a.519.519,0,0,1-.439-.41c-.04-.237.222-.3.384-.382a2.772,2.772,0,0,1,.861-.277,1.945,1.945,0,0,0,.37-.078c.158-.06.313-.182.43-.169a1.131,1.131,0,0,0,.543-.2l.016-.009.018,0a1.441,1.441,0,0,0,.428-.151.859.859,0,0,1,.213-.084,1.271,1.271,0,0,0,.237-.1,1.9,1.9,0,0,1,.308-.131,1.194,1.194,0,0,0,.248-.115,3.2,3.2,0,0,1,.43-.2.6.6,0,0,0,.226-.151,1.1,1.1,0,0,1,.3-.209,2.307,2.307,0,0,0,.259-.2,2.282,2.282,0,0,1,.273-.2c.042-.031.086-.071.135-.113a1.579,1.579,0,0,1,.386-.277,1.125,1.125,0,0,0,.415-.439.76.76,0,0,1,.171-.18.544.544,0,0,0,.224-.3.637.637,0,0,1,.177-.3.6.6,0,0,0,.166-.266.943.943,0,0,1,.111-.251,1.889,1.889,0,0,0,.169-.375,1.927,1.927,0,0,0,.04-.209.781.781,0,0,1,.2-.488.856.856,0,0,0,.1-.47c0-.058,0-.12.009-.184.011-.122.016-.257.02-.388s.011-.282.024-.386a1.56,1.56,0,0,0-.051-.526,2.236,2.236,0,0,1-.058-.428,2.148,2.148,0,0,0-.211-.685c-.029-.069-.058-.138-.08-.2-.022-.038-.047-.073-.069-.106a.784.784,0,0,1-.153-.346.516.516,0,0,0-.175-.313l-.058-.067a.441.441,0,0,1-.122-.193.3.3,0,0,0-.138-.18,1.156,1.156,0,0,1-.373-.39,2.532,2.532,0,0,0-.266-.235c-.078-.064-.16-.133-.233-.2a2.6,2.6,0,0,0-.282-.189,1.276,1.276,0,0,1-.306-.228,1.647,1.647,0,0,0-.37-.2,2.148,2.148,0,0,1-.2-.1l-.65-.26a1.773,1.773,0,0,0-.512-.173l-.129-.031a2.884,2.884,0,0,0-.681-.126,1.868,1.868,0,0,1-.457-.042c-.089-.016-.184-.031-.286-.044a1.867,1.867,0,0,0-.745-.022.27.27,0,0,0-.189.248,1.037,1.037,0,0,0,.339.53,1.248,1.248,0,0,1,.24.787,1.336,1.336,0,0,1-.175.606,2.3,2.3,0,0,0-.129.3c-.055.144-.133.306-.211.464s-.144.3-.175.393c-.053.142-.122.291-.189.433s-.133.288-.175.4a2.849,2.849,0,0,1-.226.486,2.5,2.5,0,0,0-.16.326,3.422,3.422,0,0,1-.26.557c-.047.082-.091.16-.129.244l-.04.084c-.129.277-.231.495-.348.694-.084.144-.146.264-.206.379s-.124.235-.2.368c-.029.053-.073.129-.122.209a3.011,3.011,0,0,0-.273.512,2.669,2.669,0,0,1-.47.748,3.86,3.86,0,0,0-.5.734.7.7,0,0,1-.173.213.413.413,0,0,0-.12.155.515.515,0,0,1-.2.251.348.348,0,0,0-.126.142.654.654,0,0,1-.373.35l-.033.016a1.288,1.288,0,0,0-.421.3.912.912,0,0,1-.63.18,2.184,2.184,0,0,0-.257.022,2.023,2.023,0,0,1-1.236-.515l-.1-.084a1.7,1.7,0,0,1-.133-.153.838.838,0,0,0-.182-.184.764.764,0,0,1-.306-.419l-.211-.4a4.581,4.581,0,0,1-.35-.894,4.05,4.05,0,0,1-.2-.938c-.007-.1-.009-.211-.011-.317a3.439,3.439,0,0,0-.051-.612l0-.011a2.869,2.869,0,0,1,.069-.887,1.873,1.873,0,0,0,.1-.484,3.456,3.456,0,0,1,.049-.344l.02-.089a2.138,2.138,0,0,1,.251-.734,2.264,2.264,0,0,0,.157-.364,1.8,1.8,0,0,1,.164-.366l.426-.679a5.1,5.1,0,0,1,.5-.634,2.3,2.3,0,0,1,.182-.177,1.707,1.707,0,0,0,.344-.388,1.249,1.249,0,0,1,.373-.348,3.02,3.02,0,0,0,.264-.2,2.571,2.571,0,0,1,.577-.424c.033-.018.067-.038.1-.058l.08-.051a5.623,5.623,0,0,1,.634-.359l.747-.364a2.849,2.849,0,0,1,.816-.286,1.008,1.008,0,0,0,.257-.1A1.06,1.06,0,0,1,75.019,19a1.033,1.033,0,0,0,.355-.062,2,2,0,0,1,.426-.089,2.265,2.265,0,0,0,.333-.053,1.8,1.8,0,0,1,.512-.053l.013,0a1.609,1.609,0,0,0,.65-.022c.044-.009.087-.016.131-.022a1.227,1.227,0,0,1,.776.029,2.218,2.218,0,0,0,.692.078,1.384,1.384,0,0,1,.781.166,1.229,1.229,0,0,0,.439.118,1.873,1.873,0,0,1,.217.04,2.163,2.163,0,0,1,.43.146,1.617,1.617,0,0,0,.248.089,1.384,1.384,0,0,1,.484.2.99.99,0,0,0,.186.1l.053.022a1.757,1.757,0,0,1,.6.339,1.468,1.468,0,0,0,.282.191,2.153,2.153,0,0,1,.291.191c.038.031.087.067.138.1a2.02,2.02,0,0,1,.413.362l.011.013a2,2,0,0,0,.464.464,1.968,1.968,0,0,1,.4.5l.051.08a4.991,4.991,0,0,1,.37.61,2.235,2.235,0,0,1,.124.284c.042.109.091.231.153.357a3.321,3.321,0,0,1,.244.705c.016.1.033.191.051.284.033.171.064.331.078.47a2.642,2.642,0,0,1,.031.464c0,.109,0,.222.013.313v.011c-.011.215-.027.395-.04.552-.013.173-.024.308-.024.428a1.765,1.765,0,0,1-.111.548,1.272,1.272,0,0,0-.082.373,1.459,1.459,0,0,1-.226.665c-.04.073-.078.142-.1.2a2.4,2.4,0,0,1-.446.821,2.239,2.239,0,0,0-.5.668l-.049.091a.529.529,0,0,1-.317.311.4.4,0,0,0-.175.16c-.029.038-.064.084-.111.138a.905.905,0,0,1-.364.306l-.027.013a1.261,1.261,0,0,0-.364.262.969.969,0,0,1-.5.3.451.451,0,0,0-.2.115.873.873,0,0,1-.157.111l-.044.029a2.181,2.181,0,0,1-.646.322,1.263,1.263,0,0,0-.541.2,1.175,1.175,0,0,1-.366.164.985.985,0,0,0-.237.1,3.053,3.053,0,0,1-.69.288,1.087,1.087,0,0,0-.384.111l-.213.06c-.089.022-.166.044-.242.067a2.839,2.839,0,0,1-.359.058c-.042.007-.131,0-.186,0a.736.736,0,0,0-.337.062.806.806,0,0,1-.279.016M75.064,20.291a1.1,1.1,0,0,0-.177.016,1.44,1.44,0,0,1-.173.013,1.545,1.545,0,0,0-.6.14c-.067.027-.131.053-.193.071a.681.681,0,0,0-.193.1.829.829,0,0,1-.3.14.987.987,0,0,0-.475.282l-.024.02a1.472,1.472,0,0,1-.268.182c-.06.033-.124.071-.213.126a2.475,2.475,0,0,0-.435.331c-.069.06-.129.109-.184.151a.666.666,0,0,0-.226.231,1.207,1.207,0,0,1-.268.319l-.113.113c-.275.273-.315.362-.322.386a.411.411,0,0,1-.109.177.946.946,0,0,0-.193.306,1.486,1.486,0,0,1-.144.3,2.164,2.164,0,0,0-.115.222,2.121,2.121,0,0,0-.093.237,1.132,1.132,0,0,1-.126.286.978.978,0,0,0-.138.5l-.129,1.1a2.072,2.072,0,0,0,.051.748l.013.062a8.709,8.709,0,0,0,.233,1.018,3.546,3.546,0,0,0,.417.854c.18.262.322.382.594.311l.013,0a1.469,1.469,0,0,0,.632-.182,1.493,1.493,0,0,0,.373-.359c.031-.04.064-.078.1-.115a2.261,2.261,0,0,0,.313-.417,1.08,1.08,0,0,1,.126-.151,1.558,1.558,0,0,0,.2-.255l.009-.011a1.205,1.205,0,0,0,.135-.224.917.917,0,0,1,.142-.224,2.118,2.118,0,0,0,.266-.433,1.325,1.325,0,0,1,.109-.169.584.584,0,0,0,.12-.262,2.468,2.468,0,0,1,.271-.479l0-.007a.948.948,0,0,0,.2-.437.978.978,0,0,1,.14-.282.62.62,0,0,0,.1-.186.9.9,0,0,1,.149-.317,1.723,1.723,0,0,0,.2-.395l0-.011.319-.745c.018-.051.033-.1.047-.155a2.289,2.289,0,0,1,.242-.61,1.109,1.109,0,0,0,.078-.277,1,1,0,0,1,.186-.481.383.383,0,0,0,.071-.326c0-.038-.007-.075-.007-.111l0-.069c.049-.519-.024-.832-.215-.927a.872.872,0,0,0-.4-.106" transform="translate(83.287 22.72)" fill="#fff"/>
    <path id="Path_313" data-name="Path 313" d="M78.476,35.217a.964.964,0,0,1-.24-.027l-.007,0a2.627,2.627,0,0,0-.548-.08.526.526,0,0,1-.555-.57c-.018-.2.155-.39.517-.572l.013,0a2.41,2.41,0,0,1,1.138-.073l.051,0,.77.084a6.689,6.689,0,0,0,.792.049,2.179,2.179,0,0,1,.362,0,.468.468,0,0,0,.421-.213,1.531,1.531,0,0,1,.175-.235A.774.774,0,0,0,81.6,33a2.34,2.34,0,0,1,.029-.273v-.785c0-.078,0-.155.009-.24a2.578,2.578,0,0,0-.009-.537,1.371,1.371,0,0,1-.007-.375,3.46,3.46,0,0,0,.007-.406c-.016-.231-.009-.437,0-.6,0-.067,0-.124,0-.173s0-.089-.007-.146a3,3,0,0,1,.007-.612l0-.011a1.358,1.358,0,0,0,.016-.586c-.007-.051-.013-.1-.018-.157a3.517,3.517,0,0,1,0-.5c0-.1,0-.193,0-.277v-.75c0-.1-.011-.2-.02-.291a1.071,1.071,0,0,1,.022-.506.8.8,0,0,0,.009-.375,1.144,1.144,0,0,1-.011-.359,4.374,4.374,0,0,0,0-.479c0-.084,0-.175,0-.282V22.008c0-.1-.007-.18-.011-.262a2.059,2.059,0,0,1,.011-.479,1.21,1.21,0,0,0,0-.677,1.347,1.347,0,0,1-.016-.8c.024-.044,0-.138-.027-.226a.57.57,0,0,1,.04-.541c.233-.3.623-.155.881-.058a.965.965,0,0,0,.233.069l.009,0a1.207,1.207,0,0,1,.47.173,1.03,1.03,0,0,0,.288.129,1.685,1.685,0,0,0,.581-.073,1.9,1.9,0,0,1,.519-.08,2.277,2.277,0,0,0,.524-.1A.97.97,0,0,1,85.743,19a.387.387,0,0,0,.386-.053c.033-.018.069-.038.1-.053a1.065,1.065,0,0,1,.617-.109,1.24,1.24,0,0,0,.477-.106,3.139,3.139,0,0,1,.579-.133c.082-.013.151-.022.211-.029a.724.724,0,0,0,.3-.071,1.151,1.151,0,0,1,.331-.084,1.533,1.533,0,0,0,.24-.049c.089-.024.164-.049.228-.071a1.826,1.826,0,0,1,.319-.082l.155-.024a1.1,1.1,0,0,0,.353-.1,1.1,1.1,0,0,1,.413-.124,1.525,1.525,0,0,0,.158-.031l.011,0a1.644,1.644,0,0,0,.306-.089.708.708,0,0,1,.242-.062.96.96,0,0,0,.355-.1c.047-.018.1-.042.171-.069a.518.518,0,0,0,.193-.124.3.3,0,0,1,.446-.035c.027.02.051.044.078.069a.731.731,0,0,0,.266.177,1.641,1.641,0,0,1,.59.408l.069.071a2.014,2.014,0,0,0,.406.342.439.439,0,0,1,.251.477c0,.284-.308.337-.581.382a1.554,1.554,0,0,1-.492-.029,1.494,1.494,0,0,0-.35-.033,1.746,1.746,0,0,1-.18.007.707.707,0,0,0-.348.071.645.645,0,0,1-.461.1c-.04,0-.082-.007-.131-.007a.718.718,0,0,0-.189.033,1.386,1.386,0,0,1-.368.053,1.416,1.416,0,0,0-.359.053.558.558,0,0,1-.235.031.688.688,0,0,0-.3.027.964.964,0,0,1-.237.038,1.445,1.445,0,0,0-.53.055l-.027.007a2.959,2.959,0,0,1-.572.067,3.475,3.475,0,0,0-.563.062,2.438,2.438,0,0,1-.763.091,3.468,3.468,0,0,0-.382.018l-.14.027a3.6,3.6,0,0,1-1.034.082,3.021,3.021,0,0,0-.643.042c-.042,0-.1.013-.153.022a1.553,1.553,0,0,1-.6.035c-.135-.04-.22.035-.359.171a1.294,1.294,0,0,1-.182.164.72.72,0,0,0-.331.583,2.539,2.539,0,0,0-.029.393c0,.087,0,.177-.013.288,0,.047-.016.1-.027.169a1.847,1.847,0,0,0-.042.484,2.568,2.568,0,0,1-.022,1.189c-.022.084.182.393.375.523.08.047.151.1.213.142a.6.6,0,0,0,.517.166c.035,0,.064-.009.1-.016a1.409,1.409,0,0,1,.648.018l.009,0a.5.5,0,0,0,.28,0,.922.922,0,0,1,.393-.007c.027,0,.055.011.082.018a.861.861,0,0,0,.557-.016l.011,0a.589.589,0,0,1,.268.013.658.658,0,0,0,.386-.011l.013,0a1.376,1.376,0,0,1,.375,0,1.043,1.043,0,0,0,.288,0,2.354,2.354,0,0,1,.393-.007c.144,0,.306,0,.475.013a2,2,0,0,0,.484-.009,3.791,3.791,0,0,1,.444,0c.069,0,.142,0,.231,0H89.9a1.717,1.717,0,0,0,.433.011,2.164,2.164,0,0,1,.22-.011,1.168,1.168,0,0,1,.14.011,1.59,1.59,0,0,0,.53-.009,1.2,1.2,0,0,1,.7,0,1.189,1.189,0,0,0,.566.009l.064-.011a3.26,3.26,0,0,1,.661,0c.091.007.177.02.253.031.146.02.273.038.322,0,.055-.069.1-.122.175-.2.04-.044.087-.093.144-.16a.513.513,0,0,1,.118-.1.466.466,0,0,0,.189-.235.488.488,0,0,1,.257-.3.787.787,0,0,0,.1-.075,1.525,1.525,0,0,0,.169-.215c.067-.1.131-.2.248-.173a.934.934,0,0,1,.51.353c.04.044.084.093.133.142a1.414,1.414,0,0,0,.157.122.852.852,0,0,1,.286.264.729.729,0,0,0,.382.322.975.975,0,0,1,.572.393l.069.071c.124.126.164.206.022.43l-.009.011c-.071.082-.135.162-.193.235-.186.228-.251.355-.41.375-.064.009-.251.122-.317.135-.235.044-.346-.069-.663-.151a1.955,1.955,0,0,0-.812-.16.932.932,0,0,1-.444-.1.523.523,0,0,0-.37-.058,2.546,2.546,0,0,1-.683.031c-.073,0-.14-.007-.193-.007-.215,0-.348.007-.479.013-.115,0-.226.009-.379.009a2.733,2.733,0,0,0-.77.1l-.011,0c-.331.044-.417.064-.444.153-.011.049-.027.1-.04.153A2.335,2.335,0,0,0,91,26.46v.708a5.053,5.053,0,0,0,0,.579c0,.055,0,.1,0,.126.013.2.009.421,0,.663,0,.124,0,.255,0,.386v.016a3.03,3.03,0,0,0-.009.679A2.622,2.622,0,0,1,91,29.98c0,.166-.007.319-.011.453a2.989,2.989,0,0,0,.011.575,5.385,5.385,0,0,1,0,1l0,.124a5.848,5.848,0,0,0,0,1.034,1,1,0,0,0,.47.539,1.487,1.487,0,0,0,.492.226.728.728,0,0,1,.129.053.411.411,0,0,0,.326.033,1.815,1.815,0,0,1,.643.016,3.117,3.117,0,0,1,.382,0,1.27,1.27,0,0,0,.743-.133l.262-.24a1.188,1.188,0,0,1,.146-.166,2.868,2.868,0,0,0,.2-.217A2.138,2.138,0,0,1,95,33.068a1.608,1.608,0,0,0,.151-.151c.011-.016.024-.04.042-.069.08-.129.2-.326.377-.348.28-.053.433.153.557.317a1.051,1.051,0,0,0,.169.193c.089.067.157.131.231.2s.138.129.24.209l.515.408a1.348,1.348,0,0,0,.282.18.449.449,0,0,1,.231.186.216.216,0,0,0,.042.055c.142.135.173.217.042.437-.106.171-.253.4-.424.459a.865.865,0,0,1-.659-.018c-.091-.027-.259-.031-.342-.058a2.91,2.91,0,0,0-.4-.111c-.155-.035-.253-.051-.348-.064-.073-.011-.142-.022-.226-.042a6.45,6.45,0,0,0-.708.022c-.162.011-.313.022-.437.022-.155,0-.346,0-.546.011s-.413.011-.588.011c-.2,0-.413,0-.617.011-.186,0-.364.009-.519.009-.186,0-.35.007-.524.011s-.368.011-.588.011c-.149,0-.279.011-.408.022a2.934,2.934,0,0,1-.739,0,4.186,4.186,0,0,0-.708,0c-.138.009-.266.018-.395.018-.091,0-.193.007-.3.013A3.627,3.627,0,0,1,87.6,35a2.62,2.62,0,0,0-.541.007,5.194,5.194,0,0,1-.563.016,5.947,5.947,0,0,0-1.074,0,2.065,2.065,0,0,1-.732.02,2.1,2.1,0,0,0-.39-.02,5.346,5.346,0,0,1-.537-.007,3.191,3.191,0,0,0-.548.007,2.443,2.443,0,0,1-1.122,0,1.607,1.607,0,0,0-.548-.009,2.471,2.471,0,0,1-.512.011,5.907,5.907,0,0,0-1.076,0c-.058,0-.12.007-.189.011a3.1,3.1,0,0,0-.9.133l-.007,0a1.526,1.526,0,0,1-.386.049m7.954-1.2c.08,0,.155,0,.228.009a2.072,2.072,0,0,0,.453,0c.211-.013.395-.009.572,0,.086,0,.169,0,.253,0a2.93,2.93,0,0,0,.772-.282l.113-.053a.685.685,0,0,0,.444-.566c.016-.273.009-.6,0-.856,0-.113,0-.217,0-.3a9.419,9.419,0,0,1,0-1.12,9.135,9.135,0,0,0,0-1.1c0-.109,0-.217.009-.333a5.394,5.394,0,0,0-.009-.776v-.009c0-.149,0-.282,0-.408,0-.235-.009-.455,0-.71a3.964,3.964,0,0,0-.016-.481,2.2,2.2,0,0,1,.018-.692c.049-.228-.126-.373-.45-.546l-.115-.06a1.891,1.891,0,0,0-.75-.275,3.517,3.517,0,0,1-.836,0c-.26-.016-.484-.009-.65,0-.062,0-.115,0-.157,0s-.1,0-.171.007a3.228,3.228,0,0,1-.657-.009.892.892,0,0,0-.333.011.947.947,0,0,1-.49-.011,1.09,1.09,0,0,0-.8.279l-.075.051c-.306.213-.448.4-.433.566a3.184,3.184,0,0,1,0,.546,3.978,3.978,0,0,0,0,.608,2.209,2.209,0,0,1-.009.488,2.012,2.012,0,0,0,.009.619l0,.011c.013.248.009.515,0,.77,0,.12,0,.237,0,.348,0,.151-.007.282-.011.41a4.576,4.576,0,0,0,.009.694,4.191,4.191,0,0,1,.011.7c0,.129-.009.26-.009.419.013.3.009.526,0,.77,0,.122,0,.246,0,.382a.669.669,0,0,0,.419.57l.013.007a2.138,2.138,0,0,0,.9.328l.151,0a6.5,6.5,0,0,0,.657,0,2.451,2.451,0,0,1,.492,0,2.2,2.2,0,0,0,.319,0c.044,0,.087,0,.129,0" transform="translate(93.954 21.098)" fill="#fff"/>
    <path id="Path_314" data-name="Path 314" d="M92.877,33.909c-.029,0-.293.031-.317.024-.344-.038-.441-.2-.441-.441a.966.966,0,0,1,.524-.71,2.693,2.693,0,0,0,.333-.268c.071-.062.224-.182.282-.22a2.252,2.252,0,0,0,.16-.173,2.6,2.6,0,0,1,.366-.293c.122-.08.106-.153.344-.37a4.514,4.514,0,0,1,.5-.455.881.881,0,0,0,.2-.206.851.851,0,0,1,.262-.251.806.806,0,0,0,.186-.2,1.89,1.89,0,0,1,.246-.277,2.112,2.112,0,0,0,.324-.4l.067-.1a1.068,1.068,0,0,1,.328-.39.226.226,0,0,0,.111-.166.332.332,0,0,1,.146-.22.611.611,0,0,0,.237-.331.548.548,0,0,1,.146-.284c.029-.033.067-.075.122-.149a.836.836,0,0,1,.126-.193.634.634,0,0,0,.1-.175.644.644,0,0,1,.264-.43l.018-.016a1.171,1.171,0,0,0,.209-.395,1.929,1.929,0,0,1,.206-.424,2.155,2.155,0,0,0,.277-.548,2.3,2.3,0,0,1,.124-.279,5.911,5.911,0,0,0,.357-.843c.031-.087.073-.186.115-.291.075-.182.16-.39.226-.606a2.461,2.461,0,0,0,.073-.262,2.387,2.387,0,0,1,.233-.654,3.584,3.584,0,0,0,.226-.785,2.345,2.345,0,0,1,.111-.353,1.446,1.446,0,0,0,.124-.448v-.009a2.605,2.605,0,0,0-.189-.754,1.189,1.189,0,0,0-.495-.5.986.986,0,0,0-.142,0,1.328,1.328,0,0,1-.479-.042c-.169-.02-.5,0-.639-.02a5.347,5.347,0,0,0-1,.042,9.138,9.138,0,0,1-1.038.064c-.067,0-.131,0-.193,0a2.062,2.062,0,0,0-.575.042l-.082.02a1.559,1.559,0,0,1-.816.024,1.079,1.079,0,0,0-.421.022,8.753,8.753,0,0,1-1,.044,1.857,1.857,0,0,0-.98.2.712.712,0,0,0-.3.608l.02.623a4.961,4.961,0,0,0,.042.8,2.542,2.542,0,0,1,.067.736v.115a3.346,3.346,0,0,0,.033.406,2.473,2.473,0,0,1,.031.5l0,.013a1.423,1.423,0,0,0,.009.583,1.953,1.953,0,0,1,.035.319,1.71,1.71,0,0,1-.18.763.539.539,0,0,1-.612.279,2.2,2.2,0,0,1-.71-.375c-.164-.1-.251-.457-.251-1.054,0-.14-.009-.291-.018-.439a2.724,2.724,0,0,1,0-.606,1.261,1.261,0,0,0-.029-.246,2.063,2.063,0,0,1-.038-.6,4.494,4.494,0,0,0-.033-.643c-.011-.124-.024-.253-.031-.368s-.011-.191-.016-.277c-.009-.2-.018-.375-.049-.654a1.961,1.961,0,0,1-.042-.424,1.818,1.818,0,0,0-.022-.328,2.382,2.382,0,0,0-.122-.6.689.689,0,0,0-.217-.144,2.57,2.57,0,0,1-.419-.282,2.269,2.269,0,0,1-.251-.255c-.169-.2-.3-.335-.262-.47a.418.418,0,0,1,.209-.277,1.385,1.385,0,0,1,.825-.024c.193.04.424.058.552.08s.262.049.408.082a1.749,1.749,0,0,1,.552.288,1.789,1.789,0,0,0,.2.124.815.815,0,0,1,.279.22.612.612,0,0,0,.242.182.694.694,0,0,0,.228.007.93.93,0,0,1,.284.013,1.356,1.356,0,0,0,.382-.013,3.562,3.562,0,0,1,.43-.031c.067,0,.725-.009.874-.02.173-.011.353-.022.459-.022.067,0,.129,0,.189.009A1.453,1.453,0,0,0,95.06,19a2.31,2.31,0,0,1,.508-.033,1.334,1.334,0,0,0,.313-.013H95.9c.1,0,.546-.02.716-.042.089-.007.169-.018.248-.029a1.746,1.746,0,0,1,.526-.013,1.491,1.491,0,0,0,.466-.011,1.5,1.5,0,0,1,.5-.011l.013,0a2.032,2.032,0,0,0,.914-.067l.532-.149a.4.4,0,0,0,.173-.111.632.632,0,0,1,.3-.169l.011,0a.644.644,0,0,0,.133-.047.947.947,0,0,1,.832-.011l.018.011.2.162a4.054,4.054,0,0,1,1.08.867.982.982,0,0,0,.115.153.375.375,0,0,1,.131.357.542.542,0,0,1-.393.508c-.224.091-.353.164-.4.3a1.521,1.521,0,0,1-.126.262.877.877,0,0,0-.126.3,2.973,2.973,0,0,1-.175.6,4.215,4.215,0,0,0-.253.728c-.022.078-.042.151-.064.224a2.674,2.674,0,0,1-.37.98,2.11,2.11,0,0,0-.093.275.609.609,0,0,1-.087.206.491.491,0,0,0-.053.164c-.031.131-.067.28-.2.335-.044.022-.047.038-.055.118a.682.682,0,0,1-.1.317,1.759,1.759,0,0,1-.122.211.379.379,0,0,0-.08.206.8.8,0,0,1-.209.486l-.024.029a.727.727,0,0,0-.171.308.465.465,0,0,1-.062.14.491.491,0,0,0-.069.16.573.573,0,0,1-.18.3.577.577,0,0,0-.111.211,1,1,0,0,1-.111.224l-.055.073a.741.741,0,0,0-.189.328.509.509,0,0,1-.182.282.218.218,0,0,0-.093.155.411.411,0,0,1-.157.282.452.452,0,0,0-.126.166.69.69,0,0,1-.155.253,1.937,1.937,0,0,0-.133.171,2.407,2.407,0,0,1-.213.268.794.794,0,0,0-.1.131,1.044,1.044,0,0,1-.166.226,1.207,1.207,0,0,0-.155.2,1.212,1.212,0,0,1-.342.41c-.093.1-.144.155-.213.237-.033.04-.071.084-.12.14a1.552,1.552,0,0,1-.384.4.8.8,0,0,0-.308.324.794.794,0,0,1-.282.306.547.547,0,0,0-.093.078,1.2,1.2,0,0,1-.271.284,1.332,1.332,0,0,0-.1.089,2.051,2.051,0,0,1-.277.242,1.136,1.136,0,0,0-.233.237,2.344,2.344,0,0,1-.39.355c-.049.035-.171.115-.2.135a1.251,1.251,0,0,1-.331.231c-.071.035-.279.14-.379.2a2.9,2.9,0,0,1-.648.268" transform="translate(107.641 22.031)" fill="#fff"/>
    <path id="Path_315" data-name="Path 315" d="M105.422,35.169a.861.861,0,0,1-.126-.011h-.007a1.114,1.114,0,0,1-.588-.209.661.661,0,0,1-.331-.559c-.013-.122-.022-.246-.031-.364a3.175,3.175,0,0,0-.093-.7,1.679,1.679,0,0,1,.062-.8,6.964,6.964,0,0,0,.126-1.056,2.351,2.351,0,0,0-.02-.362,1.627,1.627,0,0,1,.024-.688,1.3,1.3,0,0,0,.022-.439c0-.062-.007-.122-.007-.175a3.709,3.709,0,0,1,.022-.541,1.891,1.891,0,0,0,0-.537,1.658,1.658,0,0,1,.011-.581,1.341,1.341,0,0,0-.007-.6,1.49,1.49,0,0,1,.02-.781,1.813,1.813,0,0,0,0-1.027.331.331,0,0,0-.339-.235,1.267,1.267,0,0,0-.781.275,1.388,1.388,0,0,1-.71.517.5.5,0,0,0-.3.173.732.732,0,0,1-.215.162,1.008,1.008,0,0,0-.315.209,1.769,1.769,0,0,1-.186.149c-.02.016-.051.038-.087.062-.1.071-.251.177-.421.319-.051.044-.093.084-.131.12a2.089,2.089,0,0,1-.37.293c-.091.067-.171.131-.24.186a2.194,2.194,0,0,1-.277.2,1.406,1.406,0,0,0-.306.228c-.051.047-.1.1-.175.151-.051.035-.1.069-.155.1a3.439,3.439,0,0,0-.377.277,1.182,1.182,0,0,1-.217.142.984.984,0,0,0-.306.233.758.758,0,0,1-.348.251.555.555,0,0,0-.173.1.835.835,0,0,1-.213.146c-.111.062-.191.16-.288.213a1.889,1.889,0,0,1-.5.224,1.17,1.17,0,0,0-.2.064l-.166.064a1.5,1.5,0,0,1-.872.122.415.415,0,0,1-.362-.519c.051-.284.433-.557.732-.705a1.979,1.979,0,0,0,.683-.475.915.915,0,0,1,.228-.153,1.487,1.487,0,0,0,.355-.237,6.185,6.185,0,0,1,.634-.439,2.766,2.766,0,0,0,.359-.271c.069-.058.133-.111.191-.153.089-.064.177-.115.253-.16a1.057,1.057,0,0,0,.33-.253,1.782,1.782,0,0,1,.375-.308c.069-.047.14-.093.215-.155l.009,0a1.347,1.347,0,0,0,.206-.182,1.556,1.556,0,0,1,.355-.291,1.1,1.1,0,0,0,.293-.246,2.723,2.723,0,0,1,.251-.237,1.855,1.855,0,0,0,.129-.14,1.463,1.463,0,0,1,.4-.364,1.276,1.276,0,0,0,.319-.3,1.3,1.3,0,0,1,.2-.209,2.233,2.233,0,0,0,.3-.3c.062-.073.126-.146.2-.222.047-.055.126-.131.217-.22s.211-.2.3-.3a1.49,1.49,0,0,1,.155-.133,1,1,0,0,0,.344-.4.671.671,0,0,1,.222-.257,1.362,1.362,0,0,0,.257-.268l.007-.011c.064-.071.129-.135.184-.193a1.134,1.134,0,0,0,.271-.335.812.812,0,0,1,.264-.313.637.637,0,0,0,.231-.271,1.013,1.013,0,0,1,.286-.359c.027-.029.058-.058.091-.091.044-.055.078-.106.111-.151a1.6,1.6,0,0,1,.282-.326.747.747,0,0,0,.2-.24.912.912,0,0,1,.164-.228.707.707,0,0,0,.1-.142,1.353,1.353,0,0,1,.2-.286.449.449,0,0,0,.149-.251c.024-.073.031-.153.06-.22s-.038-.182-.067-.22a.84.84,0,0,0-.355-.262c-.45-.16-.612-.326-.654-.577-.02-.109.093-.273.315-.366a1.179,1.179,0,0,1,.756-.1,6.046,6.046,0,0,1,.643.106.978.978,0,0,1,.384.175.866.866,0,0,0,.146.087.8.8,0,0,1,.166.1,2.262,2.262,0,0,0,.244.142.87.87,0,0,1,.257.189.873.873,0,0,0,.2.155.734.734,0,0,1,.182.189,1.128,1.128,0,0,0,.186.2.45.45,0,0,1,.208.468c-.047.3-.1.408-.346.532l-.115.055a1.36,1.36,0,0,0-.4.248c-.06.069-.149.157-.242.255a4.756,4.756,0,0,0-.351.379,5.752,5.752,0,0,1-.586.714c-.022.022-.058.053-.1.091a1.637,1.637,0,0,0-.335.355l0,.009a.563.563,0,0,1-.171.169.771.771,0,0,0-.275.317l-.007.011a2.482,2.482,0,0,1-.271.3c-.067.069-.129.133-.162.173a.556.556,0,0,0-.124.419.433.433,0,0,0,.173.3.8.8,0,0,1,.271.626,2.938,2.938,0,0,1-.018.659l0,.024-.02.752c0,.06,0,.135,0,.213a2.715,2.715,0,0,1-.007.424,1.5,1.5,0,0,0-.016.583,1.761,1.761,0,0,1,.018.213,4.123,4.123,0,0,0,0,.721,1.379,1.379,0,0,1-.009.3,1.6,1.6,0,0,0,.009.481,2.555,2.555,0,0,1,.009.648,1.044,1.044,0,0,0-.009.209.7.7,0,0,1,.009.344.393.393,0,0,0-.009.131,2.38,2.38,0,0,1,.011.526c0,.1-.009.2-.009.3v.792l.02.721a.373.373,0,0,0,.024.089.45.45,0,0,1-.031.382,1.1,1.1,0,0,0-.02.561c.011.082.02.166.027.255a2.242,2.242,0,0,1-.113.9l-.011.022c-.111.24-.233.508-.575.508" transform="translate(116.28 21.475)" fill="#fff"/>
    <path id="Path_316" data-name="Path 316" d="M105.371,34.819a1.389,1.389,0,0,1-.231-.053c-.379-.146-.326-.293-.222-.461a1.193,1.193,0,0,1,.519-.455.653.653,0,0,1,.231-.164.693.693,0,0,0,.171-.1.841.841,0,0,1,.151-.1,2.062,2.062,0,0,0,.262-.166,1.313,1.313,0,0,1,.266-.144c.055-.027.106-.049.144-.071.051-.04.1-.08.155-.122a1.674,1.674,0,0,1,.659-.382,1.524,1.524,0,0,0,.384-.266,3.129,3.129,0,0,1,.346-.26,1.707,1.707,0,0,0,.393-.33,2.322,2.322,0,0,1,.286-.266,2.461,2.461,0,0,0,.579-.612l.024-.033a.648.648,0,0,1,.1-.1.432.432,0,0,0,.166-.228c.027-.18.106-.26.282-.435a1.7,1.7,0,0,0,.406-.752.54.54,0,0,1,.129-.257.4.4,0,0,0,.1-.279.585.585,0,0,1,.1-.339.5.5,0,0,0,.089-.246,1.487,1.487,0,0,1,.082-.348c.027-.082.053-.169.069-.242s.035-.135.051-.2a1.623,1.623,0,0,0,.075-.359.6.6,0,0,1,.047-.271.806.806,0,0,0,.062-.311,1.473,1.473,0,0,1,.091-.592,1.164,1.164,0,0,0,0-.736.259.259,0,0,0-.211-.217l-.109-.016a.7.7,0,0,0-.291-.027c-.049.007-.106.018-.164.029a1.276,1.276,0,0,1-.382.035,2.589,2.589,0,0,0-.776.075c-.058.013-.111.022-.157.031-.106.011-.248.035-.4.06a4.052,4.052,0,0,1-.526.071l-.914.126c-.06.009-.109.018-.153.022a2.315,2.315,0,0,0-.4.084,3.72,3.72,0,0,0-.386.1,1.762,1.762,0,0,1-.182.049c-.177.042-.521.087-.65.124a1.778,1.778,0,0,1-.563,0c-.248-.053-.275-.206-.424-.308a2.422,2.422,0,0,1-.373-.333c-.033-.035-.06-.069-.087-.1A.508.508,0,0,0,104,24.8l-.011-.007a1.351,1.351,0,0,1-.428-.5.646.646,0,0,1,0-.606.387.387,0,0,1,.519-.26,1.214,1.214,0,0,1,.428.3.746.746,0,0,0,.382.184c.042.011.078.02.109.031a.592.592,0,0,1,.091.049.577.577,0,0,0,.324.1c.1,0,.2-.009.322-.018.155-.013.331-.027.559-.027a3.836,3.836,0,0,0,.484-.033,2.948,2.948,0,0,1,.4-.031,6.128,6.128,0,0,0,.628-.042,2.691,2.691,0,0,1,.322-.031c.1-.007.193-.011.317-.031a.892.892,0,0,1,.33-.016.633.633,0,0,0,.3-.024l.024,0a3.617,3.617,0,0,0,.415-.055,1.577,1.577,0,0,1,.6-.029.89.89,0,0,0,.484-.051l.051-.013a1.28,1.28,0,0,0,.754-.446.63.63,0,0,0,.106-.488c0-.078,0-.16,0-.246a2.383,2.383,0,0,1,.024-.792,1.309,1.309,0,0,0,0-.426,3.02,3.02,0,0,1-.02-.61l0-.011a1.622,1.622,0,0,0,0-.528,3.183,3.183,0,0,1-.022-.331v-.12a.656.656,0,0,0-.093-.455l-.007-.009c-.12-.244-.155-.308-.22-.319l-.009,0a3.568,3.568,0,0,0-.594-.206c-.237-.047-.357-.131-.408-.308a.34.34,0,0,1,.158-.382,1.148,1.148,0,0,1,.61-.169l.064,0c.115-.018.215-.038.3-.058a.734.734,0,0,1,.37-.024,1.493,1.493,0,0,0,.26.047c.075.009.16.018.264.035a3.657,3.657,0,0,1,.539.18l.158.06.009,0a2.844,2.844,0,0,1,.4.228c.058.038.118.078.189.12a1.025,1.025,0,0,1,.337.53c.084.279-.109.384-.228.508a.713.713,0,0,0-.142.18,1.5,1.5,0,0,0-.142.543,5.01,5.01,0,0,1-.044.639,2.264,2.264,0,0,0-.022.459c0,.049,0,.1,0,.144a5.7,5.7,0,0,1-.02,1.076c0,.333,0,.5.129.645a.831.831,0,0,0,.346.253.731.731,0,0,0,.51.024,1.476,1.476,0,0,1,.169-.027c.133-.016.2-.02.3-.027l.2-.016a1.769,1.769,0,0,0,.189-.02,2.149,2.149,0,0,1,.444-.024,1.078,1.078,0,0,0,.393-.016,1.416,1.416,0,0,1,.242-.027,1.555,1.555,0,0,0,.319-.04c.1-.018.193-.035.315-.047a3.483,3.483,0,0,0,.535-.144l.069-.022a1.772,1.772,0,0,1,.818-.016l.069.011a.745.745,0,0,1,.337.1,1.547,1.547,0,0,0,.162.071,1.728,1.728,0,0,1,.632.406l.024.029a.86.86,0,0,1,.3.7c-.024.357-.388.457-.712.543a.852.852,0,0,1-.488-.007,1.554,1.554,0,0,0-.237-.031,1.59,1.59,0,0,1-.333-.06.964.964,0,0,0-.308-.049l-.084,0a1.549,1.549,0,0,1-.519-.049,3.011,3.011,0,0,0-.577-.038c-.082,0-.169-.011-.255-.02a.921.921,0,0,0-.3-.007,1.592,1.592,0,0,1-.472.011c-.053,0-.1-.007-.133-.007a1.253,1.253,0,0,0-.166.016,1.774,1.774,0,0,1-.5,0,3.165,3.165,0,0,0-.617,0c-.124.02-.293.235-.421.328l-.013.007a.773.773,0,0,0-.359.568,2.757,2.757,0,0,1-.093.45,2.683,2.683,0,0,0-.08.37,3.582,3.582,0,0,1-.175.812l-.157.659a1.365,1.365,0,0,0-.18.577v.011a1.074,1.074,0,0,1-.106.293.884.884,0,0,0-.109.317v.011a2.029,2.029,0,0,1-.291.634,1.391,1.391,0,0,0-.153.291.823.823,0,0,1-.106.2l-.009.011a.774.774,0,0,0-.2.313c-.018.042-.035.087-.06.135a.988.988,0,0,1-.191.268,1.387,1.387,0,0,0-.135.169l-.009.011a1.213,1.213,0,0,0-.164.226.722.722,0,0,1-.164.209.853.853,0,0,0-.115.12,1.682,1.682,0,0,1-.253.248,1.574,1.574,0,0,0-.253.244c-.033.04-.067.075-.1.111a1.043,1.043,0,0,1-.1.089,1.647,1.647,0,0,0-.275.268l-.007.009a1.555,1.555,0,0,1-.186.162.8.8,0,0,0-.171.171l-.038.042a.742.742,0,0,1-.437.311.33.33,0,0,0-.182.122.749.749,0,0,1-.2.169c-.04.02-.08.038-.118.055a.748.748,0,0,0-.3.2.755.755,0,0,1-.3.222.783.783,0,0,0-.166.1,1.374,1.374,0,0,1-.5.271c-.109.04-.2.082-.273.118a1.471,1.471,0,0,1-.244.1,1.327,1.327,0,0,0-.213.027c-.129.049-.164.1-.24.1a1.305,1.305,0,0,0-.306.042,3.02,3.02,0,0,1-.472.031" transform="translate(126.063 21.598)" fill="#fff"/>
    <path id="Path_317" data-name="Path 317" d="M113.955,35.053c-.051,0-.481.02-.528.013a.6.6,0,0,1-.559-.415c-.113-.3.16-.393.41-.546a.84.84,0,0,1,.277-.093.324.324,0,0,0,.14-.047,1.241,1.241,0,0,1,.548-.211,2.7,2.7,0,0,0,.5-.2,2.159,2.159,0,0,1,.4-.164.238.238,0,0,0,.1-.078.394.394,0,0,1,.3-.14c.038,0,.08-.038.131-.08a.559.559,0,0,1,.211-.131.858.858,0,0,0,.342-.211l.033-.029a.887.887,0,0,1,.211-.138.732.732,0,0,0,.213-.138,1.636,1.636,0,0,1,.184-.142,1.6,1.6,0,0,0,.2-.157,1.332,1.332,0,0,0,.111-.126.424.424,0,0,1,.277-.2c.013,0,.044-.064.06-.1a.372.372,0,0,1,.286-.248c.062-.009.086-.038.142-.124a1.168,1.168,0,0,1,.151-.2.842.842,0,0,0,.262-.359.773.773,0,0,1,.2-.311l.087-.1a.853.853,0,0,0,.2-.3c.016-.029.029-.058.047-.093.053-.109.1-.193.144-.26a1.327,1.327,0,0,0,.087-.157,1.53,1.53,0,0,1,.109-.246,2.75,2.75,0,0,0,.189-.457,1.545,1.545,0,0,1,.089-.24,1.131,1.131,0,0,0,.122-.444,2.511,2.511,0,0,1,.129-.608c.018-.062.036-.118.047-.162a.729.729,0,0,0,.011-.169,1.3,1.3,0,0,1,.1-.59,2.942,2.942,0,0,0,.06-.719c.02-.24.02-.475.02-.772,0-.144.013-.264.022-.368a1.409,1.409,0,0,0,0-.386,2.506,2.506,0,0,1-.009-.661l.007-.109a7.418,7.418,0,0,0,0-.994c-.016-.552-.007-.77,0-.887,0-.033,0-.06,0-.084,0-.067,0-.142-.009-.22a1.71,1.71,0,0,1,.011-.457,2.889,2.889,0,0,0,.011-.716,1.51,1.51,0,0,1-.013-.191,2.03,2.03,0,0,0-.082-.77.663.663,0,0,0-.224-.424l-.036-.02a2.672,2.672,0,0,0-.415-.2c-.02-.007-.242-.053-.293-.067-.228-.062-.484-.084-.49-.277-.011-.333.091-.4.359-.519.035-.016.164-.069.2-.087a1.343,1.343,0,0,1,.825-.069,1.719,1.719,0,0,0,.313.04,1.973,1.973,0,0,1,.748.273l.61.291a2.111,2.111,0,0,1,.659.7c.151.348-.036.464-.217.637a.329.329,0,0,1-.038.024.916.916,0,0,0-.189.575c-.007.071-.013.14-.024.2a1.727,1.727,0,0,0,0,.386,2.177,2.177,0,0,1,0,.466,3.535,3.535,0,0,0,0,.657,2.841,2.841,0,0,1,.007.43c0,.091,0,.184,0,.271V23.3a1.929,1.929,0,0,1,0,.7c0,.175-.009.3-.013.413,0,.091-.009.171-.009.266a3.41,3.41,0,0,1-.018.346,1.825,1.825,0,0,0,0,.331,1.648,1.648,0,0,1-.018.37,3.006,3.006,0,0,0-.024.322,3.839,3.839,0,0,1-.067.723,4.635,4.635,0,0,0-.08.577c-.016.146-.029.286-.049.386-.042.171-.069.337-.091.486a2.849,2.849,0,0,1-.082.4,2.372,2.372,0,0,0-.071.282,2.319,2.319,0,0,1-.169.541,2.085,2.085,0,0,0-.1.288,1.671,1.671,0,0,1-.224.495,2.437,2.437,0,0,0-.395.683,1.406,1.406,0,0,1-.557.734.2.2,0,0,0-.051.062.831.831,0,0,1-.237.253.479.479,0,0,0-.109.115.591.591,0,0,1-.246.213c-.206.1-.268.135-.322.275a.591.591,0,0,1-.441.373.54.54,0,0,0-.3.175,1.3,1.3,0,0,1-.209.175c-.047.04-.093.084-.138.129a1.021,1.021,0,0,1-.5.337.6.6,0,0,0-.393.189l-.055.049a1.316,1.316,0,0,1-.366.184,1.339,1.339,0,0,0-.262.12,1.536,1.536,0,0,1-.342.16,1.278,1.278,0,0,0-.257.118,1.018,1.018,0,0,1-.375.2l-.215.055a1.261,1.261,0,0,1-.271.073,1.889,1.889,0,0,0-.328.071.92.92,0,0,1-.388.087m1.575-6.306a1.075,1.075,0,0,1-.541-.217,1.2,1.2,0,0,1-.4-.541,2.079,2.079,0,0,1-.217-1.038,2.721,2.721,0,0,1,.087-.424,1.269,1.269,0,0,0,.062-.433,1.851,1.851,0,0,1,.013-.459l.009-.071a3.123,3.123,0,0,0,.009-.568c0-.082-.009-.164-.009-.279s.007-.206.013-.3a2.364,2.364,0,0,0,.007-.426,4.406,4.406,0,0,1,0-.663,3.086,3.086,0,0,0,0-.555,1.359,1.359,0,0,1,.009-.266,1.561,1.561,0,0,0-.007-.475,1.829,1.829,0,0,1-.007-.439,2.488,2.488,0,0,0,0-.342v-.018c-.02-.4.007-.785-.118-.909L114.4,20.2a.722.722,0,0,0-.253-.206.994.994,0,0,0-.242-.1c-.213,0-.581-.042-.67-.275l-.009-.047c-.067-.262.248-.441.466-.523l.113-.042a1.127,1.127,0,0,1,.692-.02,5.443,5.443,0,0,0,.572.122,1.568,1.568,0,0,1,.45.186c.078.042.157.084.235.12a2.833,2.833,0,0,1,.577.464,1.13,1.13,0,0,1,.264.566.428.428,0,0,1-.1.3.986.986,0,0,0-.135.266c-.035.124-.06.226-.084.346-.018.08-.038.166-.064.271l0,.009a.943.943,0,0,0-.011.444,1.283,1.283,0,0,1,.018.169l-.011.131a2.9,2.9,0,0,0-.013.5,1.916,1.916,0,0,1,.018.907.372.372,0,0,0-.016.091,2.16,2.16,0,0,1,0,.572l0,.044a4.266,4.266,0,0,1,0,.652,3.152,3.152,0,0,0,0,.561,8.631,8.631,0,0,1,.024.978c0,.1,0,.186,0,.275s0,.184.009.286a2.184,2.184,0,0,1-.058.814c-.151.424-.313.681-.632.681" transform="translate(137.461 21.493)" fill="#fff"/>
    <path id="Path_318" data-name="Path 318" d="M121.358,23.525a.959.959,0,0,1-.6-.177l-.1-.047c-.029-.016-.058-.029-.089-.042a1.61,1.61,0,0,1-.379-.228,1.206,1.206,0,0,0-.213-.155c-.1-.062-.184-.113-.217-.2l0-.009c-.018-.058-.091-.111-.171-.171a.969.969,0,0,1-.2-.189l-.04-.051A1.98,1.98,0,0,0,119,21.9l-.1-.189c-.253-.317-.337-.563-.18-.69.186-.255.508-.129.752,0,.055.029.113.062.175.093l.009,0,.2.131a5.835,5.835,0,0,0,.572.277,1.579,1.579,0,0,0,.51.124c.157,0,.384.04.528.044.113,0,.211.009.284.009.237-.007.41-.016.537-.02a1.854,1.854,0,0,1,.4,0l.009,0a.843.843,0,0,0,.439,0,1.442,1.442,0,0,1,.512-.024,2.739,2.739,0,0,0,.588,0c.118-.009.237-.018.362-.018s.242,0,.377-.009c.162,0,.344-.011.543-.011.124,0,.231-.007.344-.013a1.384,1.384,0,0,1,.331-.007,1.2,1.2,0,0,0,.3-.016,2.943,2.943,0,0,1,.388-.009,2.8,2.8,0,0,0,.608,0c.12-.009.233-.016.328-.016l1.111-.022,1.111-.042c.113,0,.26-.013.43-.027.213-.018.455-.038.685-.038a4.389,4.389,0,0,0,1.091-.084h.011l.641-.087c.1-.018.191-.042.277-.064a1.315,1.315,0,0,1,.357-.064,1.685,1.685,0,0,1,.257.02,2.258,2.258,0,0,0,.319.022,2.82,2.82,0,0,1,.728.131l.08.022a.956.956,0,0,1,.561.3s.375.379.271.623c-.02.058-.038.113-.051.16a.449.449,0,0,1-.175.286c-.024.011-.051.029-.084.047a.973.973,0,0,1-.43.18,4.634,4.634,0,0,0-.506.055,1.805,1.805,0,0,1-.528.029c-.153,0-.268-.007-.361-.011a.857.857,0,0,0-.293.009l-.009,0a2.085,2.085,0,0,1-.841.022c-.049-.009-.093-.018-.144-.022h-1.555c-.126,0-.264.011-.4.024a1.9,1.9,0,0,1-.612-.007,2.174,2.174,0,0,0-.59-.011c-.118.009-.24.016-.35.016-.22,0-.413.007-.581.011-.142.007-.275.011-.4.011-.213,0-.353.009-.488.02s-.271.022-.475.022a2.318,2.318,0,0,1-.233-.016.712.712,0,0,0-.43.033,1,1,0,0,1-.4.04c-.133,0-.26,0-.366,0a2.171,2.171,0,0,1-.606.029,1.171,1.171,0,0,0-.344.011,1.659,1.659,0,0,1-.455.029c-.044,0-.089,0-.129,0a4.074,4.074,0,0,0-.759.02c-.055.007-.129.018-.209.029a3.069,3.069,0,0,1-.626.058,1.4,1.4,0,0,0-.41.091,2.5,2.5,0,0,1-.559.1" transform="translate(144.533 25.425)" fill="#fff"/>
  </g>
</svg>
